M48
METRIC,TZ
T1C0.900
T2C1.000
T3C2.700
%
T1
X37.620Y18.000
X13.000Y30.000
X13.000Y38.000
X24.000Y38.000
X37.620Y25.620
X23.160Y22.000
X18.080Y38.000
X26.540Y38.000
X35.080Y10.000
X43.540Y10.000
X23.160Y30.000
X13.000Y22.000
X35.080Y18.000
X30.000Y18.000
X32.540Y18.000
X30.000Y10.000
X41.000Y10.000
X40.160Y18.000
X42.700Y18.000
X45.240Y18.000
X40.160Y25.620
X42.700Y25.620
X45.240Y25.620
X35.080Y25.620
X32.540Y25.620
X30.000Y25.620
T2
X5.000Y20.000
X60.000Y6.000
X60.000Y17.000
X60.000Y28.000
X60.000Y39.000
X5.000Y22.540
X60.000Y8.540
X60.000Y19.540
X60.000Y30.540
X60.000Y41.540
X60.000Y11.080
X60.000Y22.080
X60.000Y33.080
X60.000Y44.080
T3
X1.600Y2.600
X63.400Y2.600
X1.600Y47.480
X63.400Y47.480
T0
M30
