%FSLAX46Y46*%
%MOMM*%
%TF.FileFunction,Copper,L2,Bot*%
%TF.Part,Single*%
%LPD*%
%ADD10C,1.7000*%
%ADD11C,1.8000*%
%LPD*%
G36*
X4500000Y700000D02*
X4700000Y900000D01*
X4700000Y1100000D01*
X4900000Y1300000D01*
X4900000Y1500000D01*
X5100000Y1700000D01*
X5100000Y3700000D01*
X4900000Y3900000D01*
X4900000Y4100000D01*
X4700000Y4300000D01*
X4700000Y4500000D01*
X3500000Y5700000D01*
X3300000Y5700000D01*
X3100000Y5900000D01*
X2900000Y5900000D01*
X2700000Y6100000D01*
X700000Y6100000D01*
X500000Y5900000D01*
X300000Y5900000D01*
X100000Y5700000D01*
X-100000Y5700000D01*
X-300000Y5500000D01*
X-300000Y44700000D01*
X-100000Y44500000D01*
X100000Y44500000D01*
X300000Y44300000D01*
X500000Y44300000D01*
X700000Y44100000D01*
X2700000Y44100000D01*
X2900000Y44300000D01*
X3100000Y44300000D01*
X3300000Y44500000D01*
X3500000Y44500000D01*
X4700000Y45700000D01*
X4700000Y45900000D01*
X4900000Y46100000D01*
X4900000Y46300000D01*
X5100000Y46500000D01*
X5100000Y48500000D01*
X4900000Y48700000D01*
X4900000Y48900000D01*
X4700000Y49100000D01*
X60300000Y49100000D01*
X60100000Y48900000D01*
X60100000Y48700000D01*
X59900000Y48500000D01*
X59900000Y46500000D01*
X60100000Y46300000D01*
X60100000Y46100000D01*
X60300000Y45900000D01*
X60300000Y45700000D01*
X59700000Y45700000D01*
X59500000Y45500000D01*
X59300000Y45500000D01*
X58700000Y44900000D01*
X58700000Y44700000D01*
X58500000Y44500000D01*
X58500000Y43700000D01*
X58700000Y43500000D01*
X58700000Y43300000D01*
X59100000Y42900000D01*
X58700000Y42500000D01*
X58700000Y42300000D01*
X58500000Y42100000D01*
X58500000Y41900000D01*
X58700000Y41700000D01*
X59100000Y41700000D01*
X59300000Y41900000D01*
X59300000Y42100000D01*
X59500000Y42300000D01*
X59700000Y42300000D01*
X59900000Y42500000D01*
X60300000Y42500000D01*
X60500000Y42300000D01*
X60700000Y42300000D01*
X60900000Y42100000D01*
X60900000Y41900000D01*
X61100000Y41700000D01*
X61500000Y41700000D01*
X61700000Y41900000D01*
X61700000Y42100000D01*
X61500000Y42300000D01*
X61500000Y42500000D01*
X61100000Y42900000D01*
X61500000Y43300000D01*
X61500000Y43500000D01*
X61700000Y43700000D01*
X61700000Y44500000D01*
X61900000Y44300000D01*
X62100000Y44300000D01*
X62300000Y44100000D01*
X64300000Y44100000D01*
X64500000Y44300000D01*
X64700000Y44300000D01*
X64900000Y44500000D01*
X65100000Y44500000D01*
X65100000Y5700000D01*
X64900000Y5700000D01*
X64700000Y5900000D01*
X64500000Y5900000D01*
X64300000Y6100000D01*
X62300000Y6100000D01*
X62100000Y5900000D01*
X61900000Y5900000D01*
X61700000Y5700000D01*
X61700000Y6300000D01*
X61500000Y6500000D01*
X61500000Y6700000D01*
X61100000Y7100000D01*
X61500000Y7500000D01*
X61500000Y7700000D01*
X61700000Y7900000D01*
X61700000Y8100000D01*
X61500000Y8300000D01*
X61100000Y8300000D01*
X60900000Y8100000D01*
X60900000Y7900000D01*
X60700000Y7700000D01*
X60500000Y7700000D01*
X60300000Y7500000D01*
X59900000Y7500000D01*
X59700000Y7700000D01*
X59500000Y7700000D01*
X59300000Y7900000D01*
X59300000Y8100000D01*
X59100000Y8300000D01*
X58700000Y8300000D01*
X58500000Y8100000D01*
X58500000Y7900000D01*
X58700000Y7700000D01*
X58700000Y7500000D01*
X59100000Y7100000D01*
X58700000Y6700000D01*
X58700000Y6500000D01*
X58500000Y6300000D01*
X58500000Y5500000D01*
X58700000Y5300000D01*
X58700000Y5100000D01*
X59300000Y4500000D01*
X59500000Y4500000D01*
X59700000Y4300000D01*
X60300000Y4300000D01*
X60100000Y4100000D01*
X60100000Y3900000D01*
X59900000Y3700000D01*
X59900000Y1700000D01*
X60100000Y1500000D01*
X60100000Y1300000D01*
X60300000Y1100000D01*
X60300000Y900000D01*
X60500000Y700000D01*
X4500000Y700000D01*
G37*
%LPD*%
%LPC*%
G36*
X27300000Y38300000D02*
X27500000Y38100000D01*
X27900000Y38100000D01*
X28100000Y38300000D01*
X28100000Y38500000D01*
X27100000Y39500000D01*
X26900000Y39500000D01*
X26700000Y39300000D01*
X26700000Y38900000D01*
X26900000Y38700000D01*
X27100000Y38700000D01*
X27300000Y38500000D01*
X27300000Y38300000D01*
G37*
%LPD*%
%LPC*%
G36*
X18900000Y38300000D02*
X19100000Y38100000D01*
X19500000Y38100000D01*
X19700000Y38300000D01*
X19700000Y38500000D01*
X19500000Y38700000D01*
X19500000Y38900000D01*
X19100000Y39300000D01*
X18900000Y39300000D01*
X18700000Y39500000D01*
X18500000Y39500000D01*
X18300000Y39300000D01*
X18300000Y38900000D01*
X18500000Y38700000D01*
X18700000Y38700000D01*
X18900000Y38500000D01*
X18900000Y38300000D01*
G37*
%LPD*%
%LPC*%
G36*
X16500000Y38300000D02*
X16700000Y38100000D01*
X17100000Y38100000D01*
X17300000Y38300000D01*
X17300000Y38500000D01*
X17500000Y38700000D01*
X17700000Y38700000D01*
X17900000Y38900000D01*
X17900000Y39300000D01*
X17700000Y39500000D01*
X17500000Y39500000D01*
X17300000Y39300000D01*
X17100000Y39300000D01*
X16700000Y38900000D01*
X16700000Y38700000D01*
X16500000Y38500000D01*
X16500000Y38300000D01*
G37*
%LPD*%
%LPC*%
G36*
X59500000Y37500000D02*
X59700000Y37300000D01*
X60500000Y37300000D01*
X60700000Y37500000D01*
X60900000Y37500000D01*
X61500000Y38100000D01*
X61500000Y38300000D01*
X61700000Y38500000D01*
X61700000Y39300000D01*
X61500000Y39500000D01*
X61500000Y39700000D01*
X61100000Y40100000D01*
X61500000Y40500000D01*
X61500000Y40700000D01*
X61700000Y40900000D01*
X61700000Y41100000D01*
X61500000Y41300000D01*
X61100000Y41300000D01*
X60900000Y41100000D01*
X60900000Y40900000D01*
X60700000Y40700000D01*
X60500000Y40700000D01*
X60300000Y40500000D01*
X59900000Y40500000D01*
X59700000Y40700000D01*
X59500000Y40700000D01*
X59300000Y40900000D01*
X59300000Y41100000D01*
X59100000Y41300000D01*
X58700000Y41300000D01*
X58500000Y41100000D01*
X58500000Y40900000D01*
X58700000Y40700000D01*
X58700000Y40500000D01*
X59100000Y40100000D01*
X58700000Y39700000D01*
X58700000Y39500000D01*
X58500000Y39300000D01*
X58500000Y38500000D01*
X58700000Y38300000D01*
X58700000Y38100000D01*
X59300000Y37500000D01*
X59500000Y37500000D01*
G37*
%LPD*%
%LPC*%
G36*
X26700000Y36500000D02*
X26900000Y36300000D01*
X27100000Y36300000D01*
X28100000Y37300000D01*
X28100000Y37500000D01*
X27900000Y37700000D01*
X27500000Y37700000D01*
X27300000Y37500000D01*
X27300000Y37300000D01*
X27100000Y37100000D01*
X26900000Y37100000D01*
X26700000Y36900000D01*
X26700000Y36500000D01*
G37*
%LPD*%
%LPC*%
G36*
X23500000Y36500000D02*
X23700000Y36300000D01*
X24100000Y36300000D01*
X24300000Y36500000D01*
X24500000Y36500000D01*
X24700000Y36700000D01*
X24900000Y36700000D01*
X25100000Y36900000D01*
X25100000Y37100000D01*
X25900000Y36300000D01*
X26100000Y36300000D01*
X26300000Y36500000D01*
X26300000Y36900000D01*
X26100000Y37100000D01*
X25900000Y37100000D01*
X25700000Y37300000D01*
X25700000Y37500000D01*
X25500000Y37700000D01*
X25500000Y38100000D01*
X25700000Y38300000D01*
X25700000Y38500000D01*
X25900000Y38700000D01*
X26100000Y38700000D01*
X26300000Y38900000D01*
X26300000Y39300000D01*
X26100000Y39500000D01*
X25900000Y39500000D01*
X25100000Y38700000D01*
X25100000Y38900000D01*
X24900000Y39100000D01*
X24700000Y39100000D01*
X24500000Y39300000D01*
X24300000Y39300000D01*
X24100000Y39500000D01*
X23700000Y39500000D01*
X23500000Y39300000D01*
X23300000Y39300000D01*
X23100000Y39100000D01*
X22900000Y39100000D01*
X22700000Y38900000D01*
X22700000Y38700000D01*
X22500000Y38500000D01*
X22500000Y38300000D01*
X22300000Y38100000D01*
X22300000Y37700000D01*
X22500000Y37500000D01*
X22500000Y37300000D01*
X22700000Y37100000D01*
X22700000Y36900000D01*
X22900000Y36700000D01*
X23100000Y36700000D01*
X23300000Y36500000D01*
X23500000Y36500000D01*
G37*
%LPD*%
%LPC*%
G36*
X18300000Y36500000D02*
X18500000Y36300000D01*
X18700000Y36300000D01*
X18900000Y36500000D01*
X19100000Y36500000D01*
X19500000Y36900000D01*
X19500000Y37100000D01*
X19700000Y37300000D01*
X19700000Y37500000D01*
X19500000Y37700000D01*
X19100000Y37700000D01*
X18900000Y37500000D01*
X18900000Y37300000D01*
X18700000Y37100000D01*
X18500000Y37100000D01*
X18300000Y36900000D01*
X18300000Y36500000D01*
G37*
%LPD*%
%LPC*%
G36*
X17300000Y36500000D02*
X17500000Y36300000D01*
X17700000Y36300000D01*
X17900000Y36500000D01*
X17900000Y36900000D01*
X17700000Y37100000D01*
X17500000Y37100000D01*
X17300000Y37300000D01*
X17300000Y37500000D01*
X17100000Y37700000D01*
X16700000Y37700000D01*
X16500000Y37500000D01*
X16500000Y37300000D01*
X16700000Y37100000D01*
X16700000Y36900000D01*
X17100000Y36500000D01*
X17300000Y36500000D01*
G37*
%LPD*%
%LPC*%
G36*
X12300000Y36500000D02*
X12500000Y36300000D01*
X13300000Y36300000D01*
X13500000Y36500000D01*
X13700000Y36500000D01*
X14300000Y37100000D01*
X14300000Y37300000D01*
X14500000Y37500000D01*
X14500000Y38300000D01*
X14300000Y38500000D01*
X14300000Y38700000D01*
X13700000Y39300000D01*
X13500000Y39300000D01*
X13300000Y39500000D01*
X12500000Y39500000D01*
X12300000Y39300000D01*
X12100000Y39300000D01*
X11500000Y38700000D01*
X11500000Y38500000D01*
X11300000Y38300000D01*
X11300000Y37500000D01*
X11500000Y37300000D01*
X11500000Y37100000D01*
X12100000Y36500000D01*
X12300000Y36500000D01*
G37*
%LPD*%
%LPC*%
G36*
X58500000Y30900000D02*
X58700000Y30700000D01*
X59100000Y30700000D01*
X59300000Y30900000D01*
X59300000Y31100000D01*
X59500000Y31300000D01*
X59700000Y31300000D01*
X59900000Y31500000D01*
X60300000Y31500000D01*
X60500000Y31300000D01*
X60700000Y31300000D01*
X60900000Y31100000D01*
X60900000Y30900000D01*
X61100000Y30700000D01*
X61500000Y30700000D01*
X61700000Y30900000D01*
X61700000Y31100000D01*
X61500000Y31300000D01*
X61500000Y31500000D01*
X61100000Y31900000D01*
X61500000Y32300000D01*
X61500000Y32500000D01*
X61700000Y32700000D01*
X61700000Y33500000D01*
X61500000Y33700000D01*
X61500000Y33900000D01*
X60900000Y34500000D01*
X60700000Y34500000D01*
X60500000Y34700000D01*
X59700000Y34700000D01*
X59500000Y34500000D01*
X59300000Y34500000D01*
X58700000Y33900000D01*
X58700000Y33700000D01*
X58500000Y33500000D01*
X58500000Y32700000D01*
X58700000Y32500000D01*
X58700000Y32300000D01*
X59100000Y31900000D01*
X58700000Y31500000D01*
X58700000Y31300000D01*
X58500000Y31100000D01*
X58500000Y30900000D01*
G37*
%LPD*%
%LPC*%
G36*
X20100000Y28500000D02*
X20300000Y28300000D01*
X21100000Y28300000D01*
X21300000Y28500000D01*
X21500000Y28500000D01*
X22100000Y29100000D01*
X22100000Y29300000D01*
X22300000Y29500000D01*
X22300000Y30300000D01*
X22100000Y30500000D01*
X22100000Y30700000D01*
X21500000Y31300000D01*
X21300000Y31300000D01*
X21100000Y31500000D01*
X20300000Y31500000D01*
X20100000Y31300000D01*
X19900000Y31300000D01*
X19300000Y30700000D01*
X19300000Y30500000D01*
X19100000Y30300000D01*
X19100000Y29500000D01*
X19300000Y29300000D01*
X19300000Y29100000D01*
X19900000Y28500000D01*
X20100000Y28500000D01*
G37*
%LPD*%
%LPC*%
G36*
X12300000Y28500000D02*
X12500000Y28300000D01*
X13300000Y28300000D01*
X13500000Y28500000D01*
X13700000Y28500000D01*
X14300000Y29100000D01*
X14300000Y29300000D01*
X14500000Y29500000D01*
X14500000Y30300000D01*
X14300000Y30500000D01*
X14300000Y30700000D01*
X13700000Y31300000D01*
X13500000Y31300000D01*
X13300000Y31500000D01*
X12500000Y31500000D01*
X12300000Y31300000D01*
X12100000Y31300000D01*
X11500000Y30700000D01*
X11500000Y30500000D01*
X11300000Y30300000D01*
X11300000Y29500000D01*
X11500000Y29300000D01*
X11500000Y29100000D01*
X12100000Y28500000D01*
X12300000Y28500000D01*
G37*
%LPD*%
%LPC*%
G36*
X59500000Y26500000D02*
X59700000Y26300000D01*
X60500000Y26300000D01*
X60700000Y26500000D01*
X60900000Y26500000D01*
X61500000Y27100000D01*
X61500000Y27300000D01*
X61700000Y27500000D01*
X61700000Y28300000D01*
X61500000Y28500000D01*
X61500000Y28700000D01*
X61100000Y29100000D01*
X61500000Y29500000D01*
X61500000Y29700000D01*
X61700000Y29900000D01*
X61700000Y30100000D01*
X61500000Y30300000D01*
X61100000Y30300000D01*
X60900000Y30100000D01*
X60900000Y29900000D01*
X60700000Y29700000D01*
X60500000Y29700000D01*
X60300000Y29500000D01*
X59900000Y29500000D01*
X59700000Y29700000D01*
X59500000Y29700000D01*
X59300000Y29900000D01*
X59300000Y30100000D01*
X59100000Y30300000D01*
X58700000Y30300000D01*
X58500000Y30100000D01*
X58500000Y29900000D01*
X58700000Y29700000D01*
X58700000Y29500000D01*
X59100000Y29100000D01*
X58700000Y28700000D01*
X58700000Y28500000D01*
X58500000Y28300000D01*
X58500000Y27500000D01*
X58700000Y27300000D01*
X58700000Y27100000D01*
X59300000Y26500000D01*
X59500000Y26500000D01*
G37*
%LPD*%
%LPC*%
G36*
X37900000Y24300000D02*
X38100000Y24100000D01*
X38300000Y24100000D01*
X38900000Y24700000D01*
X39100000Y24500000D01*
X39300000Y24500000D01*
X39500000Y24300000D01*
X39700000Y24300000D01*
X39900000Y24100000D01*
X40300000Y24100000D01*
X40500000Y24300000D01*
X40700000Y24300000D01*
X40900000Y24500000D01*
X41100000Y24500000D01*
X41300000Y24700000D01*
X41300000Y24900000D01*
X41500000Y24900000D01*
X41500000Y24700000D01*
X41700000Y24500000D01*
X41900000Y24500000D01*
X42100000Y24300000D01*
X42300000Y24300000D01*
X42500000Y24100000D01*
X42900000Y24100000D01*
X43100000Y24300000D01*
X43300000Y24300000D01*
X43500000Y24500000D01*
X43700000Y24500000D01*
X43900000Y24700000D01*
X43900000Y24900000D01*
X44100000Y24900000D01*
X44100000Y24700000D01*
X44300000Y24500000D01*
X44500000Y24500000D01*
X44700000Y24300000D01*
X44900000Y24300000D01*
X45100000Y24100000D01*
X45500000Y24100000D01*
X45700000Y24300000D01*
X45900000Y24300000D01*
X46100000Y24500000D01*
X46300000Y24500000D01*
X46500000Y24700000D01*
X46500000Y24900000D01*
X46700000Y25100000D01*
X46700000Y25300000D01*
X46900000Y25500000D01*
X46900000Y25900000D01*
X46700000Y26100000D01*
X46700000Y26300000D01*
X46500000Y26500000D01*
X46500000Y26700000D01*
X46300000Y26900000D01*
X46100000Y26900000D01*
X45900000Y27100000D01*
X45700000Y27100000D01*
X45500000Y27300000D01*
X45100000Y27300000D01*
X44900000Y27100000D01*
X44700000Y27100000D01*
X44500000Y26900000D01*
X44300000Y26900000D01*
X44100000Y26700000D01*
X44100000Y26500000D01*
X43900000Y26500000D01*
X43900000Y26700000D01*
X43700000Y26900000D01*
X43500000Y26900000D01*
X43300000Y27100000D01*
X43100000Y27100000D01*
X42900000Y27300000D01*
X42500000Y27300000D01*
X42300000Y27100000D01*
X42100000Y27100000D01*
X41900000Y26900000D01*
X41700000Y26900000D01*
X41500000Y26700000D01*
X41500000Y26500000D01*
X41300000Y26500000D01*
X41300000Y26700000D01*
X41100000Y26900000D01*
X40900000Y26900000D01*
X40700000Y27100000D01*
X40500000Y27100000D01*
X40300000Y27300000D01*
X39900000Y27300000D01*
X39700000Y27100000D01*
X39500000Y27100000D01*
X39300000Y26900000D01*
X39100000Y26900000D01*
X38900000Y26700000D01*
X38300000Y27300000D01*
X38100000Y27300000D01*
X37900000Y27100000D01*
X37900000Y26700000D01*
X38100000Y26500000D01*
X38300000Y26500000D01*
X38500000Y26300000D01*
X38500000Y25100000D01*
X38300000Y24900000D01*
X38100000Y24900000D01*
X37900000Y24700000D01*
X37900000Y24300000D01*
G37*
%LPD*%
%LPC*%
G36*
X29500000Y24300000D02*
X29700000Y24100000D01*
X30100000Y24100000D01*
X30300000Y24300000D01*
X30500000Y24300000D01*
X30700000Y24500000D01*
X30900000Y24500000D01*
X31100000Y24700000D01*
X31100000Y24900000D01*
X31300000Y24900000D01*
X31300000Y24700000D01*
X31500000Y24500000D01*
X31700000Y24500000D01*
X31900000Y24300000D01*
X32100000Y24300000D01*
X32300000Y24100000D01*
X32700000Y24100000D01*
X32900000Y24300000D01*
X33100000Y24300000D01*
X33300000Y24500000D01*
X33500000Y24500000D01*
X33700000Y24700000D01*
X33700000Y24900000D01*
X33900000Y24900000D01*
X33900000Y24700000D01*
X34100000Y24500000D01*
X34300000Y24500000D01*
X34500000Y24300000D01*
X34700000Y24300000D01*
X34900000Y24100000D01*
X35300000Y24100000D01*
X35500000Y24300000D01*
X35700000Y24300000D01*
X35900000Y24500000D01*
X36100000Y24500000D01*
X36300000Y24700000D01*
X36300000Y24900000D01*
X37100000Y24100000D01*
X37300000Y24100000D01*
X37500000Y24300000D01*
X37500000Y24700000D01*
X37300000Y24900000D01*
X37100000Y24900000D01*
X36900000Y25100000D01*
X36900000Y25300000D01*
X36700000Y25500000D01*
X36700000Y25900000D01*
X36900000Y26100000D01*
X36900000Y26300000D01*
X37100000Y26500000D01*
X37300000Y26500000D01*
X37500000Y26700000D01*
X37500000Y27100000D01*
X37300000Y27300000D01*
X37100000Y27300000D01*
X36300000Y26500000D01*
X36300000Y26700000D01*
X36100000Y26900000D01*
X35900000Y26900000D01*
X35700000Y27100000D01*
X35500000Y27100000D01*
X35300000Y27300000D01*
X34900000Y27300000D01*
X34700000Y27100000D01*
X34500000Y27100000D01*
X34300000Y26900000D01*
X34100000Y26900000D01*
X33900000Y26700000D01*
X33900000Y26500000D01*
X33700000Y26500000D01*
X33700000Y26700000D01*
X33500000Y26900000D01*
X33300000Y26900000D01*
X33100000Y27100000D01*
X32900000Y27100000D01*
X32700000Y27300000D01*
X32300000Y27300000D01*
X32100000Y27100000D01*
X31900000Y27100000D01*
X31700000Y26900000D01*
X31500000Y26900000D01*
X31300000Y26700000D01*
X31300000Y26500000D01*
X31100000Y26500000D01*
X31100000Y26700000D01*
X30900000Y26900000D01*
X30700000Y26900000D01*
X30500000Y27100000D01*
X30300000Y27100000D01*
X30100000Y27300000D01*
X29700000Y27300000D01*
X29500000Y27100000D01*
X29300000Y27100000D01*
X29100000Y26900000D01*
X28900000Y26900000D01*
X28700000Y26700000D01*
X28700000Y26500000D01*
X28500000Y26300000D01*
X28500000Y26100000D01*
X28300000Y25900000D01*
X28300000Y25500000D01*
X28500000Y25300000D01*
X28500000Y25100000D01*
X28700000Y24900000D01*
X28700000Y24700000D01*
X28900000Y24500000D01*
X29100000Y24500000D01*
X29300000Y24300000D01*
X29500000Y24300000D01*
G37*
%LPD*%
%LPC*%
G36*
X5700000Y22900000D02*
X5900000Y22700000D01*
X6300000Y22700000D01*
X6500000Y22900000D01*
X6500000Y23100000D01*
X6300000Y23300000D01*
X6300000Y23500000D01*
X5900000Y23900000D01*
X5700000Y23900000D01*
X5500000Y24100000D01*
X5300000Y24100000D01*
X5100000Y23900000D01*
X5100000Y23500000D01*
X5300000Y23300000D01*
X5500000Y23300000D01*
X5700000Y23100000D01*
X5700000Y22900000D01*
G37*
%LPD*%
%LPC*%
G36*
X3300000Y22900000D02*
X3500000Y22700000D01*
X3900000Y22700000D01*
X4100000Y22900000D01*
X4100000Y23100000D01*
X4300000Y23300000D01*
X4500000Y23300000D01*
X4700000Y23500000D01*
X4700000Y23900000D01*
X4500000Y24100000D01*
X4300000Y24100000D01*
X4100000Y23900000D01*
X3900000Y23900000D01*
X3500000Y23500000D01*
X3500000Y23300000D01*
X3300000Y23100000D01*
X3300000Y22900000D01*
G37*
%LPD*%
%LPC*%
G36*
X21500000Y22300000D02*
X21700000Y22100000D01*
X22100000Y22100000D01*
X22300000Y22300000D01*
X22300000Y22500000D01*
X22100000Y22700000D01*
X22100000Y22900000D01*
X21700000Y23300000D01*
X21500000Y23300000D01*
X21300000Y23500000D01*
X21100000Y23500000D01*
X20900000Y23300000D01*
X20900000Y22900000D01*
X21100000Y22700000D01*
X21300000Y22700000D01*
X21500000Y22500000D01*
X21500000Y22300000D01*
G37*
%LPD*%
%LPC*%
G36*
X19100000Y22300000D02*
X19300000Y22100000D01*
X19700000Y22100000D01*
X19900000Y22300000D01*
X19900000Y22500000D01*
X20100000Y22700000D01*
X20300000Y22700000D01*
X20500000Y22900000D01*
X20500000Y23300000D01*
X20300000Y23500000D01*
X20100000Y23500000D01*
X19900000Y23300000D01*
X19700000Y23300000D01*
X19300000Y22900000D01*
X19300000Y22700000D01*
X19100000Y22500000D01*
X19100000Y22300000D01*
G37*
%LPD*%
%LPC*%
G36*
X20900000Y20500000D02*
X21100000Y20300000D01*
X21300000Y20300000D01*
X21500000Y20500000D01*
X21700000Y20500000D01*
X22100000Y20900000D01*
X22100000Y21100000D01*
X22300000Y21300000D01*
X22300000Y21500000D01*
X22100000Y21700000D01*
X21700000Y21700000D01*
X21500000Y21500000D01*
X21500000Y21300000D01*
X21300000Y21100000D01*
X21100000Y21100000D01*
X20900000Y20900000D01*
X20900000Y20500000D01*
G37*
%LPD*%
%LPC*%
G36*
X19900000Y20500000D02*
X20100000Y20300000D01*
X20300000Y20300000D01*
X20500000Y20500000D01*
X20500000Y20900000D01*
X20300000Y21100000D01*
X20100000Y21100000D01*
X19900000Y21300000D01*
X19900000Y21500000D01*
X19700000Y21700000D01*
X19300000Y21700000D01*
X19100000Y21500000D01*
X19100000Y21300000D01*
X19300000Y21100000D01*
X19300000Y20900000D01*
X19700000Y20500000D01*
X19900000Y20500000D01*
G37*
%LPD*%
%LPC*%
G36*
X12300000Y20500000D02*
X12500000Y20300000D01*
X13300000Y20300000D01*
X13500000Y20500000D01*
X13700000Y20500000D01*
X14300000Y21100000D01*
X14300000Y21300000D01*
X14500000Y21500000D01*
X14500000Y22300000D01*
X14300000Y22500000D01*
X14300000Y22700000D01*
X13700000Y23300000D01*
X13500000Y23300000D01*
X13300000Y23500000D01*
X12500000Y23500000D01*
X12300000Y23300000D01*
X12100000Y23300000D01*
X11500000Y22700000D01*
X11500000Y22500000D01*
X11300000Y22300000D01*
X11300000Y21500000D01*
X11500000Y21300000D01*
X11500000Y21100000D01*
X12100000Y20500000D01*
X12300000Y20500000D01*
G37*
%LPD*%
%LPC*%
G36*
X58500000Y19900000D02*
X58700000Y19700000D01*
X59100000Y19700000D01*
X59300000Y19900000D01*
X59300000Y20100000D01*
X59500000Y20300000D01*
X59700000Y20300000D01*
X59900000Y20500000D01*
X60300000Y20500000D01*
X60500000Y20300000D01*
X60700000Y20300000D01*
X60900000Y20100000D01*
X60900000Y19900000D01*
X61100000Y19700000D01*
X61500000Y19700000D01*
X61700000Y19900000D01*
X61700000Y20100000D01*
X61500000Y20300000D01*
X61500000Y20500000D01*
X61100000Y20900000D01*
X61500000Y21300000D01*
X61500000Y21500000D01*
X61700000Y21700000D01*
X61700000Y22500000D01*
X61500000Y22700000D01*
X61500000Y22900000D01*
X60900000Y23500000D01*
X60700000Y23500000D01*
X60500000Y23700000D01*
X59700000Y23700000D01*
X59500000Y23500000D01*
X59300000Y23500000D01*
X58700000Y22900000D01*
X58700000Y22700000D01*
X58500000Y22500000D01*
X58500000Y21700000D01*
X58700000Y21500000D01*
X58700000Y21300000D01*
X59100000Y20900000D01*
X58700000Y20500000D01*
X58700000Y20300000D01*
X58500000Y20100000D01*
X58500000Y19900000D01*
G37*
%LPD*%
%LPC*%
G36*
X4300000Y18500000D02*
X4500000Y18300000D01*
X5300000Y18300000D01*
X5500000Y18500000D01*
X5700000Y18500000D01*
X6300000Y19100000D01*
X6300000Y19300000D01*
X6500000Y19500000D01*
X6500000Y20300000D01*
X6300000Y20500000D01*
X6300000Y20700000D01*
X5900000Y21100000D01*
X6300000Y21500000D01*
X6300000Y21700000D01*
X6500000Y21900000D01*
X6500000Y22100000D01*
X6300000Y22300000D01*
X5900000Y22300000D01*
X5700000Y22100000D01*
X5700000Y21900000D01*
X5500000Y21700000D01*
X5300000Y21700000D01*
X5100000Y21500000D01*
X4700000Y21500000D01*
X4500000Y21700000D01*
X4300000Y21700000D01*
X4100000Y21900000D01*
X4100000Y22100000D01*
X3900000Y22300000D01*
X3500000Y22300000D01*
X3300000Y22100000D01*
X3300000Y21900000D01*
X3500000Y21700000D01*
X3500000Y21500000D01*
X3900000Y21100000D01*
X3500000Y20700000D01*
X3500000Y20500000D01*
X3300000Y20300000D01*
X3300000Y19500000D01*
X3500000Y19300000D01*
X3500000Y19100000D01*
X4100000Y18500000D01*
X4300000Y18500000D01*
G37*
%LPD*%
%LPC*%
G36*
X29500000Y16500000D02*
X29700000Y16300000D01*
X30100000Y16300000D01*
X30300000Y16500000D01*
X30500000Y16500000D01*
X30700000Y16700000D01*
X30900000Y16700000D01*
X31100000Y16900000D01*
X31100000Y17100000D01*
X31300000Y17100000D01*
X31300000Y16900000D01*
X31500000Y16700000D01*
X31700000Y16700000D01*
X31900000Y16500000D01*
X32100000Y16500000D01*
X32300000Y16300000D01*
X32700000Y16300000D01*
X32900000Y16500000D01*
X33100000Y16500000D01*
X33300000Y16700000D01*
X33500000Y16700000D01*
X33700000Y16900000D01*
X33700000Y17100000D01*
X33900000Y17100000D01*
X33900000Y16900000D01*
X34100000Y16700000D01*
X34300000Y16700000D01*
X34500000Y16500000D01*
X34700000Y16500000D01*
X34900000Y16300000D01*
X35300000Y16300000D01*
X35500000Y16500000D01*
X35700000Y16500000D01*
X35900000Y16700000D01*
X36100000Y16700000D01*
X36300000Y16900000D01*
X36300000Y17100000D01*
X36500000Y17100000D01*
X36500000Y16900000D01*
X36700000Y16700000D01*
X36900000Y16700000D01*
X37100000Y16500000D01*
X37300000Y16500000D01*
X37500000Y16300000D01*
X37900000Y16300000D01*
X38100000Y16500000D01*
X38300000Y16500000D01*
X38500000Y16700000D01*
X38700000Y16700000D01*
X38900000Y16900000D01*
X38900000Y17100000D01*
X38900000Y16900000D01*
X39100000Y16700000D01*
X39300000Y16700000D01*
X39500000Y16500000D01*
X39700000Y16500000D01*
X39900000Y16300000D01*
X40300000Y16300000D01*
X40500000Y16500000D01*
X40700000Y16500000D01*
X40900000Y16700000D01*
X41100000Y16700000D01*
X41300000Y16900000D01*
X41300000Y17100000D01*
X41500000Y17100000D01*
X41500000Y16900000D01*
X41700000Y16700000D01*
X41900000Y16700000D01*
X42100000Y16500000D01*
X42300000Y16500000D01*
X42500000Y16300000D01*
X42900000Y16300000D01*
X43100000Y16500000D01*
X43300000Y16500000D01*
X43500000Y16700000D01*
X43700000Y16700000D01*
X43900000Y16900000D01*
X43900000Y17100000D01*
X44100000Y17100000D01*
X44100000Y16900000D01*
X44300000Y16700000D01*
X44500000Y16700000D01*
X44700000Y16500000D01*
X44900000Y16500000D01*
X45100000Y16300000D01*
X45500000Y16300000D01*
X45700000Y16500000D01*
X45900000Y16500000D01*
X46100000Y16700000D01*
X46300000Y16700000D01*
X46500000Y16900000D01*
X46500000Y17100000D01*
X46700000Y17300000D01*
X46700000Y17500000D01*
X46900000Y17700000D01*
X46900000Y18100000D01*
X46700000Y18300000D01*
X46700000Y18500000D01*
X46500000Y18700000D01*
X46500000Y18900000D01*
X46300000Y19100000D01*
X46100000Y19100000D01*
X45900000Y19300000D01*
X45700000Y19300000D01*
X45500000Y19500000D01*
X45100000Y19500000D01*
X44900000Y19300000D01*
X44700000Y19300000D01*
X44500000Y19100000D01*
X44300000Y19100000D01*
X44100000Y18900000D01*
X44100000Y18700000D01*
X43900000Y18700000D01*
X43900000Y18900000D01*
X43700000Y19100000D01*
X43500000Y19100000D01*
X43300000Y19300000D01*
X43100000Y19300000D01*
X42900000Y19500000D01*
X42500000Y19500000D01*
X42300000Y19300000D01*
X42100000Y19300000D01*
X41900000Y19100000D01*
X41700000Y19100000D01*
X41500000Y18900000D01*
X41500000Y18700000D01*
X41300000Y18700000D01*
X41300000Y18900000D01*
X41100000Y19100000D01*
X40900000Y19100000D01*
X40700000Y19300000D01*
X40500000Y19300000D01*
X40300000Y19500000D01*
X39900000Y19500000D01*
X39700000Y19300000D01*
X39500000Y19300000D01*
X39300000Y19100000D01*
X39100000Y19100000D01*
X38900000Y18900000D01*
X38900000Y18700000D01*
X38900000Y18900000D01*
X38700000Y19100000D01*
X38500000Y19100000D01*
X38300000Y19300000D01*
X38100000Y19300000D01*
X37900000Y19500000D01*
X37500000Y19500000D01*
X37300000Y19300000D01*
X37100000Y19300000D01*
X36900000Y19100000D01*
X36700000Y19100000D01*
X36500000Y18900000D01*
X36500000Y18700000D01*
X36300000Y18700000D01*
X36300000Y18900000D01*
X36100000Y19100000D01*
X35900000Y19100000D01*
X35700000Y19300000D01*
X35500000Y19300000D01*
X35300000Y19500000D01*
X34900000Y19500000D01*
X34700000Y19300000D01*
X34500000Y19300000D01*
X34300000Y19100000D01*
X34100000Y19100000D01*
X33900000Y18900000D01*
X33900000Y18700000D01*
X33700000Y18700000D01*
X33700000Y18900000D01*
X33500000Y19100000D01*
X33300000Y19100000D01*
X33100000Y19300000D01*
X32900000Y19300000D01*
X32700000Y19500000D01*
X32300000Y19500000D01*
X32100000Y19300000D01*
X31900000Y19300000D01*
X31700000Y19100000D01*
X31500000Y19100000D01*
X31300000Y18900000D01*
X31300000Y18700000D01*
X31100000Y18700000D01*
X31100000Y18900000D01*
X30900000Y19100000D01*
X30700000Y19100000D01*
X30500000Y19300000D01*
X30300000Y19300000D01*
X30100000Y19500000D01*
X29700000Y19500000D01*
X29500000Y19300000D01*
X29300000Y19300000D01*
X29100000Y19100000D01*
X28900000Y19100000D01*
X28700000Y18900000D01*
X28700000Y18700000D01*
X28500000Y18500000D01*
X28500000Y18300000D01*
X28300000Y18100000D01*
X28300000Y17700000D01*
X28500000Y17500000D01*
X28500000Y17300000D01*
X28700000Y17100000D01*
X28700000Y16900000D01*
X28900000Y16700000D01*
X29100000Y16700000D01*
X29300000Y16500000D01*
X29500000Y16500000D01*
G37*
%LPD*%
%LPC*%
G36*
X59500000Y15500000D02*
X59700000Y15300000D01*
X60500000Y15300000D01*
X60700000Y15500000D01*
X60900000Y15500000D01*
X61500000Y16100000D01*
X61500000Y16300000D01*
X61700000Y16500000D01*
X61700000Y17300000D01*
X61500000Y17500000D01*
X61500000Y17700000D01*
X61100000Y18100000D01*
X61500000Y18500000D01*
X61500000Y18700000D01*
X61700000Y18900000D01*
X61700000Y19100000D01*
X61500000Y19300000D01*
X61100000Y19300000D01*
X60900000Y19100000D01*
X60900000Y18900000D01*
X60700000Y18700000D01*
X60500000Y18700000D01*
X60300000Y18500000D01*
X59900000Y18500000D01*
X59700000Y18700000D01*
X59500000Y18700000D01*
X59300000Y18900000D01*
X59300000Y19100000D01*
X59100000Y19300000D01*
X58700000Y19300000D01*
X58500000Y19100000D01*
X58500000Y18900000D01*
X58700000Y18700000D01*
X58700000Y18500000D01*
X59100000Y18100000D01*
X58700000Y17700000D01*
X58700000Y17500000D01*
X58500000Y17300000D01*
X58500000Y16500000D01*
X58700000Y16300000D01*
X58700000Y16100000D01*
X59300000Y15500000D01*
X59500000Y15500000D01*
G37*
%LPD*%
%LPC*%
G36*
X44300000Y10300000D02*
X44500000Y10100000D01*
X44900000Y10100000D01*
X45100000Y10300000D01*
X45100000Y10500000D01*
X44100000Y11500000D01*
X43900000Y11500000D01*
X43700000Y11300000D01*
X43700000Y10900000D01*
X43900000Y10700000D01*
X44100000Y10700000D01*
X44300000Y10500000D01*
X44300000Y10300000D01*
G37*
%LPD*%
%LPC*%
G36*
X35900000Y10300000D02*
X36100000Y10100000D01*
X36500000Y10100000D01*
X36700000Y10300000D01*
X36700000Y10500000D01*
X36500000Y10700000D01*
X36500000Y10900000D01*
X36100000Y11300000D01*
X35900000Y11300000D01*
X35700000Y11500000D01*
X35500000Y11500000D01*
X35300000Y11300000D01*
X35300000Y10900000D01*
X35500000Y10700000D01*
X35700000Y10700000D01*
X35900000Y10500000D01*
X35900000Y10300000D01*
G37*
%LPD*%
%LPC*%
G36*
X33500000Y10300000D02*
X33700000Y10100000D01*
X34100000Y10100000D01*
X34300000Y10300000D01*
X34300000Y10500000D01*
X34500000Y10700000D01*
X34700000Y10700000D01*
X34900000Y10900000D01*
X34900000Y11300000D01*
X34700000Y11500000D01*
X34500000Y11500000D01*
X34300000Y11300000D01*
X34100000Y11300000D01*
X33700000Y10900000D01*
X33700000Y10700000D01*
X33500000Y10500000D01*
X33500000Y10300000D01*
G37*
%LPD*%
%LPC*%
G36*
X58500000Y8900000D02*
X58700000Y8700000D01*
X59100000Y8700000D01*
X59300000Y8900000D01*
X59300000Y9100000D01*
X59500000Y9300000D01*
X59700000Y9300000D01*
X59900000Y9500000D01*
X60300000Y9500000D01*
X60500000Y9300000D01*
X60700000Y9300000D01*
X60900000Y9100000D01*
X60900000Y8900000D01*
X61100000Y8700000D01*
X61500000Y8700000D01*
X61700000Y8900000D01*
X61700000Y9100000D01*
X61500000Y9300000D01*
X61500000Y9500000D01*
X61100000Y9900000D01*
X61500000Y10300000D01*
X61500000Y10500000D01*
X61700000Y10700000D01*
X61700000Y11500000D01*
X61500000Y11700000D01*
X61500000Y11900000D01*
X60900000Y12500000D01*
X60700000Y12500000D01*
X60500000Y12700000D01*
X59700000Y12700000D01*
X59500000Y12500000D01*
X59300000Y12500000D01*
X58700000Y11900000D01*
X58700000Y11700000D01*
X58500000Y11500000D01*
X58500000Y10700000D01*
X58700000Y10500000D01*
X58700000Y10300000D01*
X59100000Y9900000D01*
X58700000Y9500000D01*
X58700000Y9300000D01*
X58500000Y9100000D01*
X58500000Y8900000D01*
G37*
%LPD*%
%LPC*%
G36*
X43700000Y8500000D02*
X43900000Y8300000D01*
X44100000Y8300000D01*
X45100000Y9300000D01*
X45100000Y9500000D01*
X44900000Y9700000D01*
X44500000Y9700000D01*
X44300000Y9500000D01*
X44300000Y9300000D01*
X44100000Y9100000D01*
X43900000Y9100000D01*
X43700000Y8900000D01*
X43700000Y8500000D01*
G37*
%LPD*%
%LPC*%
G36*
X40500000Y8500000D02*
X40700000Y8300000D01*
X41100000Y8300000D01*
X41300000Y8500000D01*
X41500000Y8500000D01*
X41700000Y8700000D01*
X41900000Y8700000D01*
X42100000Y8900000D01*
X42100000Y9100000D01*
X42900000Y8300000D01*
X43100000Y8300000D01*
X43300000Y8500000D01*
X43300000Y8900000D01*
X43100000Y9100000D01*
X42900000Y9100000D01*
X42700000Y9300000D01*
X42700000Y9500000D01*
X42500000Y9700000D01*
X42500000Y10100000D01*
X42700000Y10300000D01*
X42700000Y10500000D01*
X42900000Y10700000D01*
X43100000Y10700000D01*
X43300000Y10900000D01*
X43300000Y11300000D01*
X43100000Y11500000D01*
X42900000Y11500000D01*
X42100000Y10700000D01*
X42100000Y10900000D01*
X41900000Y11100000D01*
X41700000Y11100000D01*
X41500000Y11300000D01*
X41300000Y11300000D01*
X41100000Y11500000D01*
X40700000Y11500000D01*
X40500000Y11300000D01*
X40300000Y11300000D01*
X40100000Y11100000D01*
X39900000Y11100000D01*
X39700000Y10900000D01*
X39700000Y10700000D01*
X39500000Y10500000D01*
X39500000Y10300000D01*
X39300000Y10100000D01*
X39300000Y9700000D01*
X39500000Y9500000D01*
X39500000Y9300000D01*
X39700000Y9100000D01*
X39700000Y8900000D01*
X39900000Y8700000D01*
X40100000Y8700000D01*
X40300000Y8500000D01*
X40500000Y8500000D01*
G37*
%LPD*%
%LPC*%
G36*
X35300000Y8500000D02*
X35500000Y8300000D01*
X35700000Y8300000D01*
X35900000Y8500000D01*
X36100000Y8500000D01*
X36500000Y8900000D01*
X36500000Y9100000D01*
X36700000Y9300000D01*
X36700000Y9500000D01*
X36500000Y9700000D01*
X36100000Y9700000D01*
X35900000Y9500000D01*
X35900000Y9300000D01*
X35700000Y9100000D01*
X35500000Y9100000D01*
X35300000Y8900000D01*
X35300000Y8500000D01*
G37*
%LPD*%
%LPC*%
G36*
X34300000Y8500000D02*
X34500000Y8300000D01*
X34700000Y8300000D01*
X34900000Y8500000D01*
X34900000Y8900000D01*
X34700000Y9100000D01*
X34500000Y9100000D01*
X34300000Y9300000D01*
X34300000Y9500000D01*
X34100000Y9700000D01*
X33700000Y9700000D01*
X33500000Y9500000D01*
X33500000Y9300000D01*
X33700000Y9100000D01*
X33700000Y8900000D01*
X34100000Y8500000D01*
X34300000Y8500000D01*
G37*
%LPD*%
%LPC*%
G36*
X29300000Y8500000D02*
X29500000Y8300000D01*
X30300000Y8300000D01*
X30500000Y8500000D01*
X30700000Y8500000D01*
X31300000Y9100000D01*
X31300000Y9300000D01*
X31500000Y9500000D01*
X31500000Y10300000D01*
X31300000Y10500000D01*
X31300000Y10700000D01*
X30700000Y11300000D01*
X30500000Y11300000D01*
X30300000Y11500000D01*
X29500000Y11500000D01*
X29300000Y11300000D01*
X29100000Y11300000D01*
X28500000Y10700000D01*
X28500000Y10500000D01*
X28300000Y10300000D01*
X28300000Y9500000D01*
X28500000Y9300000D01*
X28500000Y9100000D01*
X29100000Y8500000D01*
X29300000Y8500000D01*
G37*
%LPD*%
D10*
X37620000Y18000000D03*
D11*
X13000000Y30000000D03*
D11*
X13000000Y38000000D03*
D10*
X24000000Y38000000D03*
D11*
X5000000Y20000000D03*
D11*
X60000000Y6000000D03*
D11*
X60000000Y17000000D03*
D11*
X60000000Y28000000D03*
D11*
X60000000Y39000000D03*
D10*
X37620000Y25620000D03*
D11*
X20620000Y22000000D03*
D11*
X18080000Y38000000D03*
D10*
X26540000Y38000000D03*
D11*
X35080000Y10000000D03*
D10*
X43540000Y10000000D03*
D11*
X5000000Y22540000D03*
D11*
X60000000Y8540000D03*
D11*
X60000000Y19540000D03*
D11*
X60000000Y30540000D03*
D11*
X60000000Y41540000D03*
D11*
X20620000Y30000000D03*
D11*
X13000000Y22000000D03*
D10*
X35080000Y18000000D03*
D10*
X30000000Y18000000D03*
D10*
X32540000Y18000000D03*
D11*
X30000000Y10000000D03*
D10*
X41000000Y10000000D03*
D10*
X40160000Y18000000D03*
D10*
X42700000Y18000000D03*
D10*
X45240000Y18000000D03*
D10*
X40160000Y25620000D03*
D10*
X42700000Y25620000D03*
D10*
X45240000Y25620000D03*
D10*
X35080000Y25620000D03*
D10*
X32540000Y25620000D03*
D10*
X30000000Y25620000D03*
D11*
X60000000Y11080000D03*
D11*
X60000000Y22080000D03*
D11*
X60000000Y33080000D03*
D11*
X60000000Y44080000D03*
M02*
