%FSLAX46Y46*%
%MOMM*%
%TF.FileFunction,Copper,L1,Top*%
%TF.Part,Single*%
%LPD*%
%ADD10C,0.4000*%
%ADD11C,0.8000*%
%ADD12C,1.7000*%
%ADD13C,1.8000*%
D10*
X12900000Y21900000D02*
X18900000Y21900000D01*
X18900000Y22500000D01*
X19100000Y22500000D01*
X19100000Y22900000D01*
X19300000Y22900000D01*
X19300000Y23100000D01*
X19500000Y23100000D01*
X19500000Y23300000D01*
X19700000Y23300000D01*
X19700000Y23500000D01*
X20100000Y23500000D01*
X20100000Y23700000D01*
X20300000Y23700000D01*
X20300000Y29100000D01*
D10*
X35100000Y17900000D02*
X34300000Y17900000D01*
X34300000Y18300000D01*
X34100000Y18300000D01*
X34100000Y18700000D01*
X33900000Y18700000D01*
X33900000Y19100000D01*
X33700000Y19100000D01*
X33700000Y19300000D01*
X33300000Y19300000D01*
X33300000Y19500000D01*
X32900000Y19500000D01*
X32900000Y19700000D01*
X18900000Y19700000D01*
X18900000Y21700000D01*
D11*
X32500000Y17900000D02*
X30700000Y17900000D01*
D11*
X29900000Y9900000D02*
X29900000Y17100000D01*
D11*
X40900000Y9900000D02*
X40700000Y9900000D01*
X40700000Y17300000D01*
D11*
X40100000Y17900000D02*
X41900000Y17900000D01*
D11*
X42700000Y17900000D02*
X44500000Y17900000D01*
D11*
X45300000Y17900000D02*
X45300000Y24900000D01*
D11*
X40100000Y25700000D02*
X41900000Y25700000D01*
D11*
X42700000Y25700000D02*
X44500000Y25700000D01*
D11*
X45300000Y25700000D02*
X39700000Y25700000D01*
X39700000Y25300000D01*
X39500000Y25300000D01*
X39500000Y24700000D01*
X39300000Y24700000D01*
X39300000Y24300000D01*
X39100000Y24300000D01*
X39100000Y24100000D01*
X38700000Y24100000D01*
X38700000Y23900000D01*
X38100000Y23900000D01*
X38100000Y23700000D01*
X35700000Y23700000D01*
X35700000Y25100000D01*
D11*
X35100000Y25700000D02*
X33300000Y25700000D01*
D11*
X32500000Y25700000D02*
X30700000Y25700000D01*
D11*
X29900000Y25700000D02*
X35700000Y25700000D01*
X35700000Y25300000D01*
X35900000Y25300000D01*
X35900000Y24700000D01*
X36100000Y24700000D01*
X36100000Y24300000D01*
X36300000Y24300000D01*
X36300000Y24100000D01*
X36700000Y24100000D01*
X36700000Y23900000D01*
X37300000Y23900000D01*
X37300000Y23700000D01*
X39700000Y23700000D01*
X39700000Y17500000D01*
X39500000Y17500000D01*
X39500000Y16900000D01*
X39300000Y16900000D01*
X39300000Y16500000D01*
X39100000Y16500000D01*
X39100000Y16300000D01*
X38700000Y16300000D01*
X38700000Y16100000D01*
X38100000Y16100000D01*
X38100000Y15900000D01*
X33100000Y15900000D01*
X33100000Y17300000D01*
D11*
X60100000Y11100000D02*
X58100000Y11100000D01*
X58100000Y20100000D01*
X58300000Y20100000D01*
X58300000Y20700000D01*
X58500000Y20700000D01*
X58500000Y20900000D01*
X58700000Y20900000D01*
X58700000Y21100000D01*
X58900000Y21100000D01*
X58900000Y21300000D01*
X59700000Y21300000D01*
D11*
X60100000Y22100000D02*
X58100000Y22100000D01*
X58100000Y31100000D01*
X58300000Y31100000D01*
X58300000Y31700000D01*
X58500000Y31700000D01*
X58500000Y31900000D01*
X58700000Y31900000D01*
X58700000Y32100000D01*
X58900000Y32100000D01*
X58900000Y32300000D01*
X59700000Y32300000D01*
D11*
X60100000Y33100000D02*
X58100000Y33100000D01*
X58100000Y42100000D01*
X58300000Y42100000D01*
X58300000Y42700000D01*
X58500000Y42700000D01*
X58500000Y42900000D01*
X58700000Y42900000D01*
X58700000Y43100000D01*
X58900000Y43100000D01*
X58900000Y43300000D01*
X59700000Y43300000D01*
D11*
X60100000Y44100000D02*
X45900000Y44100000D01*
X45900000Y26300000D01*
D11*
X12900000Y29900000D02*
X12900000Y37100000D01*
D11*
X12900000Y37900000D02*
X16100000Y37900000D01*
X16100000Y37300000D01*
X16300000Y37300000D01*
X16300000Y36700000D01*
X16500000Y36700000D01*
X16500000Y36500000D01*
X16700000Y36500000D01*
X16700000Y36300000D01*
X16900000Y36300000D01*
X16900000Y36100000D01*
X17500000Y36100000D01*
X17500000Y35900000D01*
X23300000Y35900000D01*
X23300000Y37300000D01*
D11*
X23900000Y37900000D02*
X24500000Y37900000D01*
X24500000Y37500000D01*
X24700000Y37500000D01*
X24700000Y36900000D01*
X24900000Y36900000D01*
X24900000Y36500000D01*
X25100000Y36500000D01*
X25100000Y36300000D01*
X25500000Y36300000D01*
X25500000Y36100000D01*
X26100000Y36100000D01*
X26100000Y35900000D01*
X27900000Y35900000D01*
X27900000Y25300000D01*
X28100000Y25300000D01*
X28100000Y24700000D01*
X28300000Y24700000D01*
X28300000Y24300000D01*
X28500000Y24300000D01*
X28500000Y24100000D01*
X28900000Y24100000D01*
X28900000Y23900000D01*
X29500000Y23900000D01*
X29500000Y23700000D01*
X34100000Y23700000D01*
X34100000Y23500000D01*
X34300000Y23500000D01*
X34300000Y22900000D01*
X34500000Y22900000D01*
X34500000Y22700000D01*
X34700000Y22700000D01*
X34700000Y22500000D01*
X34900000Y22500000D01*
X34900000Y22300000D01*
X35500000Y22300000D01*
X35500000Y22100000D01*
X37100000Y22100000D01*
X37100000Y18500000D01*
D11*
X4900000Y19900000D02*
X10900000Y19900000D01*
X10900000Y22500000D01*
X11100000Y22500000D01*
X11100000Y23100000D01*
X11300000Y23100000D01*
X11300000Y23300000D01*
X11500000Y23300000D01*
X11500000Y23500000D01*
X11700000Y23500000D01*
X11700000Y23700000D01*
X12300000Y23700000D01*
X12300000Y23900000D01*
X12500000Y23900000D01*
X12500000Y29100000D01*
D11*
X60100000Y5900000D02*
X61100000Y5900000D01*
X61100000Y6100000D01*
X61500000Y6100000D01*
X61500000Y6300000D01*
X62100000Y6300000D01*
X62100000Y11700000D01*
X61900000Y11700000D01*
X61900000Y12300000D01*
X61700000Y12300000D01*
X61700000Y12500000D01*
X61500000Y12500000D01*
X61500000Y12700000D01*
X61300000Y12700000D01*
X61300000Y12900000D01*
X60700000Y12900000D01*
X60700000Y13100000D01*
X60500000Y13100000D01*
X60500000Y16100000D01*
D11*
X60100000Y16900000D02*
X62100000Y16900000D01*
X62100000Y22700000D01*
X61900000Y22700000D01*
X61900000Y23300000D01*
X61700000Y23300000D01*
X61700000Y23500000D01*
X61500000Y23500000D01*
X61500000Y23700000D01*
X61300000Y23700000D01*
X61300000Y23900000D01*
X60700000Y23900000D01*
X60700000Y24100000D01*
X60500000Y24100000D01*
X60500000Y27100000D01*
D11*
X60100000Y27900000D02*
X62100000Y27900000D01*
X62100000Y33700000D01*
X61900000Y33700000D01*
X61900000Y34300000D01*
X61700000Y34300000D01*
X61700000Y34500000D01*
X61500000Y34500000D01*
X61500000Y34700000D01*
X61300000Y34700000D01*
X61300000Y34900000D01*
X60700000Y34900000D01*
X60700000Y35100000D01*
X60500000Y35100000D01*
X60500000Y38100000D01*
D11*
X60100000Y38900000D02*
X62100000Y38900000D01*
X62100000Y7900000D01*
X61900000Y7900000D01*
X61900000Y7300000D01*
X61700000Y7300000D01*
X61700000Y7100000D01*
X61500000Y7100000D01*
X61500000Y6900000D01*
X61300000Y6900000D01*
X61300000Y6700000D01*
X60700000Y6700000D01*
X60700000Y6500000D01*
X10900000Y6500000D01*
X10900000Y19500000D01*
D12*
X37620000Y18000000D03*
D13*
X13000000Y30000000D03*
D13*
X13000000Y38000000D03*
D12*
X24000000Y38000000D03*
D13*
X5000000Y20000000D03*
D13*
X60000000Y6000000D03*
D13*
X60000000Y17000000D03*
D13*
X60000000Y28000000D03*
D13*
X60000000Y39000000D03*
D12*
X37620000Y25620000D03*
D13*
X20620000Y22000000D03*
D13*
X18080000Y38000000D03*
D12*
X26540000Y38000000D03*
D13*
X35080000Y10000000D03*
D12*
X43540000Y10000000D03*
D13*
X5000000Y22540000D03*
D13*
X60000000Y8540000D03*
D13*
X60000000Y19540000D03*
D13*
X60000000Y30540000D03*
D13*
X60000000Y41540000D03*
D13*
X20620000Y30000000D03*
D13*
X13000000Y22000000D03*
D12*
X35080000Y18000000D03*
D12*
X30000000Y18000000D03*
D12*
X32540000Y18000000D03*
D13*
X30000000Y10000000D03*
D12*
X41000000Y10000000D03*
D12*
X40160000Y18000000D03*
D12*
X42700000Y18000000D03*
D12*
X45240000Y18000000D03*
D12*
X40160000Y25620000D03*
D12*
X42700000Y25620000D03*
D12*
X45240000Y25620000D03*
D12*
X35080000Y25620000D03*
D12*
X32540000Y25620000D03*
D12*
X30000000Y25620000D03*
D13*
X60000000Y11080000D03*
D13*
X60000000Y22080000D03*
D13*
X60000000Y33080000D03*
D13*
X60000000Y44080000D03*
M02*
