%FSLAX46Y46*%
%MOMM*%
%TF.FileFunction,Legend,Top*%
%TF.Part,Single*%
%LPD*%
%ADD10C,0.2000*%
%ADD11C,0.1500*%
%ADD12C,0.3000*%
D10*
X-350000Y4600000D02*
X3550000Y4600000D01*
D10*
X1600000Y2650000D02*
X1600000Y6550000D01*
D10*
X59450000Y4600000D02*
X63350000Y4600000D01*
D10*
X61400000Y2650000D02*
X61400000Y6550000D01*
D10*
X-350000Y35940000D02*
X3550000Y35940000D01*
D10*
X1600000Y33990000D02*
X1600000Y37890000D01*
D10*
X59450000Y35940000D02*
X63350000Y35940000D01*
D10*
X61400000Y33990000D02*
X61400000Y37890000D01*
D11*
X15600000Y13600000D02*
X33640000Y13600000D01*
X33640000Y24020000D01*
X15600000Y24020000D01*
X15600000Y13600000D01*
D11*
X38400000Y7600000D02*
X49220000Y7600000D01*
X49220000Y10400000D01*
X38400000Y10400000D01*
X38400000Y7600000D01*
D11*
X38400000Y15600000D02*
X49220000Y15600000D01*
X49220000Y18400000D01*
X38400000Y18400000D01*
X38400000Y15600000D01*
D11*
X38400000Y23600000D02*
X49220000Y23600000D01*
X49220000Y26400000D01*
X38400000Y26400000D01*
X38400000Y23600000D01*
D11*
X15400000Y28600000D02*
X23680000Y28600000D01*
X23680000Y31400000D01*
X15400000Y31400000D01*
X15400000Y28600000D01*
D11*
X26400000Y28600000D02*
X32140000Y28600000D01*
X32140000Y31400000D01*
X26400000Y31400000D01*
X26400000Y28600000D01*
D11*
X3600000Y7600000D02*
X6400000Y7600000D01*
X6400000Y18020000D01*
X3600000Y18020000D01*
X3600000Y7600000D01*
D11*
X3600000Y28600000D02*
X6400000Y28600000D01*
X6400000Y33940000D01*
X3600000Y33940000D01*
X3600000Y28600000D01*
D11*
X56600000Y6600000D02*
X59400000Y6600000D01*
X59400000Y11940000D01*
X56600000Y11940000D01*
X56600000Y6600000D01*
D11*
X56600000Y14600000D02*
X59400000Y14600000D01*
X59400000Y19940000D01*
X56600000Y19940000D01*
X56600000Y14600000D01*
D11*
X56600000Y22600000D02*
X59400000Y22600000D01*
X59400000Y27940000D01*
X56600000Y27940000D01*
X56600000Y22600000D01*
D12*
X15400000Y15000000D02*
X15800000Y15000000D01*
D12*
X38400000Y9000000D02*
X38800000Y9000000D01*
D12*
X38400000Y17000000D02*
X38800000Y17000000D01*
D12*
X38400000Y25000000D02*
X38800000Y25000000D01*
D12*
X15400000Y30000000D02*
X15800000Y30000000D01*
D12*
X26400000Y30000000D02*
X26800000Y30000000D01*
D12*
X3400000Y9000000D02*
X3800000Y9000000D01*
D12*
X3400000Y30000000D02*
X3800000Y30000000D01*
D12*
X56400000Y8000000D02*
X56800000Y8000000D01*
D12*
X56400000Y16000000D02*
X56800000Y16000000D01*
D12*
X56400000Y24000000D02*
X56800000Y24000000D01*
M02*
