%FSLAX46Y46*%
%MOMM*%
%TF.FileFunction,Copper,L1,Top*%
%TF.Part,Single*%
%LPD*%
%ADD10C,0.4000*%
%ADD11C,0.8000*%
%ADD12C,1.7000*%
%ADD13C,1.8000*%
D10*
X58100000Y23900000D02*
X48100000Y23900000D01*
X48100000Y24100000D01*
D10*
X58100000Y15900000D02*
X48100000Y15900000D01*
X48100000Y16300000D01*
D10*
X19500000Y22700000D02*
X18700000Y22700000D01*
X18700000Y22300000D01*
X18500000Y22300000D01*
X18500000Y21900000D01*
X18300000Y21900000D01*
X18300000Y21500000D01*
X18100000Y21500000D01*
X18100000Y21300000D01*
X17700000Y21300000D01*
X17700000Y21100000D01*
X17300000Y21100000D01*
X17300000Y20900000D01*
X6700000Y20900000D01*
X6700000Y16100000D01*
X6500000Y16100000D01*
X6500000Y15700000D01*
X6300000Y15700000D01*
X6300000Y15500000D01*
X6100000Y15500000D01*
X6100000Y15300000D01*
X5900000Y15300000D01*
X5900000Y15100000D01*
X5700000Y15100000D01*
X5700000Y14500000D01*
D10*
X58100000Y7900000D02*
X48100000Y7900000D01*
X48100000Y8300000D01*
D10*
X39900000Y9100000D02*
X25300000Y9100000D01*
X25300000Y14500000D01*
D10*
X22100000Y15100000D02*
X20300000Y15100000D01*
D10*
X16900000Y15100000D02*
X7300000Y15100000D01*
X7300000Y14900000D01*
X7100000Y14900000D01*
X7100000Y14700000D01*
X6900000Y14700000D01*
X6900000Y14300000D01*
X6700000Y14300000D01*
X6700000Y13500000D01*
X6500000Y13500000D01*
X6500000Y13100000D01*
X6300000Y13100000D01*
X6300000Y12900000D01*
X6100000Y12900000D01*
X6100000Y12700000D01*
X5900000Y12700000D01*
X5900000Y12500000D01*
X5700000Y12500000D01*
X5700000Y11900000D01*
D10*
X27100000Y15100000D02*
X27900000Y15100000D01*
X27900000Y15500000D01*
X28100000Y15500000D01*
X28100000Y15900000D01*
X28300000Y15900000D01*
X28300000Y16300000D01*
X28500000Y16300000D01*
X28500000Y16500000D01*
X28900000Y16500000D01*
X28900000Y16700000D01*
X29300000Y16700000D01*
X29300000Y16900000D01*
X34100000Y16900000D01*
X34100000Y23100000D01*
X33900000Y23100000D01*
X33900000Y23500000D01*
X33700000Y23500000D01*
X33700000Y23900000D01*
X33500000Y23900000D01*
X33500000Y24100000D01*
X33100000Y24100000D01*
X33100000Y24300000D01*
X32700000Y24300000D01*
X32700000Y24500000D01*
X5500000Y24500000D01*
X5500000Y17300000D01*
D10*
X24700000Y22700000D02*
X22900000Y22700000D01*
D11*
X16900000Y29900000D02*
X5700000Y29900000D01*
D11*
X27900000Y29900000D02*
X24100000Y29900000D01*
X24100000Y29300000D01*
X23900000Y29300000D01*
X23900000Y28700000D01*
X23700000Y28700000D01*
X23700000Y28500000D01*
X23500000Y28500000D01*
X23500000Y28300000D01*
X23300000Y28300000D01*
X23300000Y28100000D01*
X22700000Y28100000D01*
X22700000Y27900000D01*
X17300000Y27900000D01*
X17300000Y29100000D01*
D11*
X22100000Y29900000D02*
X22500000Y29900000D01*
X22500000Y30100000D01*
X22700000Y30100000D01*
X22700000Y30700000D01*
X22900000Y30700000D01*
X22900000Y30900000D01*
X23100000Y30900000D01*
X23100000Y31100000D01*
X23300000Y31100000D01*
X23300000Y31300000D01*
X23900000Y31300000D01*
X23900000Y31500000D01*
X26900000Y31500000D01*
X26900000Y31700000D01*
X27500000Y31700000D01*
X27500000Y31900000D01*
X35500000Y31900000D01*
X35500000Y16700000D01*
X35300000Y16700000D01*
X35300000Y16100000D01*
X35100000Y16100000D01*
X35100000Y15900000D01*
X34900000Y15900000D01*
X34900000Y15700000D01*
X34300000Y15700000D01*
X34300000Y15500000D01*
X33100000Y15500000D01*
X33100000Y15300000D01*
D12*
X17000000Y22620000D03*
D13*
X17000000Y30000000D03*
D12*
X28000000Y30000000D03*
D13*
X5000000Y30000000D03*
D12*
X32240000Y15000000D03*
D13*
X22080000Y30000000D03*
D12*
X30540000Y30000000D03*
D13*
X5000000Y32540000D03*
D13*
X5000000Y9000000D03*
D13*
X58000000Y10540000D03*
D13*
X58000000Y18540000D03*
D13*
X58000000Y26540000D03*
D13*
X5000000Y11540000D03*
D12*
X17000000Y15000000D03*
D12*
X19540000Y15000000D03*
D12*
X22080000Y15000000D03*
D12*
X24620000Y15000000D03*
D13*
X40000000Y9000000D03*
D13*
X47620000Y9000000D03*
D13*
X58000000Y8000000D03*
D13*
X5000000Y14080000D03*
D12*
X19540000Y22620000D03*
D12*
X22080000Y22620000D03*
D12*
X24620000Y22620000D03*
D12*
X27160000Y22620000D03*
D13*
X40000000Y17000000D03*
D13*
X47620000Y17000000D03*
D13*
X58000000Y16000000D03*
D13*
X5000000Y16620000D03*
D12*
X27160000Y15000000D03*
D12*
X29700000Y15000000D03*
D12*
X29700000Y22620000D03*
D12*
X32240000Y22620000D03*
D13*
X40000000Y25000000D03*
D13*
X47620000Y25000000D03*
D13*
X58000000Y24000000D03*
M02*
