%FSLAX46Y46*%
%MOMM*%
%TF.FileFunction,Copper,L2,Bot*%
%TF.Part,Single*%
%LPD*%
%ADD10C,0.4000*%
%ADD11C,0.8000*%
%ADD12C,1.7000*%
%ADD13C,1.8000*%
%LPD*%
G36*
X28700000Y18100000D02*
X28700000Y21500000D01*
X28900000Y21500000D01*
X29100000Y21300000D01*
X29300000Y21300000D01*
X29500000Y21100000D01*
X29900000Y21100000D01*
X30100000Y21300000D01*
X30100000Y21100000D01*
X30700000Y20500000D01*
X30900000Y20500000D01*
X31100000Y20300000D01*
X31300000Y20300000D01*
X31500000Y20100000D01*
X31700000Y20100000D01*
X31900000Y19900000D01*
X40700000Y19900000D01*
X40700000Y18500000D01*
X40500000Y18500000D01*
X40300000Y18700000D01*
X39500000Y18700000D01*
X39300000Y18500000D01*
X39100000Y18500000D01*
X38700000Y18100000D01*
X28700000Y18100000D01*
G37*
%LPD*%
%LPD*%
G36*
X26900000Y16700000D02*
X26300000Y17300000D01*
X26100000Y17300000D01*
X25900000Y17500000D01*
X25700000Y17500000D01*
X25500000Y17700000D01*
X25300000Y17700000D01*
X25100000Y17900000D01*
X5900000Y17900000D01*
X5700000Y18100000D01*
X5500000Y18100000D01*
X5300000Y18300000D01*
X4500000Y18300000D01*
X4300000Y18100000D01*
X4100000Y18100000D01*
X4100000Y19900000D01*
X17300000Y19900000D01*
X17500000Y20100000D01*
X17700000Y20100000D01*
X17900000Y20300000D01*
X18100000Y20300000D01*
X18300000Y20500000D01*
X18500000Y20500000D01*
X19100000Y21100000D01*
X19100000Y21300000D01*
X19300000Y21100000D01*
X19700000Y21100000D01*
X19900000Y21300000D01*
X20100000Y21300000D01*
X20300000Y21500000D01*
X20500000Y21500000D01*
X20700000Y21700000D01*
X20700000Y21900000D01*
X20900000Y21900000D01*
X20900000Y21700000D01*
X21100000Y21500000D01*
X21300000Y21500000D01*
X21500000Y21300000D01*
X21700000Y21300000D01*
X21900000Y21100000D01*
X22300000Y21100000D01*
X22500000Y21300000D01*
X22700000Y21300000D01*
X22900000Y21500000D01*
X23100000Y21500000D01*
X23300000Y21700000D01*
X23500000Y21700000D01*
X23700000Y21500000D01*
X23900000Y21500000D01*
X24100000Y21300000D01*
X24300000Y21300000D01*
X24500000Y21100000D01*
X24900000Y21100000D01*
X25100000Y21300000D01*
X25300000Y21300000D01*
X25500000Y21500000D01*
X25700000Y21500000D01*
X25900000Y21700000D01*
X25900000Y21900000D01*
X25900000Y21700000D01*
X26100000Y21500000D01*
X26300000Y21500000D01*
X26500000Y21300000D01*
X26700000Y21300000D01*
X26700000Y17100000D01*
X26900000Y16900000D01*
X26900000Y16700000D01*
G37*
%LPD*%
%LPD*%
G36*
X30900000Y15900000D02*
X30900000Y16100000D01*
X31100000Y16100000D01*
X30900000Y15900000D01*
G37*
%LPD*%
%LPD*%
G36*
X28300000Y15900000D02*
X28300000Y16100000D01*
X28500000Y16100000D01*
X28500000Y15900000D01*
X28300000Y15900000D01*
G37*
%LPD*%
%LPD*%
G36*
X5900000Y15300000D02*
X5900000Y15500000D01*
X6300000Y15900000D01*
X6500000Y15900000D01*
X6300000Y15900000D01*
X5900000Y15500000D01*
X5900000Y15300000D01*
G37*
%LPD*%
%LPD*%
G36*
X31700000Y14300000D02*
X31500000Y14500000D01*
X31500000Y14700000D01*
X31300000Y14900000D01*
X31300000Y15300000D01*
X31500000Y15500000D01*
X31500000Y15700000D01*
X31700000Y15900000D01*
X31900000Y15900000D01*
X32100000Y16100000D01*
X32500000Y16100000D01*
X32700000Y15900000D01*
X32900000Y15900000D01*
X33100000Y15700000D01*
X33100000Y14900000D01*
X32900000Y14700000D01*
X32900000Y14500000D01*
X32700000Y14500000D01*
X32500000Y14300000D01*
X31700000Y14300000D01*
G37*
%LPD*%
%LPD*%
G36*
X4500000Y2700000D02*
X4700000Y2900000D01*
X4700000Y3100000D01*
X4900000Y3300000D01*
X4900000Y3500000D01*
X5100000Y3700000D01*
X5100000Y5700000D01*
X4900000Y5900000D01*
X4900000Y6100000D01*
X4700000Y6300000D01*
X4700000Y6500000D01*
X3500000Y7700000D01*
X3300000Y7700000D01*
X3100000Y7900000D01*
X2900000Y7900000D01*
X2700000Y8100000D01*
X700000Y8100000D01*
X500000Y7900000D01*
X300000Y7900000D01*
X100000Y7700000D01*
X-100000Y7700000D01*
X-300000Y7500000D01*
X-300000Y33100000D01*
X-100000Y32900000D01*
X100000Y32900000D01*
X300000Y32700000D01*
X500000Y32700000D01*
X700000Y32500000D01*
X2700000Y32500000D01*
X2900000Y32700000D01*
X3100000Y32700000D01*
X3300000Y32900000D01*
X3500000Y32700000D01*
X3900000Y32700000D01*
X4100000Y32900000D01*
X4100000Y33100000D01*
X4300000Y33300000D01*
X4500000Y33300000D01*
X4700000Y33500000D01*
X4700000Y34300000D01*
X4900000Y34500000D01*
X4900000Y34700000D01*
X5100000Y34900000D01*
X5100000Y36900000D01*
X4900000Y37100000D01*
X4900000Y37300000D01*
X4700000Y37500000D01*
X4700000Y37700000D01*
X58300000Y37700000D01*
X58300000Y37500000D01*
X58100000Y37300000D01*
X58100000Y37100000D01*
X57900000Y36900000D01*
X57900000Y34900000D01*
X58100000Y34700000D01*
X58100000Y34500000D01*
X58300000Y34300000D01*
X58300000Y34100000D01*
X59500000Y32900000D01*
X59700000Y32900000D01*
X59900000Y32700000D01*
X60100000Y32700000D01*
X60300000Y32500000D01*
X62300000Y32500000D01*
X62500000Y32700000D01*
X62700000Y32700000D01*
X62900000Y32900000D01*
X63100000Y32900000D01*
X63100000Y7700000D01*
X62900000Y7700000D01*
X62700000Y7900000D01*
X62500000Y7900000D01*
X62300000Y8100000D01*
X60300000Y8100000D01*
X60100000Y7900000D01*
X59900000Y7900000D01*
X59700000Y7700000D01*
X59700000Y8300000D01*
X59500000Y8500000D01*
X59500000Y8700000D01*
X59100000Y9100000D01*
X59500000Y9500000D01*
X59500000Y9700000D01*
X59700000Y9900000D01*
X59700000Y10100000D01*
X59500000Y10300000D01*
X59100000Y10300000D01*
X58900000Y10100000D01*
X58900000Y9900000D01*
X58700000Y9700000D01*
X58500000Y9700000D01*
X58300000Y9500000D01*
X57900000Y9500000D01*
X57700000Y9700000D01*
X57500000Y9700000D01*
X57300000Y9900000D01*
X57300000Y10100000D01*
X57100000Y10300000D01*
X56700000Y10300000D01*
X56500000Y10100000D01*
X56500000Y9900000D01*
X56700000Y9700000D01*
X56700000Y9500000D01*
X57100000Y9100000D01*
X56900000Y8900000D01*
X51700000Y8900000D01*
X51700000Y9500000D01*
X51500000Y9700000D01*
X51500000Y9900000D01*
X50900000Y10500000D01*
X50700000Y10500000D01*
X50500000Y10700000D01*
X49700000Y10700000D01*
X49500000Y10500000D01*
X49300000Y10500000D01*
X48700000Y9900000D01*
X48700000Y9700000D01*
X48500000Y9500000D01*
X48500000Y8700000D01*
X48700000Y8500000D01*
X48700000Y8300000D01*
X49300000Y7700000D01*
X49500000Y7700000D01*
X50100000Y7100000D01*
X50300000Y7100000D01*
X50500000Y6900000D01*
X56900000Y6900000D01*
X57300000Y6500000D01*
X57500000Y6500000D01*
X57700000Y6300000D01*
X58300000Y6300000D01*
X58100000Y6100000D01*
X58100000Y5900000D01*
X57900000Y5700000D01*
X57900000Y3700000D01*
X58100000Y3500000D01*
X58100000Y3300000D01*
X58300000Y3100000D01*
X58300000Y2900000D01*
X58500000Y2700000D01*
X4500000Y2700000D01*
G37*
%LPD*%
%LPC*%
G36*
X5700000Y32900000D02*
X5900000Y32700000D01*
X6300000Y32700000D01*
X6500000Y32900000D01*
X6500000Y33100000D01*
X6300000Y33300000D01*
X6300000Y33500000D01*
X5900000Y33900000D01*
X5700000Y33900000D01*
X5500000Y34100000D01*
X5300000Y34100000D01*
X5100000Y33900000D01*
X5100000Y33500000D01*
X5300000Y33300000D01*
X5500000Y33300000D01*
X5700000Y33100000D01*
X5700000Y32900000D01*
G37*
%LPD*%
%LPC*%
G36*
X31300000Y30300000D02*
X31500000Y30100000D01*
X31900000Y30100000D01*
X32100000Y30300000D01*
X32100000Y30500000D01*
X31100000Y31500000D01*
X30900000Y31500000D01*
X30700000Y31300000D01*
X30700000Y30900000D01*
X30900000Y30700000D01*
X31100000Y30700000D01*
X31300000Y30500000D01*
X31300000Y30300000D01*
G37*
%LPD*%
%LPC*%
G36*
X20500000Y30300000D02*
X20700000Y30100000D01*
X21100000Y30100000D01*
X21300000Y30300000D01*
X21300000Y30500000D01*
X21500000Y30700000D01*
X21700000Y30700000D01*
X21900000Y30900000D01*
X21900000Y31300000D01*
X21700000Y31500000D01*
X21500000Y31500000D01*
X21300000Y31300000D01*
X21100000Y31300000D01*
X20700000Y30900000D01*
X20700000Y30700000D01*
X20500000Y30500000D01*
X20500000Y30300000D01*
G37*
%LPD*%
%LPC*%
G36*
X30700000Y28500000D02*
X30900000Y28300000D01*
X31100000Y28300000D01*
X32100000Y29300000D01*
X32100000Y29500000D01*
X31900000Y29700000D01*
X31500000Y29700000D01*
X31300000Y29500000D01*
X31300000Y29300000D01*
X31100000Y29100000D01*
X30900000Y29100000D01*
X30700000Y28900000D01*
X30700000Y28500000D01*
G37*
%LPD*%
%LPC*%
G36*
X58900000Y26900000D02*
X59100000Y26700000D01*
X59500000Y26700000D01*
X59700000Y26900000D01*
X59700000Y27100000D01*
X59500000Y27300000D01*
X59500000Y27500000D01*
X59100000Y27900000D01*
X58900000Y27900000D01*
X58700000Y28100000D01*
X58500000Y28100000D01*
X58300000Y27900000D01*
X58300000Y27500000D01*
X58500000Y27300000D01*
X58700000Y27300000D01*
X58900000Y27100000D01*
X58900000Y26900000D01*
G37*
%LPD*%
%LPC*%
G36*
X56500000Y26900000D02*
X56700000Y26700000D01*
X57100000Y26700000D01*
X57300000Y26900000D01*
X57300000Y27100000D01*
X57500000Y27300000D01*
X57700000Y27300000D01*
X57900000Y27500000D01*
X57900000Y27900000D01*
X57700000Y28100000D01*
X57500000Y28100000D01*
X57300000Y27900000D01*
X57100000Y27900000D01*
X56700000Y27500000D01*
X56700000Y27300000D01*
X56500000Y27100000D01*
X56500000Y26900000D01*
G37*
%LPD*%
%LPC*%
G36*
X57500000Y22500000D02*
X57700000Y22300000D01*
X58500000Y22300000D01*
X58700000Y22500000D01*
X58900000Y22500000D01*
X59500000Y23100000D01*
X59500000Y23300000D01*
X59700000Y23500000D01*
X59700000Y24300000D01*
X59500000Y24500000D01*
X59500000Y24700000D01*
X59100000Y25100000D01*
X59500000Y25500000D01*
X59500000Y25700000D01*
X59700000Y25900000D01*
X59700000Y26100000D01*
X59500000Y26300000D01*
X59100000Y26300000D01*
X58900000Y26100000D01*
X58900000Y25900000D01*
X58700000Y25700000D01*
X58500000Y25700000D01*
X58300000Y25500000D01*
X57900000Y25500000D01*
X57700000Y25700000D01*
X57500000Y25700000D01*
X57300000Y25900000D01*
X57300000Y26100000D01*
X57100000Y26300000D01*
X56700000Y26300000D01*
X56500000Y26100000D01*
X56500000Y25900000D01*
X56700000Y25700000D01*
X56700000Y25500000D01*
X57100000Y25100000D01*
X56900000Y24900000D01*
X51700000Y24900000D01*
X51700000Y25300000D01*
X51500000Y25500000D01*
X51500000Y25700000D01*
X50900000Y26300000D01*
X50700000Y26300000D01*
X50500000Y26500000D01*
X49700000Y26500000D01*
X49500000Y26300000D01*
X49300000Y26300000D01*
X48700000Y25700000D01*
X48700000Y25500000D01*
X48500000Y25300000D01*
X48500000Y24500000D01*
X48700000Y24300000D01*
X48700000Y24100000D01*
X49300000Y23500000D01*
X49500000Y23500000D01*
X49700000Y23300000D01*
X49900000Y23300000D01*
X50100000Y23100000D01*
X50300000Y23100000D01*
X50500000Y22900000D01*
X56900000Y22900000D01*
X57300000Y22500000D01*
X57500000Y22500000D01*
G37*
%LPD*%
%LPC*%
G36*
X58900000Y18900000D02*
X59100000Y18700000D01*
X59500000Y18700000D01*
X59700000Y18900000D01*
X59700000Y19100000D01*
X59500000Y19300000D01*
X59500000Y19500000D01*
X59100000Y19900000D01*
X58900000Y19900000D01*
X58700000Y20100000D01*
X58500000Y20100000D01*
X58300000Y19900000D01*
X58300000Y19500000D01*
X58500000Y19300000D01*
X58700000Y19300000D01*
X58900000Y19100000D01*
X58900000Y18900000D01*
G37*
%LPD*%
%LPC*%
G36*
X56500000Y18900000D02*
X56700000Y18700000D01*
X57100000Y18700000D01*
X57300000Y18900000D01*
X57300000Y19100000D01*
X57500000Y19300000D01*
X57700000Y19300000D01*
X57900000Y19500000D01*
X57900000Y19900000D01*
X57700000Y20100000D01*
X57500000Y20100000D01*
X57300000Y19900000D01*
X57100000Y19900000D01*
X56700000Y19500000D01*
X56700000Y19300000D01*
X56500000Y19100000D01*
X56500000Y18900000D01*
G37*
%LPD*%
%LPC*%
G36*
X57500000Y14500000D02*
X57700000Y14300000D01*
X58500000Y14300000D01*
X58700000Y14500000D01*
X58900000Y14500000D01*
X59500000Y15100000D01*
X59500000Y15300000D01*
X59700000Y15500000D01*
X59700000Y16300000D01*
X59500000Y16500000D01*
X59500000Y16700000D01*
X59100000Y17100000D01*
X59500000Y17500000D01*
X59500000Y17700000D01*
X59700000Y17900000D01*
X59700000Y18100000D01*
X59500000Y18300000D01*
X59100000Y18300000D01*
X58900000Y18100000D01*
X58900000Y17900000D01*
X58700000Y17700000D01*
X58500000Y17700000D01*
X58300000Y17500000D01*
X57900000Y17500000D01*
X57700000Y17700000D01*
X57500000Y17700000D01*
X57300000Y17900000D01*
X57300000Y18100000D01*
X57100000Y18300000D01*
X56700000Y18300000D01*
X56500000Y18100000D01*
X56500000Y17900000D01*
X56700000Y17700000D01*
X56700000Y17500000D01*
X57100000Y17100000D01*
X56900000Y16900000D01*
X51700000Y16900000D01*
X51700000Y17500000D01*
X51500000Y17700000D01*
X51500000Y17900000D01*
X50900000Y18500000D01*
X50700000Y18500000D01*
X50500000Y18700000D01*
X49700000Y18700000D01*
X49500000Y18500000D01*
X49300000Y18500000D01*
X48700000Y17900000D01*
X48700000Y17700000D01*
X48500000Y17500000D01*
X48500000Y16700000D01*
X48700000Y16500000D01*
X48700000Y16300000D01*
X49300000Y15700000D01*
X49500000Y15700000D01*
X50100000Y15100000D01*
X50300000Y15100000D01*
X50500000Y14900000D01*
X56900000Y14900000D01*
X57300000Y14500000D01*
X57500000Y14500000D01*
G37*
%LPD*%
%LPC*%
G36*
X58900000Y10900000D02*
X59100000Y10700000D01*
X59500000Y10700000D01*
X59700000Y10900000D01*
X59700000Y11100000D01*
X59500000Y11300000D01*
X59500000Y11500000D01*
X59100000Y11900000D01*
X58900000Y11900000D01*
X58700000Y12100000D01*
X58500000Y12100000D01*
X58300000Y11900000D01*
X58300000Y11500000D01*
X58500000Y11300000D01*
X58700000Y11300000D01*
X58900000Y11100000D01*
X58900000Y10900000D01*
G37*
%LPD*%
%LPC*%
G36*
X56500000Y10900000D02*
X56700000Y10700000D01*
X57100000Y10700000D01*
X57300000Y10900000D01*
X57300000Y11100000D01*
X57500000Y11300000D01*
X57700000Y11300000D01*
X57900000Y11500000D01*
X57900000Y11900000D01*
X57700000Y12100000D01*
X57500000Y12100000D01*
X57300000Y11900000D01*
X57100000Y11900000D01*
X56700000Y11500000D01*
X56700000Y11300000D01*
X56500000Y11100000D01*
X56500000Y10900000D01*
G37*
%LPD*%
%LPC*%
G36*
X39300000Y7700000D02*
X39500000Y7500000D01*
X40300000Y7500000D01*
X40500000Y7700000D01*
X40700000Y7700000D01*
X41300000Y8300000D01*
X41300000Y8500000D01*
X41500000Y8700000D01*
X41500000Y9500000D01*
X41300000Y9700000D01*
X41300000Y9900000D01*
X40700000Y10500000D01*
X40500000Y10500000D01*
X40300000Y10700000D01*
X39500000Y10700000D01*
X39300000Y10500000D01*
X39100000Y10500000D01*
X38700000Y10100000D01*
X26300000Y10100000D01*
X26300000Y13900000D01*
X26500000Y13700000D01*
X26700000Y13700000D01*
X26900000Y13500000D01*
X27300000Y13500000D01*
X27500000Y13700000D01*
X27700000Y13700000D01*
X27900000Y13900000D01*
X28100000Y13900000D01*
X28300000Y14100000D01*
X28300000Y14300000D01*
X28500000Y14300000D01*
X28500000Y14100000D01*
X28700000Y13900000D01*
X28900000Y13900000D01*
X29100000Y13700000D01*
X29300000Y13700000D01*
X29300000Y13300000D01*
X29500000Y13100000D01*
X29500000Y12900000D01*
X29900000Y12500000D01*
X30100000Y12500000D01*
X30300000Y12300000D01*
X32700000Y12300000D01*
X32900000Y12500000D01*
X33100000Y12500000D01*
X33300000Y12700000D01*
X33500000Y12700000D01*
X33700000Y12900000D01*
X33900000Y12900000D01*
X34500000Y13500000D01*
X34500000Y13700000D01*
X34700000Y13900000D01*
X34700000Y14100000D01*
X34900000Y14300000D01*
X40500000Y14300000D01*
X40700000Y14500000D01*
X40900000Y14500000D01*
X41100000Y14700000D01*
X41300000Y14700000D01*
X42300000Y15700000D01*
X42300000Y15900000D01*
X42500000Y16100000D01*
X42500000Y16300000D01*
X42700000Y16500000D01*
X42700000Y20900000D01*
X42500000Y21100000D01*
X42500000Y21300000D01*
X42100000Y21700000D01*
X41900000Y21700000D01*
X41700000Y21900000D01*
X33500000Y21900000D01*
X33700000Y22100000D01*
X33700000Y22300000D01*
X33900000Y22500000D01*
X33900000Y22900000D01*
X33700000Y23100000D01*
X33900000Y23300000D01*
X33900000Y23900000D01*
X38700000Y23900000D01*
X39100000Y23500000D01*
X39300000Y23500000D01*
X39500000Y23300000D01*
X40300000Y23300000D01*
X40500000Y23500000D01*
X40700000Y23500000D01*
X41300000Y24100000D01*
X41300000Y24300000D01*
X41500000Y24500000D01*
X41500000Y25300000D01*
X41300000Y25500000D01*
X41300000Y25700000D01*
X40700000Y26300000D01*
X40500000Y26300000D01*
X40300000Y26500000D01*
X39500000Y26500000D01*
X39300000Y26300000D01*
X39100000Y26300000D01*
X38700000Y25900000D01*
X32900000Y25900000D01*
X32700000Y25700000D01*
X32500000Y25700000D01*
X32100000Y25300000D01*
X32100000Y25100000D01*
X31900000Y24900000D01*
X31900000Y24100000D01*
X31700000Y24100000D01*
X31500000Y23900000D01*
X31300000Y23900000D01*
X31100000Y23700000D01*
X31100000Y23500000D01*
X30900000Y23500000D01*
X30900000Y23700000D01*
X30700000Y23900000D01*
X30500000Y23900000D01*
X30300000Y24100000D01*
X30100000Y24100000D01*
X29900000Y24300000D01*
X29500000Y24300000D01*
X29300000Y24100000D01*
X29100000Y24100000D01*
X28900000Y23900000D01*
X28700000Y23900000D01*
X28500000Y23700000D01*
X28500000Y23500000D01*
X28300000Y23500000D01*
X28300000Y23700000D01*
X28100000Y23900000D01*
X27900000Y23900000D01*
X27700000Y24100000D01*
X27500000Y24100000D01*
X27300000Y24300000D01*
X26900000Y24300000D01*
X26700000Y24100000D01*
X26500000Y24100000D01*
X26300000Y23900000D01*
X26100000Y23900000D01*
X25900000Y23700000D01*
X25900000Y23500000D01*
X25900000Y23700000D01*
X25700000Y23900000D01*
X25500000Y23900000D01*
X25300000Y24100000D01*
X25100000Y24100000D01*
X24900000Y24300000D01*
X24500000Y24300000D01*
X24300000Y24100000D01*
X24100000Y24100000D01*
X23900000Y23900000D01*
X23700000Y23900000D01*
X23500000Y23700000D01*
X23300000Y23700000D01*
X23100000Y23900000D01*
X22900000Y23900000D01*
X22700000Y24100000D01*
X22500000Y24100000D01*
X22300000Y24300000D01*
X21900000Y24300000D01*
X21700000Y24100000D01*
X21500000Y24100000D01*
X21300000Y23900000D01*
X21100000Y23900000D01*
X20900000Y23700000D01*
X20900000Y23500000D01*
X20700000Y23500000D01*
X20700000Y23700000D01*
X20500000Y23900000D01*
X20300000Y23900000D01*
X20100000Y24100000D01*
X19900000Y24100000D01*
X19700000Y24300000D01*
X19300000Y24300000D01*
X19100000Y24100000D01*
X18900000Y24100000D01*
X18700000Y23900000D01*
X18500000Y23900000D01*
X18300000Y23700000D01*
X18300000Y23500000D01*
X18100000Y23500000D01*
X18100000Y26700000D01*
X22700000Y26700000D01*
X22900000Y26900000D01*
X23300000Y26900000D01*
X23500000Y27100000D01*
X23700000Y27100000D01*
X24900000Y28300000D01*
X24900000Y28500000D01*
X25100000Y28700000D01*
X27100000Y28700000D01*
X27300000Y28500000D01*
X27500000Y28500000D01*
X27700000Y28300000D01*
X28100000Y28300000D01*
X28300000Y28500000D01*
X28500000Y28500000D01*
X28700000Y28700000D01*
X28900000Y28700000D01*
X29100000Y28900000D01*
X29100000Y29100000D01*
X29900000Y28300000D01*
X30100000Y28300000D01*
X30300000Y28500000D01*
X30300000Y28900000D01*
X30100000Y29100000D01*
X29900000Y29100000D01*
X29700000Y29300000D01*
X29700000Y29500000D01*
X29500000Y29700000D01*
X29500000Y30100000D01*
X29700000Y30300000D01*
X29700000Y30500000D01*
X29900000Y30700000D01*
X30100000Y30700000D01*
X30300000Y30900000D01*
X30300000Y31300000D01*
X30100000Y31500000D01*
X29900000Y31500000D01*
X29100000Y30700000D01*
X29100000Y30900000D01*
X28900000Y31100000D01*
X28700000Y31100000D01*
X28500000Y31300000D01*
X28300000Y31300000D01*
X28100000Y31500000D01*
X27700000Y31500000D01*
X27500000Y31300000D01*
X27300000Y31300000D01*
X27100000Y31100000D01*
X24100000Y31100000D01*
X23900000Y30900000D01*
X23700000Y30900000D01*
X23500000Y30700000D01*
X23500000Y30900000D01*
X23100000Y31300000D01*
X22900000Y31300000D01*
X22700000Y31500000D01*
X22500000Y31500000D01*
X22300000Y31300000D01*
X22300000Y30900000D01*
X22500000Y30700000D01*
X22700000Y30700000D01*
X22900000Y30500000D01*
X22900000Y30300000D01*
X23100000Y30100000D01*
X22900000Y29900000D01*
X22900000Y29500000D01*
X22500000Y29100000D01*
X21500000Y29100000D01*
X21300000Y29300000D01*
X21300000Y29500000D01*
X21100000Y29700000D01*
X20700000Y29700000D01*
X20500000Y29500000D01*
X20500000Y29300000D01*
X20700000Y29100000D01*
X18300000Y29100000D01*
X18300000Y29300000D01*
X18500000Y29500000D01*
X18500000Y30300000D01*
X18300000Y30500000D01*
X18300000Y30700000D01*
X17700000Y31300000D01*
X17500000Y31300000D01*
X17300000Y31500000D01*
X16500000Y31500000D01*
X16300000Y31300000D01*
X16100000Y31300000D01*
X15900000Y31100000D01*
X5900000Y31100000D01*
X6300000Y31500000D01*
X6300000Y31700000D01*
X6500000Y31900000D01*
X6500000Y32100000D01*
X6300000Y32300000D01*
X5900000Y32300000D01*
X5700000Y32100000D01*
X5700000Y31900000D01*
X5500000Y31700000D01*
X5300000Y31700000D01*
X5100000Y31500000D01*
X4700000Y31500000D01*
X4500000Y31700000D01*
X4300000Y31700000D01*
X4100000Y31900000D01*
X4100000Y32100000D01*
X3900000Y32300000D01*
X3500000Y32300000D01*
X3300000Y32100000D01*
X3300000Y31900000D01*
X3500000Y31700000D01*
X3500000Y31500000D01*
X3900000Y31100000D01*
X3500000Y30700000D01*
X3500000Y30500000D01*
X3300000Y30300000D01*
X3300000Y29500000D01*
X3500000Y29300000D01*
X3500000Y29100000D01*
X4100000Y28500000D01*
X4300000Y28500000D01*
X4500000Y28300000D01*
X5300000Y28300000D01*
X5500000Y28500000D01*
X5700000Y28500000D01*
X5900000Y28700000D01*
X15700000Y28700000D01*
X15700000Y23500000D01*
X15500000Y23300000D01*
X15500000Y23100000D01*
X15300000Y22900000D01*
X15300000Y22500000D01*
X15500000Y22300000D01*
X15500000Y22100000D01*
X15700000Y21900000D01*
X3100000Y21900000D01*
X2900000Y21700000D01*
X2700000Y21700000D01*
X2300000Y21300000D01*
X2300000Y21100000D01*
X2100000Y20900000D01*
X2100000Y16100000D01*
X2300000Y15900000D01*
X2300000Y15700000D01*
X2500000Y15500000D01*
X2500000Y15300000D01*
X3100000Y14700000D01*
X3100000Y14500000D01*
X3300000Y14300000D01*
X3300000Y13700000D01*
X3500000Y13500000D01*
X3500000Y13300000D01*
X3900000Y12900000D01*
X3900000Y12700000D01*
X3500000Y12300000D01*
X3500000Y12100000D01*
X3300000Y11900000D01*
X3300000Y11100000D01*
X3500000Y10900000D01*
X3500000Y10700000D01*
X3700000Y10500000D01*
X3700000Y10300000D01*
X3500000Y10100000D01*
X3500000Y9900000D01*
X3300000Y9700000D01*
X3300000Y9500000D01*
X3500000Y9300000D01*
X3900000Y9300000D01*
X4100000Y9500000D01*
X4100000Y9700000D01*
X4300000Y9900000D01*
X5500000Y9900000D01*
X5700000Y9700000D01*
X5700000Y9500000D01*
X5900000Y9300000D01*
X6300000Y9300000D01*
X6500000Y9500000D01*
X6500000Y9700000D01*
X6300000Y9900000D01*
X6300000Y10100000D01*
X6100000Y10300000D01*
X6100000Y10500000D01*
X6300000Y10700000D01*
X6300000Y10900000D01*
X6500000Y11100000D01*
X6500000Y11700000D01*
X6700000Y11900000D01*
X6700000Y12100000D01*
X7300000Y12700000D01*
X7300000Y12900000D01*
X7500000Y13100000D01*
X7500000Y13300000D01*
X7700000Y13500000D01*
X7700000Y14100000D01*
X15700000Y14100000D01*
X15900000Y13900000D01*
X16100000Y13900000D01*
X16300000Y13700000D01*
X16500000Y13700000D01*
X16700000Y13500000D01*
X17100000Y13500000D01*
X17300000Y13700000D01*
X17500000Y13700000D01*
X17700000Y13900000D01*
X17900000Y13900000D01*
X18100000Y14100000D01*
X18100000Y14300000D01*
X18300000Y14300000D01*
X18300000Y14100000D01*
X18500000Y13900000D01*
X18700000Y13900000D01*
X18900000Y13700000D01*
X19100000Y13700000D01*
X19300000Y13500000D01*
X19700000Y13500000D01*
X19900000Y13700000D01*
X20100000Y13700000D01*
X20300000Y13900000D01*
X20500000Y13900000D01*
X20700000Y14100000D01*
X20900000Y14100000D01*
X21100000Y13900000D01*
X21300000Y13900000D01*
X21500000Y13700000D01*
X21700000Y13700000D01*
X21900000Y13500000D01*
X22300000Y13500000D01*
X22500000Y13700000D01*
X22700000Y13700000D01*
X22900000Y13900000D01*
X23100000Y13900000D01*
X23300000Y14100000D01*
X23300000Y14300000D01*
X23500000Y14300000D01*
X23500000Y14100000D01*
X23700000Y13900000D01*
X23900000Y13900000D01*
X24100000Y13700000D01*
X24300000Y13700000D01*
X24300000Y9100000D01*
X24500000Y8900000D01*
X24500000Y8700000D01*
X24900000Y8300000D01*
X25100000Y8300000D01*
X25300000Y8100000D01*
X38700000Y8100000D01*
X39100000Y7700000D01*
X39300000Y7700000D01*
G37*
%LPD*%
%LPC*%
G36*
X5100000Y7700000D02*
X5300000Y7500000D01*
X5500000Y7500000D01*
X5700000Y7700000D01*
X5900000Y7700000D01*
X6300000Y8100000D01*
X6300000Y8300000D01*
X6500000Y8500000D01*
X6500000Y8700000D01*
X6300000Y8900000D01*
X5900000Y8900000D01*
X5700000Y8700000D01*
X5700000Y8500000D01*
X5500000Y8300000D01*
X5300000Y8300000D01*
X5100000Y8100000D01*
X5100000Y7700000D01*
G37*
%LPD*%
%LPC*%
G36*
X4100000Y7700000D02*
X4300000Y7500000D01*
X4500000Y7500000D01*
X4700000Y7700000D01*
X4700000Y8100000D01*
X4500000Y8300000D01*
X4300000Y8300000D01*
X4100000Y8500000D01*
X4100000Y8700000D01*
X3900000Y8900000D01*
X3500000Y8900000D01*
X3300000Y8700000D01*
X3300000Y8500000D01*
X3500000Y8300000D01*
X3500000Y8100000D01*
X3900000Y7700000D01*
X4100000Y7700000D01*
G37*
%LPD*%
D10*
X58100000Y23900000D02*
X50500000Y23900000D01*
X50500000Y24100000D01*
D10*
X22100000Y15100000D02*
X20300000Y15100000D01*
D10*
X39900000Y17100000D02*
X27700000Y17100000D01*
X27700000Y22100000D01*
D10*
X58100000Y15900000D02*
X50500000Y15900000D01*
X50500000Y16300000D01*
D10*
X58100000Y7900000D02*
X50500000Y7900000D01*
X50500000Y8300000D01*
D10*
X24700000Y22700000D02*
X22900000Y22700000D01*
D10*
X27100000Y15100000D02*
X26500000Y15100000D01*
X26500000Y15500000D01*
X26300000Y15500000D01*
X26300000Y15900000D01*
X26100000Y15900000D01*
X26100000Y16300000D01*
X25900000Y16300000D01*
X25900000Y16500000D01*
X25500000Y16500000D01*
X25500000Y16700000D01*
X25100000Y16700000D01*
X25100000Y16900000D01*
X5700000Y16900000D01*
D10*
X39900000Y9100000D02*
X25300000Y9100000D01*
X25300000Y14500000D01*
D10*
X16900000Y15100000D02*
X6700000Y15100000D01*
X6700000Y13500000D01*
X6500000Y13500000D01*
X6500000Y13100000D01*
X6300000Y13100000D01*
X6300000Y12900000D01*
X6100000Y12900000D01*
X6100000Y12700000D01*
X5900000Y12700000D01*
X5900000Y12500000D01*
X5700000Y12500000D01*
X5700000Y11900000D01*
D10*
X29700000Y22700000D02*
X30500000Y22700000D01*
X30500000Y22300000D01*
X30700000Y22300000D01*
X30700000Y21900000D01*
X30900000Y21900000D01*
X30900000Y21500000D01*
X31100000Y21500000D01*
X31100000Y21300000D01*
X31500000Y21300000D01*
X31500000Y21100000D01*
X31900000Y21100000D01*
X31900000Y20900000D01*
X41700000Y20900000D01*
X41700000Y16500000D01*
X41500000Y16500000D01*
X41500000Y16100000D01*
X41300000Y16100000D01*
X41300000Y15900000D01*
X41100000Y15900000D01*
X41100000Y15700000D01*
X40900000Y15700000D01*
X40900000Y15500000D01*
X40500000Y15500000D01*
X40500000Y15300000D01*
X34100000Y15300000D01*
X34100000Y14700000D01*
X33900000Y14700000D01*
X33900000Y14300000D01*
X33700000Y14300000D01*
X33700000Y13900000D01*
X33500000Y13900000D01*
X33500000Y13700000D01*
X33100000Y13700000D01*
X33100000Y13500000D01*
X32700000Y13500000D01*
X32700000Y13300000D01*
X30300000Y13300000D01*
X30300000Y14500000D01*
D10*
X19500000Y22700000D02*
X18700000Y22700000D01*
X18700000Y22300000D01*
X18500000Y22300000D01*
X18500000Y21900000D01*
X18300000Y21900000D01*
X18300000Y21500000D01*
X18100000Y21500000D01*
X18100000Y21300000D01*
X17700000Y21300000D01*
X17700000Y21100000D01*
X17300000Y21100000D01*
X17300000Y20900000D01*
X3100000Y20900000D01*
X3100000Y16100000D01*
X3300000Y16100000D01*
X3300000Y15700000D01*
X3500000Y15700000D01*
X3500000Y15500000D01*
X3700000Y15500000D01*
X3700000Y15300000D01*
X3900000Y15300000D01*
X3900000Y15100000D01*
X4100000Y15100000D01*
X4100000Y14500000D01*
D10*
X39900000Y24900000D02*
X32900000Y24900000D01*
X32900000Y23300000D01*
D11*
X16900000Y29900000D02*
X16900000Y23500000D01*
D11*
X27900000Y29900000D02*
X24100000Y29900000D01*
X24100000Y29300000D01*
X23900000Y29300000D01*
X23900000Y28700000D01*
X23700000Y28700000D01*
X23700000Y28500000D01*
X23500000Y28500000D01*
X23500000Y28300000D01*
X23300000Y28300000D01*
X23300000Y28100000D01*
X22700000Y28100000D01*
X22700000Y27900000D01*
X17300000Y27900000D01*
D11*
X4900000Y29900000D02*
X16100000Y29900000D01*
D12*
X17000000Y22620000D03*
D13*
X17000000Y30000000D03*
D12*
X28000000Y30000000D03*
D13*
X5000000Y30000000D03*
D12*
X32240000Y15000000D03*
D13*
X22080000Y30000000D03*
D12*
X30540000Y30000000D03*
D13*
X5000000Y32540000D03*
D13*
X5000000Y9000000D03*
D13*
X58000000Y10540000D03*
D13*
X58000000Y18540000D03*
D13*
X58000000Y26540000D03*
D13*
X5000000Y11540000D03*
D12*
X17000000Y15000000D03*
D12*
X19540000Y15000000D03*
D12*
X22080000Y15000000D03*
D12*
X24620000Y15000000D03*
D13*
X40000000Y9000000D03*
D13*
X50160000Y9000000D03*
D13*
X58000000Y8000000D03*
D13*
X5000000Y14080000D03*
D12*
X19540000Y22620000D03*
D12*
X22080000Y22620000D03*
D12*
X24620000Y22620000D03*
D12*
X27160000Y22620000D03*
D13*
X40000000Y17000000D03*
D13*
X50160000Y17000000D03*
D13*
X58000000Y16000000D03*
D13*
X5000000Y16620000D03*
D12*
X27160000Y15000000D03*
D12*
X29700000Y15000000D03*
D12*
X29700000Y22620000D03*
D12*
X32240000Y22620000D03*
D13*
X40000000Y25000000D03*
D13*
X50160000Y25000000D03*
D13*
X58000000Y24000000D03*
M02*
