M48
METRIC,TZ
T1C0.900
T2C1.000
T3C2.700
%
T1
X17.000Y22.620
X17.000Y30.000
X28.000Y30.000
X32.240Y15.000
X22.080Y30.000
X30.540Y30.000
X17.000Y15.000
X19.540Y15.000
X22.080Y15.000
X24.620Y15.000
X40.000Y9.000
X50.160Y9.000
X19.540Y22.620
X22.080Y22.620
X24.620Y22.620
X27.160Y22.620
X40.000Y17.000
X50.160Y17.000
X27.160Y15.000
X29.700Y15.000
X29.700Y22.620
X32.240Y22.620
X40.000Y25.000
X50.160Y25.000
T2
X5.000Y30.000
X5.000Y32.540
X5.000Y9.000
X58.000Y10.540
X58.000Y18.540
X58.000Y26.540
X5.000Y11.540
X58.000Y8.000
X5.000Y14.080
X58.000Y16.000
X5.000Y16.620
X58.000Y24.000
T3
X1.600Y4.600
X61.400Y4.600
X1.600Y35.940
X61.400Y35.940
T0
M30
