%FSLAX46Y46*%
%MOMM*%
%TF.FileFunction,Copper,L1,Top*%
%TF.Part,Single*%
%LPD*%
%ADD10C,0.4000*%
%ADD11C,0.8000*%
%ADD12C,1.7000*%
%ADD13C,1.8000*%
D10*
X32900000Y63900000D02*
X27500000Y63900000D01*
D10*
X56100000Y63900000D02*
X50500000Y63900000D01*
D10*
X56100000Y3900000D02*
X50500000Y3900000D01*
D10*
X10900000Y51900000D02*
X9300000Y51900000D01*
X9300000Y51300000D01*
X9100000Y51300000D01*
X9100000Y50900000D01*
X8900000Y50900000D01*
X8900000Y50700000D01*
X8700000Y50700000D01*
X8700000Y50500000D01*
X8500000Y50500000D01*
X8500000Y50300000D01*
X8100000Y50300000D01*
X8100000Y50100000D01*
X5300000Y50100000D01*
X5300000Y51100000D01*
D10*
X32900000Y3900000D02*
X27500000Y3900000D01*
D10*
X10900000Y15900000D02*
X9300000Y15900000D01*
X9300000Y15300000D01*
X9100000Y15300000D01*
X9100000Y14900000D01*
X8900000Y14900000D01*
X8900000Y14700000D01*
X8700000Y14700000D01*
X8700000Y14500000D01*
X8500000Y14500000D01*
X8500000Y14300000D01*
X8100000Y14300000D01*
X8100000Y14100000D01*
X5300000Y14100000D01*
X5300000Y15100000D01*
D10*
X18900000Y9900000D02*
X24900000Y9900000D01*
X24900000Y10500000D01*
X25100000Y10500000D01*
X25100000Y10900000D01*
X25300000Y10900000D01*
X25300000Y11100000D01*
X25500000Y11100000D01*
X25500000Y11300000D01*
X25700000Y11300000D01*
X25700000Y11500000D01*
X26100000Y11500000D01*
X26100000Y11700000D01*
X38100000Y11700000D01*
X38100000Y27500000D01*
X38300000Y27500000D01*
X38300000Y27900000D01*
X38500000Y27900000D01*
X38500000Y28100000D01*
X38700000Y28100000D01*
X38700000Y28300000D01*
X38900000Y28300000D01*
X38900000Y28500000D01*
X39300000Y28500000D01*
X39300000Y33300000D01*
D10*
X50100000Y33900000D02*
X49500000Y33900000D01*
X49500000Y33500000D01*
X49300000Y33500000D01*
X49300000Y33100000D01*
X49100000Y33100000D01*
X49100000Y32700000D01*
X48900000Y32700000D01*
X48900000Y32500000D01*
X48500000Y32500000D01*
X48500000Y32300000D01*
X48100000Y32300000D01*
X48100000Y32100000D01*
X39500000Y32100000D01*
D10*
X18900000Y15900000D02*
X16900000Y15900000D01*
D10*
X45100000Y33900000D02*
X44300000Y33900000D01*
X44300000Y34300000D01*
X44100000Y34300000D01*
X44100000Y34700000D01*
X43900000Y34700000D01*
X43900000Y35100000D01*
X43700000Y35100000D01*
X43700000Y35300000D01*
X43300000Y35300000D01*
X43300000Y35500000D01*
X42900000Y35500000D01*
X42900000Y35700000D01*
X19700000Y35700000D01*
X19700000Y16300000D01*
D10*
X41900000Y57900000D02*
X40500000Y57900000D01*
X40500000Y42300000D01*
D10*
X60100000Y51900000D02*
X40700000Y51900000D01*
D10*
X49700000Y57900000D02*
X43700000Y57900000D01*
X43700000Y58500000D01*
X43500000Y58500000D01*
X43500000Y58900000D01*
X43300000Y58900000D01*
X43300000Y59100000D01*
X43100000Y59100000D01*
X43100000Y59300000D01*
X42900000Y59300000D01*
X42900000Y59500000D01*
X42500000Y59500000D01*
X42500000Y59700000D01*
X42300000Y59700000D01*
X42300000Y63100000D01*
D10*
X41900000Y63900000D02*
X39900000Y63900000D01*
X39900000Y63300000D01*
X39700000Y63300000D01*
X39700000Y62900000D01*
X39500000Y62900000D01*
X39500000Y62700000D01*
X39300000Y62700000D01*
X39300000Y62500000D01*
X39100000Y62500000D01*
X39100000Y62300000D01*
X38700000Y62300000D01*
X38700000Y62100000D01*
X38100000Y62100000D01*
X38100000Y41300000D01*
X38300000Y41300000D01*
X38300000Y40900000D01*
X38500000Y40900000D01*
X38500000Y40500000D01*
X38700000Y40500000D01*
X38700000Y40300000D01*
X39100000Y40300000D01*
X39100000Y40100000D01*
X39500000Y40100000D01*
X39500000Y39900000D01*
X41900000Y39900000D01*
X41900000Y41100000D01*
D10*
X26700000Y57900000D02*
X20700000Y57900000D01*
X20700000Y58500000D01*
X20500000Y58500000D01*
X20500000Y58900000D01*
X20300000Y58900000D01*
X20300000Y59100000D01*
X20100000Y59100000D01*
X20100000Y59300000D01*
X19900000Y59300000D01*
X19900000Y59500000D01*
X19500000Y59500000D01*
X19500000Y59700000D01*
X19300000Y59700000D01*
X19300000Y63100000D01*
D10*
X18900000Y63900000D02*
X24900000Y63900000D01*
X24900000Y63300000D01*
X25100000Y63300000D01*
X25100000Y62900000D01*
X25300000Y62900000D01*
X25300000Y62700000D01*
X25500000Y62700000D01*
X25500000Y62500000D01*
X25700000Y62500000D01*
X25700000Y62300000D01*
X26100000Y62300000D01*
X26100000Y62100000D01*
X36900000Y62100000D01*
X36900000Y41100000D01*
X37100000Y41100000D01*
X37100000Y40700000D01*
X37300000Y40700000D01*
X37300000Y40300000D01*
X37500000Y40300000D01*
X37500000Y39900000D01*
X37700000Y39900000D01*
X37700000Y39700000D01*
X37900000Y39700000D01*
X37900000Y39500000D01*
X38100000Y39500000D01*
X38100000Y39300000D01*
X38500000Y39300000D01*
X38500000Y39100000D01*
X38900000Y39100000D01*
X38900000Y38900000D01*
X39300000Y38900000D01*
X39300000Y38700000D01*
X52100000Y38700000D01*
X52100000Y41100000D01*
D10*
X18900000Y57900000D02*
X19500000Y57900000D01*
X19500000Y57700000D01*
X19700000Y57700000D01*
X19700000Y57300000D01*
X19900000Y57300000D01*
X19900000Y57100000D01*
X20100000Y57100000D01*
X20100000Y56900000D01*
X20500000Y56900000D01*
X20500000Y56700000D01*
X25500000Y56700000D01*
X25500000Y56500000D01*
X25700000Y56500000D01*
X25700000Y56300000D01*
X26100000Y56300000D01*
X26100000Y56100000D01*
X35700000Y56100000D01*
X35700000Y40900000D01*
X35900000Y40900000D01*
X35900000Y40500000D01*
X36100000Y40500000D01*
X36100000Y40100000D01*
X36300000Y40100000D01*
X36300000Y39700000D01*
X36500000Y39700000D01*
X36500000Y39300000D01*
X36700000Y39300000D01*
X36700000Y39100000D01*
X36900000Y39100000D01*
X36900000Y38900000D01*
X37100000Y38900000D01*
X37100000Y38700000D01*
X37300000Y38700000D01*
X37300000Y38500000D01*
X37500000Y38500000D01*
X37500000Y38300000D01*
X37900000Y38300000D01*
X37900000Y38100000D01*
X38300000Y38100000D01*
X38300000Y37900000D01*
X38700000Y37900000D01*
X38700000Y37700000D01*
X39100000Y37700000D01*
X39100000Y37500000D01*
X54700000Y37500000D01*
X54700000Y41100000D01*
D10*
X45100000Y41700000D02*
X45900000Y41700000D01*
X45900000Y42100000D01*
X46100000Y42100000D01*
X46100000Y42500000D01*
X46300000Y42500000D01*
X46300000Y42900000D01*
X46500000Y42900000D01*
X46500000Y43100000D01*
X46900000Y43100000D01*
X46900000Y43300000D01*
X47300000Y43300000D01*
X47300000Y43500000D01*
X54700000Y43500000D01*
X54700000Y42300000D01*
D10*
X18900000Y51900000D02*
X16900000Y51900000D01*
D10*
X60100000Y57900000D02*
X63300000Y57900000D01*
X63300000Y57300000D01*
X63500000Y57300000D01*
X63500000Y56900000D01*
X63700000Y56900000D01*
X63700000Y56700000D01*
X63900000Y56700000D01*
X63900000Y56500000D01*
X64100000Y56500000D01*
X64100000Y56300000D01*
X64500000Y56300000D01*
X64500000Y56100000D01*
X66900000Y56100000D01*
X66900000Y52300000D01*
D10*
X78100000Y34500000D02*
X68100000Y34500000D01*
X68100000Y51100000D01*
D10*
X60100000Y9900000D02*
X63300000Y9900000D01*
X63300000Y10500000D01*
X63500000Y10500000D01*
X63500000Y10900000D01*
X63700000Y10900000D01*
X63700000Y11100000D01*
X63900000Y11100000D01*
X63900000Y11300000D01*
X64100000Y11300000D01*
X64100000Y11500000D01*
X64500000Y11500000D01*
X64500000Y11700000D01*
X67300000Y11700000D01*
X67300000Y15100000D01*
D10*
X78100000Y31900000D02*
X68500000Y31900000D01*
X68500000Y16300000D01*
D10*
X49700000Y9900000D02*
X43700000Y9900000D01*
X43700000Y9300000D01*
X43500000Y9300000D01*
X43500000Y8900000D01*
X43300000Y8900000D01*
X43300000Y8700000D01*
X43100000Y8700000D01*
X43100000Y8500000D01*
X42900000Y8500000D01*
X42900000Y8300000D01*
X42700000Y8300000D01*
X42700000Y4300000D01*
D10*
X41900000Y3900000D02*
X47900000Y3900000D01*
X47900000Y4500000D01*
X48100000Y4500000D01*
X48100000Y4900000D01*
X48300000Y4900000D01*
X48300000Y5100000D01*
X48500000Y5100000D01*
X48500000Y5300000D01*
X48700000Y5300000D01*
X48700000Y5500000D01*
X49100000Y5500000D01*
X49100000Y5700000D01*
X50300000Y5700000D01*
X50300000Y27300000D01*
X50500000Y27300000D01*
X50500000Y27700000D01*
X50700000Y27700000D01*
X50700000Y28100000D01*
X50900000Y28100000D01*
X50900000Y28300000D01*
X51300000Y28300000D01*
X51300000Y28500000D01*
X51700000Y28500000D01*
X51700000Y28700000D01*
X52100000Y28700000D01*
X52100000Y33300000D01*
D10*
X41900000Y9900000D02*
X40100000Y9900000D01*
X40100000Y3300000D01*
X40300000Y3300000D01*
X40300000Y2900000D01*
X40500000Y2900000D01*
X40500000Y2700000D01*
X40700000Y2700000D01*
X40700000Y2500000D01*
X40900000Y2500000D01*
X40900000Y2300000D01*
X41300000Y2300000D01*
X41300000Y2100000D01*
X58300000Y2100000D01*
X58300000Y10500000D01*
X58500000Y10500000D01*
X58500000Y10900000D01*
X58700000Y10900000D01*
X58700000Y11100000D01*
X58900000Y11100000D01*
X58900000Y11300000D01*
X59100000Y11300000D01*
X59100000Y11500000D01*
X59500000Y11500000D01*
X59500000Y11700000D01*
X59700000Y11700000D01*
X59700000Y15100000D01*
D10*
X60100000Y15900000D02*
X56300000Y15900000D01*
X56300000Y27300000D01*
X56100000Y27300000D01*
X56100000Y27700000D01*
X55900000Y27700000D01*
X55900000Y33300000D01*
D10*
X26700000Y9900000D02*
X26100000Y9900000D01*
X26100000Y9700000D01*
X25900000Y9700000D01*
X25900000Y9300000D01*
X25700000Y9300000D01*
X25700000Y9100000D01*
X25500000Y9100000D01*
X25500000Y8900000D01*
X25100000Y8900000D01*
X25100000Y8700000D01*
X20100000Y8700000D01*
X20100000Y8500000D01*
X19900000Y8500000D01*
X19900000Y8300000D01*
X19700000Y8300000D01*
X19700000Y4300000D01*
D11*
X26700000Y15900000D02*
X20900000Y15900000D01*
X20900000Y15300000D01*
X20700000Y15300000D01*
X20700000Y14700000D01*
X20500000Y14700000D01*
X20500000Y14500000D01*
X20300000Y14500000D01*
X20300000Y14300000D01*
X20100000Y14300000D01*
X20100000Y14100000D01*
X19500000Y14100000D01*
X19500000Y13900000D01*
X12900000Y13900000D01*
X12900000Y16500000D01*
X12700000Y16500000D01*
X12700000Y17100000D01*
X12500000Y17100000D01*
X12500000Y17300000D01*
X12300000Y17300000D01*
X12300000Y17500000D01*
X12100000Y17500000D01*
X12100000Y17700000D01*
X11500000Y17700000D01*
X11500000Y17900000D01*
X6900000Y17900000D01*
X6900000Y35100000D01*
X6700000Y35100000D01*
X6700000Y35700000D01*
X6500000Y35700000D01*
X6500000Y35900000D01*
X6300000Y35900000D01*
X6300000Y36100000D01*
X6100000Y36100000D01*
X6100000Y36300000D01*
X5300000Y36300000D01*
D11*
X26700000Y51900000D02*
X20900000Y51900000D01*
X20900000Y51300000D01*
X20700000Y51300000D01*
X20700000Y50700000D01*
X20500000Y50700000D01*
X20500000Y50500000D01*
X20300000Y50500000D01*
X20300000Y50300000D01*
X20100000Y50300000D01*
X20100000Y50100000D01*
X19500000Y50100000D01*
X19500000Y49900000D01*
X9900000Y49900000D01*
X9900000Y49700000D01*
X9700000Y49700000D01*
X9700000Y49500000D01*
X9500000Y49500000D01*
X9500000Y49300000D01*
X9300000Y49300000D01*
X9300000Y49100000D01*
X8900000Y49100000D01*
X8900000Y48900000D01*
X8300000Y48900000D01*
X8300000Y48700000D01*
X5700000Y48700000D01*
X5700000Y37500000D01*
D11*
X39900000Y26900000D02*
X39500000Y26900000D01*
X39500000Y11500000D01*
X39300000Y11500000D01*
X39300000Y10900000D01*
X39100000Y10900000D01*
X39100000Y10700000D01*
X38900000Y10700000D01*
X38900000Y10500000D01*
X38300000Y10500000D01*
X38300000Y10300000D01*
X28700000Y10300000D01*
X28700000Y9300000D01*
X28500000Y9300000D01*
X28500000Y8700000D01*
X28300000Y8700000D01*
X28300000Y8500000D01*
X28100000Y8500000D01*
X28100000Y8300000D01*
X27900000Y8300000D01*
X27900000Y8100000D01*
X27300000Y8100000D01*
X27300000Y7900000D01*
X26300000Y7900000D01*
X26300000Y7700000D01*
X25900000Y7700000D01*
X25900000Y7500000D01*
X25300000Y7500000D01*
X25300000Y7300000D01*
X21100000Y7300000D01*
X21100000Y4100000D01*
X20900000Y4100000D01*
X20900000Y3300000D01*
X20700000Y3300000D01*
X20700000Y2700000D01*
X20500000Y2700000D01*
X20500000Y2500000D01*
X20300000Y2500000D01*
X20300000Y2300000D01*
X20100000Y2300000D01*
X20100000Y2100000D01*
X19500000Y2100000D01*
X19500000Y1900000D01*
X5300000Y1900000D01*
X5300000Y2500000D01*
X5100000Y2500000D01*
X5100000Y2900000D01*
X4900000Y2900000D01*
X4900000Y3100000D01*
X4700000Y3100000D01*
X4700000Y3300000D01*
X4500000Y3300000D01*
X4500000Y3500000D01*
X4300000Y3500000D01*
X4300000Y3700000D01*
X4100000Y3700000D01*
X4100000Y3900000D01*
X3900000Y3900000D01*
X3900000Y4100000D01*
X3500000Y4100000D01*
X3500000Y4300000D01*
X2900000Y4300000D01*
X2900000Y16500000D01*
X3100000Y16500000D01*
X3100000Y17100000D01*
X3300000Y17100000D01*
X3300000Y17300000D01*
X3500000Y17300000D01*
X3500000Y17500000D01*
X3700000Y17500000D01*
X3700000Y17700000D01*
X4300000Y17700000D01*
X4300000Y17900000D01*
X4500000Y17900000D01*
X4500000Y31100000D01*
D11*
X4900000Y31900000D02*
X2900000Y31900000D01*
X2900000Y15300000D01*
X3100000Y15300000D01*
X3100000Y14700000D01*
X3300000Y14700000D01*
X3300000Y14500000D01*
X3500000Y14500000D01*
X3500000Y14300000D01*
X3700000Y14300000D01*
X3700000Y14100000D01*
X3900000Y14100000D01*
X3900000Y13900000D01*
X4100000Y13900000D01*
X4100000Y13300000D01*
X4300000Y13300000D01*
X4300000Y13100000D01*
X4500000Y13100000D01*
X4500000Y12900000D01*
X5100000Y12900000D01*
X5100000Y12700000D01*
X12100000Y12700000D01*
X12100000Y12500000D01*
X12700000Y12500000D01*
X12700000Y12300000D01*
X16900000Y12300000D01*
X16900000Y3300000D01*
X17100000Y3300000D01*
X17100000Y2700000D01*
X17300000Y2700000D01*
X17300000Y2500000D01*
X17500000Y2500000D01*
X17500000Y2300000D01*
X17700000Y2300000D01*
X17700000Y2100000D01*
X18300000Y2100000D01*
X18300000Y1900000D01*
X39500000Y1900000D01*
X39500000Y1700000D01*
X39700000Y1700000D01*
X39700000Y1500000D01*
X39900000Y1500000D01*
X39900000Y1300000D01*
X40100000Y1300000D01*
X40100000Y1100000D01*
X40500000Y1100000D01*
X40500000Y900000D01*
X41100000Y900000D01*
X41100000Y700000D01*
X77500000Y700000D01*
X77500000Y1900000D01*
X77700000Y1900000D01*
X77700000Y2500000D01*
X77900000Y2500000D01*
X77900000Y2900000D01*
X78100000Y2900000D01*
X78100000Y3100000D01*
X78300000Y3100000D01*
X78300000Y3300000D01*
X78500000Y3300000D01*
X78500000Y3500000D01*
X78700000Y3500000D01*
X78700000Y3700000D01*
X78900000Y3700000D01*
X78900000Y3900000D01*
X79100000Y3900000D01*
X79100000Y4100000D01*
X79500000Y4100000D01*
X79500000Y4300000D01*
X80100000Y4300000D01*
X80100000Y37700000D01*
X79900000Y37700000D01*
X79900000Y38300000D01*
X79700000Y38300000D01*
X79700000Y38500000D01*
X79500000Y38500000D01*
X79500000Y38700000D01*
X79300000Y38700000D01*
X79300000Y38900000D01*
X78700000Y38900000D01*
X78700000Y39100000D01*
X69700000Y39100000D01*
X69700000Y52500000D01*
X69500000Y52500000D01*
X69500000Y53100000D01*
X69300000Y53100000D01*
X69300000Y53300000D01*
X69100000Y53300000D01*
X69100000Y53500000D01*
X68900000Y53500000D01*
X68900000Y53700000D01*
X68300000Y53700000D01*
X68300000Y56300000D01*
X68100000Y56300000D01*
X68100000Y56900000D01*
X67900000Y56900000D01*
X67900000Y57100000D01*
X67700000Y57100000D01*
X67700000Y57300000D01*
X67100000Y57300000D01*
X67100000Y58500000D01*
X66900000Y58500000D01*
X66900000Y59100000D01*
X66700000Y59100000D01*
X66700000Y59300000D01*
X66500000Y59300000D01*
X66500000Y59500000D01*
X66300000Y59500000D01*
X66300000Y59700000D01*
X65700000Y59700000D01*
X65700000Y59900000D01*
X58100000Y59900000D01*
X58100000Y57300000D01*
X58300000Y57300000D01*
X58300000Y56700000D01*
X58500000Y56700000D01*
X58500000Y56500000D01*
X58700000Y56500000D01*
X58700000Y56300000D01*
X58900000Y56300000D01*
X58900000Y56100000D01*
X59500000Y56100000D01*
X59500000Y55900000D01*
X62100000Y55900000D01*
X62100000Y51300000D01*
X61900000Y51300000D01*
X61900000Y50700000D01*
X61700000Y50700000D01*
X61700000Y50500000D01*
X61500000Y50500000D01*
X61500000Y50300000D01*
X61300000Y50300000D01*
X61300000Y50100000D01*
X60700000Y50100000D01*
X60700000Y49900000D01*
X57300000Y49900000D01*
X57300000Y41300000D01*
X57100000Y41300000D01*
X57100000Y40700000D01*
X56900000Y40700000D01*
X56900000Y40300000D01*
X56700000Y40300000D01*
X56700000Y40100000D01*
X56300000Y40100000D01*
X56300000Y39900000D01*
X56100000Y39900000D01*
X56100000Y37300000D01*
X55900000Y37300000D01*
X55900000Y36700000D01*
X55700000Y36700000D01*
X55700000Y36500000D01*
X55500000Y36500000D01*
X55500000Y36300000D01*
X54900000Y36300000D01*
X54900000Y36100000D01*
X48300000Y36100000D01*
X48300000Y34500000D01*
D12*
X47620000Y34000000D03*
D13*
X40000000Y27000000D03*
D12*
X52000000Y27000000D03*
D13*
X5000000Y32000000D03*
D13*
X5000000Y16000000D03*
D13*
X11000000Y16000000D03*
D13*
X16080000Y16000000D03*
D13*
X19000000Y16000000D03*
D12*
X45080000Y34000000D03*
D12*
X40000000Y34000000D03*
D13*
X19000000Y10000000D03*
D12*
X50160000Y34000000D03*
D12*
X42540000Y34000000D03*
D13*
X26620000Y10000000D03*
D13*
X19000000Y4000000D03*
D13*
X26620000Y4000000D03*
D13*
X33000000Y4000000D03*
D12*
X55240000Y34000000D03*
D13*
X42000000Y10000000D03*
D13*
X60000000Y16000000D03*
D12*
X52700000Y34000000D03*
D13*
X49620000Y10000000D03*
D13*
X42000000Y4000000D03*
D13*
X49620000Y4000000D03*
D13*
X56000000Y4000000D03*
D13*
X67620000Y16000000D03*
D13*
X60000000Y10000000D03*
D13*
X78000000Y32000000D03*
D13*
X5000000Y52000000D03*
D13*
X11000000Y52000000D03*
D13*
X16080000Y52000000D03*
D13*
X19000000Y52000000D03*
D12*
X50160000Y41620000D03*
D12*
X55240000Y41620000D03*
D13*
X19000000Y58000000D03*
D12*
X45080000Y41620000D03*
D12*
X52700000Y41620000D03*
D13*
X26620000Y58000000D03*
D13*
X19000000Y64000000D03*
D13*
X26620000Y64000000D03*
D13*
X33000000Y64000000D03*
D12*
X40000000Y41620000D03*
D13*
X42000000Y58000000D03*
D13*
X60000000Y52000000D03*
D12*
X42540000Y41620000D03*
D13*
X49620000Y58000000D03*
D13*
X42000000Y64000000D03*
D13*
X49620000Y64000000D03*
D13*
X56000000Y64000000D03*
D13*
X67620000Y52000000D03*
D13*
X60000000Y58000000D03*
D13*
X78000000Y34540000D03*
D12*
X47620000Y41620000D03*
D13*
X45080000Y27000000D03*
D12*
X54540000Y27000000D03*
D13*
X5000000Y34540000D03*
D13*
X78000000Y37080000D03*
D13*
X7540000Y16000000D03*
D13*
X38080000Y4000000D03*
D13*
X61080000Y4000000D03*
D13*
X65080000Y10000000D03*
D13*
X7540000Y52000000D03*
D13*
X38080000Y64000000D03*
D13*
X61080000Y64000000D03*
D13*
X65080000Y58000000D03*
D13*
X5000000Y37080000D03*
D13*
X26620000Y16000000D03*
D13*
X26620000Y52000000D03*
M02*
