%FSLAX46Y46*%
%MOMM*%
%TF.FileFunction,Legend,Top*%
%TF.Part,Single*%
%LPD*%
%ADD10C,0.2000*%
%ADD11C,0.1500*%
%ADD12C,0.3000*%
D10*
X-350000Y600000D02*
X3550000Y600000D01*
D10*
X1600000Y-1350000D02*
X1600000Y2550000D01*
D10*
X79450000Y600000D02*
X83350000Y600000D01*
D10*
X81400000Y-1350000D02*
X81400000Y2550000D01*
D10*
X-350000Y67400000D02*
X3550000Y67400000D01*
D10*
X1600000Y65450000D02*
X1600000Y69350000D01*
D10*
X79450000Y67400000D02*
X83350000Y67400000D01*
D10*
X81400000Y65450000D02*
X81400000Y69350000D01*
D11*
X38600000Y32600000D02*
X56640000Y32600000D01*
X56640000Y43020000D01*
X38600000Y43020000D01*
X38600000Y32600000D01*
D11*
X38400000Y25600000D02*
X46680000Y25600000D01*
X46680000Y28400000D01*
X38400000Y28400000D01*
X38400000Y25600000D01*
D11*
X50400000Y25600000D02*
X56140000Y25600000D01*
X56140000Y28400000D01*
X50400000Y28400000D01*
X50400000Y25600000D01*
D11*
X3600000Y30600000D02*
X6400000Y30600000D01*
X6400000Y38480000D01*
X3600000Y38480000D01*
X3600000Y30600000D01*
D11*
X76600000Y30600000D02*
X79400000Y30600000D01*
X79400000Y38480000D01*
X76600000Y38480000D01*
X76600000Y30600000D01*
D11*
X9400000Y14600000D02*
X17680000Y14600000D01*
X17680000Y17400000D01*
X9400000Y17400000D01*
X9400000Y14600000D01*
D11*
X17400000Y14600000D02*
X28220000Y14600000D01*
X28220000Y17400000D01*
X17400000Y17400000D01*
X17400000Y14600000D01*
D11*
X17400000Y8600000D02*
X28220000Y8600000D01*
X28220000Y11400000D01*
X17400000Y11400000D01*
X17400000Y8600000D01*
D11*
X17400000Y2600000D02*
X28220000Y2600000D01*
X28220000Y5400000D01*
X17400000Y5400000D01*
X17400000Y2600000D01*
D11*
X31400000Y2600000D02*
X39680000Y2600000D01*
X39680000Y5400000D01*
X31400000Y5400000D01*
X31400000Y2600000D01*
D11*
X40400000Y8600000D02*
X51220000Y8600000D01*
X51220000Y11400000D01*
X40400000Y11400000D01*
X40400000Y8600000D01*
D11*
X40400000Y2600000D02*
X51220000Y2600000D01*
X51220000Y5400000D01*
X40400000Y5400000D01*
X40400000Y2600000D01*
D11*
X54400000Y2600000D02*
X62680000Y2600000D01*
X62680000Y5400000D01*
X54400000Y5400000D01*
X54400000Y2600000D01*
D11*
X58400000Y14600000D02*
X69220000Y14600000D01*
X69220000Y17400000D01*
X58400000Y17400000D01*
X58400000Y14600000D01*
D11*
X58400000Y8600000D02*
X66680000Y8600000D01*
X66680000Y11400000D01*
X58400000Y11400000D01*
X58400000Y8600000D01*
D11*
X3600000Y14600000D02*
X8940000Y14600000D01*
X8940000Y17400000D01*
X3600000Y17400000D01*
X3600000Y14600000D01*
D11*
X9400000Y50600000D02*
X17680000Y50600000D01*
X17680000Y53400000D01*
X9400000Y53400000D01*
X9400000Y50600000D01*
D11*
X17400000Y50600000D02*
X28220000Y50600000D01*
X28220000Y53400000D01*
X17400000Y53400000D01*
X17400000Y50600000D01*
D11*
X17400000Y56600000D02*
X28220000Y56600000D01*
X28220000Y59400000D01*
X17400000Y59400000D01*
X17400000Y56600000D01*
D11*
X17400000Y62600000D02*
X28220000Y62600000D01*
X28220000Y65400000D01*
X17400000Y65400000D01*
X17400000Y62600000D01*
D11*
X31400000Y62600000D02*
X39680000Y62600000D01*
X39680000Y65400000D01*
X31400000Y65400000D01*
X31400000Y62600000D01*
D11*
X40400000Y56600000D02*
X51220000Y56600000D01*
X51220000Y59400000D01*
X40400000Y59400000D01*
X40400000Y56600000D01*
D11*
X40400000Y62600000D02*
X51220000Y62600000D01*
X51220000Y65400000D01*
X40400000Y65400000D01*
X40400000Y62600000D01*
D11*
X54400000Y62600000D02*
X62680000Y62600000D01*
X62680000Y65400000D01*
X54400000Y65400000D01*
X54400000Y62600000D01*
D11*
X58400000Y50600000D02*
X69220000Y50600000D01*
X69220000Y53400000D01*
X58400000Y53400000D01*
X58400000Y50600000D01*
D11*
X58400000Y56600000D02*
X66680000Y56600000D01*
X66680000Y59400000D01*
X58400000Y59400000D01*
X58400000Y56600000D01*
D11*
X3600000Y50600000D02*
X8940000Y50600000D01*
X8940000Y53400000D01*
X3600000Y53400000D01*
X3600000Y50600000D01*
D12*
X38400000Y34000000D02*
X38800000Y34000000D01*
D12*
X38400000Y27000000D02*
X38800000Y27000000D01*
D12*
X50400000Y27000000D02*
X50800000Y27000000D01*
D12*
X3400000Y32000000D02*
X3800000Y32000000D01*
D12*
X76400000Y32000000D02*
X76800000Y32000000D01*
D12*
X9400000Y16000000D02*
X9800000Y16000000D01*
D12*
X17400000Y16000000D02*
X17800000Y16000000D01*
D12*
X17400000Y10000000D02*
X17800000Y10000000D01*
D12*
X17400000Y4000000D02*
X17800000Y4000000D01*
D12*
X31400000Y4000000D02*
X31800000Y4000000D01*
D12*
X40400000Y10000000D02*
X40800000Y10000000D01*
D12*
X40400000Y4000000D02*
X40800000Y4000000D01*
D12*
X54400000Y4000000D02*
X54800000Y4000000D01*
D12*
X58400000Y16000000D02*
X58800000Y16000000D01*
D12*
X58400000Y10000000D02*
X58800000Y10000000D01*
D12*
X3400000Y16000000D02*
X3800000Y16000000D01*
D12*
X9400000Y52000000D02*
X9800000Y52000000D01*
D12*
X17400000Y52000000D02*
X17800000Y52000000D01*
D12*
X17400000Y58000000D02*
X17800000Y58000000D01*
D12*
X17400000Y64000000D02*
X17800000Y64000000D01*
D12*
X31400000Y64000000D02*
X31800000Y64000000D01*
D12*
X40400000Y58000000D02*
X40800000Y58000000D01*
D12*
X40400000Y64000000D02*
X40800000Y64000000D01*
D12*
X54400000Y64000000D02*
X54800000Y64000000D01*
D12*
X58400000Y52000000D02*
X58800000Y52000000D01*
D12*
X58400000Y58000000D02*
X58800000Y58000000D01*
D12*
X3400000Y52000000D02*
X3800000Y52000000D01*
M02*
