%FSLAX46Y46*%
%MOMM*%
%TF.FileFunction,Soldermask,Bot*%
%TF.Part,Single*%
%LPD*%
%ADD10C,1.8000*%
%ADD11C,1.9000*%
D10*
X47620000Y34000000D03*
D11*
X40000000Y27000000D03*
D10*
X52000000Y27000000D03*
D11*
X5000000Y32000000D03*
D11*
X5000000Y16000000D03*
D11*
X11000000Y16000000D03*
D11*
X16080000Y16000000D03*
D11*
X19000000Y16000000D03*
D10*
X45080000Y34000000D03*
D10*
X40000000Y34000000D03*
D11*
X19000000Y10000000D03*
D10*
X50160000Y34000000D03*
D10*
X42540000Y34000000D03*
D11*
X29160000Y10000000D03*
D11*
X19000000Y4000000D03*
D11*
X29160000Y4000000D03*
D11*
X33000000Y4000000D03*
D10*
X55240000Y34000000D03*
D11*
X42000000Y10000000D03*
D11*
X60000000Y16000000D03*
D10*
X52700000Y34000000D03*
D11*
X52160000Y10000000D03*
D11*
X42000000Y4000000D03*
D11*
X52160000Y4000000D03*
D11*
X56000000Y4000000D03*
D11*
X70160000Y16000000D03*
D11*
X60000000Y10000000D03*
D11*
X78000000Y32000000D03*
D11*
X5000000Y52000000D03*
D11*
X11000000Y52000000D03*
D11*
X16080000Y52000000D03*
D11*
X19000000Y52000000D03*
D10*
X50160000Y41620000D03*
D10*
X55240000Y41620000D03*
D11*
X19000000Y58000000D03*
D10*
X45080000Y41620000D03*
D10*
X52700000Y41620000D03*
D11*
X29160000Y58000000D03*
D11*
X19000000Y64000000D03*
D11*
X29160000Y64000000D03*
D11*
X33000000Y64000000D03*
D10*
X40000000Y41620000D03*
D11*
X42000000Y58000000D03*
D11*
X60000000Y52000000D03*
D10*
X42540000Y41620000D03*
D11*
X52160000Y58000000D03*
D11*
X42000000Y64000000D03*
D11*
X52160000Y64000000D03*
D11*
X56000000Y64000000D03*
D11*
X70160000Y52000000D03*
D11*
X60000000Y58000000D03*
D11*
X78000000Y34540000D03*
D10*
X47620000Y41620000D03*
D11*
X45080000Y27000000D03*
D10*
X54540000Y27000000D03*
D11*
X5000000Y34540000D03*
D11*
X78000000Y37080000D03*
D11*
X7540000Y16000000D03*
D11*
X38080000Y4000000D03*
D11*
X61080000Y4000000D03*
D11*
X65080000Y10000000D03*
D11*
X7540000Y52000000D03*
D11*
X38080000Y64000000D03*
D11*
X61080000Y64000000D03*
D11*
X65080000Y58000000D03*
D11*
X5000000Y37080000D03*
D11*
X29160000Y16000000D03*
D11*
X29160000Y52000000D03*
M02*
