%FSLAX46Y46*%
%MOMM*%
%TF.FileFunction,Copper,L2,Bot*%
%TF.Part,Single*%
%LPD*%
%ADD10C,0.4000*%
%ADD11C,0.8000*%
%ADD12C,1.7000*%
%ADD13C,1.8000*%
%LPD*%
G36*
X4500000Y-1300000D02*
X4700000Y-1100000D01*
X4700000Y-900000D01*
X4900000Y-700000D01*
X4900000Y-500000D01*
X5100000Y-300000D01*
X5100000Y1700000D01*
X4900000Y1900000D01*
X4900000Y2100000D01*
X4700000Y2300000D01*
X4700000Y2500000D01*
X3500000Y3700000D01*
X3300000Y3700000D01*
X3100000Y3900000D01*
X2900000Y3900000D01*
X2700000Y4100000D01*
X700000Y4100000D01*
X500000Y3900000D01*
X300000Y3900000D01*
X100000Y3700000D01*
X-100000Y3700000D01*
X-300000Y3500000D01*
X-300000Y64500000D01*
X-100000Y64300000D01*
X100000Y64300000D01*
X300000Y64100000D01*
X500000Y64100000D01*
X700000Y63900000D01*
X2700000Y63900000D01*
X2900000Y64100000D01*
X3100000Y64100000D01*
X3300000Y64300000D01*
X3500000Y64300000D01*
X4700000Y65500000D01*
X4700000Y65700000D01*
X4900000Y65900000D01*
X4900000Y66100000D01*
X5100000Y66300000D01*
X5100000Y68300000D01*
X4900000Y68500000D01*
X4900000Y68700000D01*
X4700000Y68900000D01*
X4700000Y69100000D01*
X78300000Y69100000D01*
X78300000Y68900000D01*
X78100000Y68700000D01*
X78100000Y68500000D01*
X77900000Y68300000D01*
X77900000Y66300000D01*
X78100000Y66100000D01*
X78100000Y65900000D01*
X78300000Y65700000D01*
X78300000Y65500000D01*
X79500000Y64300000D01*
X79700000Y64300000D01*
X79900000Y64100000D01*
X80100000Y64100000D01*
X80300000Y63900000D01*
X82300000Y63900000D01*
X82500000Y64100000D01*
X82700000Y64100000D01*
X82900000Y64300000D01*
X83100000Y64300000D01*
X83100000Y3700000D01*
X82900000Y3700000D01*
X82700000Y3900000D01*
X82500000Y3900000D01*
X82300000Y4100000D01*
X80300000Y4100000D01*
X80100000Y3900000D01*
X79900000Y3900000D01*
X79700000Y3700000D01*
X79500000Y3700000D01*
X78300000Y2500000D01*
X78300000Y2300000D01*
X78100000Y2100000D01*
X78100000Y1900000D01*
X77900000Y1700000D01*
X77900000Y-300000D01*
X78100000Y-500000D01*
X78100000Y-700000D01*
X78300000Y-900000D01*
X78300000Y-1100000D01*
X78500000Y-1300000D01*
X4500000Y-1300000D01*
G37*
%LPD*%
%LPC*%
G36*
X61900000Y64300000D02*
X62100000Y64100000D01*
X62500000Y64100000D01*
X62700000Y64300000D01*
X62700000Y64500000D01*
X62500000Y64700000D01*
X62500000Y64900000D01*
X62100000Y65300000D01*
X61900000Y65300000D01*
X61700000Y65500000D01*
X61500000Y65500000D01*
X61300000Y65300000D01*
X61300000Y64900000D01*
X61500000Y64700000D01*
X61700000Y64700000D01*
X61900000Y64500000D01*
X61900000Y64300000D01*
G37*
%LPD*%
%LPC*%
G36*
X59500000Y64300000D02*
X59700000Y64100000D01*
X60100000Y64100000D01*
X60300000Y64300000D01*
X60300000Y64500000D01*
X60500000Y64700000D01*
X60700000Y64700000D01*
X60900000Y64900000D01*
X60900000Y65300000D01*
X60700000Y65500000D01*
X60500000Y65500000D01*
X60300000Y65300000D01*
X60100000Y65300000D01*
X59700000Y64900000D01*
X59700000Y64700000D01*
X59500000Y64500000D01*
X59500000Y64300000D01*
G37*
%LPD*%
%LPC*%
G36*
X38900000Y64300000D02*
X39100000Y64100000D01*
X39500000Y64100000D01*
X39700000Y64300000D01*
X39700000Y64500000D01*
X39500000Y64700000D01*
X39500000Y64900000D01*
X39100000Y65300000D01*
X38900000Y65300000D01*
X38700000Y65500000D01*
X38500000Y65500000D01*
X38300000Y65300000D01*
X38300000Y64900000D01*
X38500000Y64700000D01*
X38700000Y64700000D01*
X38900000Y64500000D01*
X38900000Y64300000D01*
G37*
%LPD*%
%LPC*%
G36*
X36500000Y64300000D02*
X36700000Y64100000D01*
X37100000Y64100000D01*
X37300000Y64300000D01*
X37300000Y64500000D01*
X37500000Y64700000D01*
X37700000Y64700000D01*
X37900000Y64900000D01*
X37900000Y65300000D01*
X37700000Y65500000D01*
X37500000Y65500000D01*
X37300000Y65300000D01*
X37100000Y65300000D01*
X36700000Y64900000D01*
X36700000Y64700000D01*
X36500000Y64500000D01*
X36500000Y64300000D01*
G37*
%LPD*%
%LPC*%
G36*
X61300000Y62500000D02*
X61500000Y62300000D01*
X61700000Y62300000D01*
X61900000Y62500000D01*
X62100000Y62500000D01*
X62500000Y62900000D01*
X62500000Y63100000D01*
X62700000Y63300000D01*
X62700000Y63500000D01*
X62500000Y63700000D01*
X62100000Y63700000D01*
X61900000Y63500000D01*
X61900000Y63300000D01*
X61700000Y63100000D01*
X61500000Y63100000D01*
X61300000Y62900000D01*
X61300000Y62500000D01*
G37*
%LPD*%
%LPC*%
G36*
X60300000Y62500000D02*
X60500000Y62300000D01*
X60700000Y62300000D01*
X60900000Y62500000D01*
X60900000Y62900000D01*
X60700000Y63100000D01*
X60500000Y63100000D01*
X60300000Y63300000D01*
X60300000Y63500000D01*
X60100000Y63700000D01*
X59700000Y63700000D01*
X59500000Y63500000D01*
X59500000Y63300000D01*
X59700000Y63100000D01*
X59700000Y62900000D01*
X60100000Y62500000D01*
X60300000Y62500000D01*
G37*
%LPD*%
%LPC*%
G36*
X55500000Y62500000D02*
X55700000Y62300000D01*
X56500000Y62300000D01*
X56700000Y62500000D01*
X56900000Y62500000D01*
X57500000Y63100000D01*
X57500000Y63300000D01*
X57700000Y63500000D01*
X57700000Y64300000D01*
X57500000Y64500000D01*
X57500000Y64700000D01*
X56900000Y65300000D01*
X56700000Y65300000D01*
X56500000Y65500000D01*
X55700000Y65500000D01*
X55500000Y65300000D01*
X55300000Y65300000D01*
X54700000Y64700000D01*
X54700000Y64500000D01*
X54500000Y64300000D01*
X54500000Y63500000D01*
X54700000Y63300000D01*
X54700000Y63100000D01*
X55300000Y62500000D01*
X55500000Y62500000D01*
G37*
%LPD*%
%LPC*%
G36*
X49100000Y62500000D02*
X49300000Y62300000D01*
X50100000Y62300000D01*
X50300000Y62500000D01*
X50500000Y62500000D01*
X51100000Y63100000D01*
X51100000Y63300000D01*
X51300000Y63500000D01*
X51300000Y64300000D01*
X51100000Y64500000D01*
X51100000Y64700000D01*
X50500000Y65300000D01*
X50300000Y65300000D01*
X50100000Y65500000D01*
X49300000Y65500000D01*
X49100000Y65300000D01*
X48900000Y65300000D01*
X48300000Y64700000D01*
X48300000Y64500000D01*
X48100000Y64300000D01*
X48100000Y63500000D01*
X48300000Y63300000D01*
X48300000Y63100000D01*
X48900000Y62500000D01*
X49100000Y62500000D01*
G37*
%LPD*%
%LPC*%
G36*
X41300000Y62500000D02*
X41500000Y62300000D01*
X42300000Y62300000D01*
X42500000Y62500000D01*
X42700000Y62500000D01*
X43300000Y63100000D01*
X43300000Y63300000D01*
X43500000Y63500000D01*
X43500000Y64300000D01*
X43300000Y64500000D01*
X43300000Y64700000D01*
X42700000Y65300000D01*
X42500000Y65300000D01*
X42300000Y65500000D01*
X41500000Y65500000D01*
X41300000Y65300000D01*
X41100000Y65300000D01*
X40500000Y64700000D01*
X40500000Y64500000D01*
X40300000Y64300000D01*
X40300000Y63500000D01*
X40500000Y63300000D01*
X40500000Y63100000D01*
X41100000Y62500000D01*
X41300000Y62500000D01*
G37*
%LPD*%
%LPC*%
G36*
X38300000Y62500000D02*
X38500000Y62300000D01*
X38700000Y62300000D01*
X38900000Y62500000D01*
X39100000Y62500000D01*
X39500000Y62900000D01*
X39500000Y63100000D01*
X39700000Y63300000D01*
X39700000Y63500000D01*
X39500000Y63700000D01*
X39100000Y63700000D01*
X38900000Y63500000D01*
X38900000Y63300000D01*
X38700000Y63100000D01*
X38500000Y63100000D01*
X38300000Y62900000D01*
X38300000Y62500000D01*
G37*
%LPD*%
%LPC*%
G36*
X37300000Y62500000D02*
X37500000Y62300000D01*
X37700000Y62300000D01*
X37900000Y62500000D01*
X37900000Y62900000D01*
X37700000Y63100000D01*
X37500000Y63100000D01*
X37300000Y63300000D01*
X37300000Y63500000D01*
X37100000Y63700000D01*
X36700000Y63700000D01*
X36500000Y63500000D01*
X36500000Y63300000D01*
X36700000Y63100000D01*
X36700000Y62900000D01*
X37100000Y62500000D01*
X37300000Y62500000D01*
G37*
%LPD*%
%LPC*%
G36*
X32300000Y62500000D02*
X32500000Y62300000D01*
X33300000Y62300000D01*
X33500000Y62500000D01*
X33700000Y62500000D01*
X34300000Y63100000D01*
X34300000Y63300000D01*
X34500000Y63500000D01*
X34500000Y64300000D01*
X34300000Y64500000D01*
X34300000Y64700000D01*
X33700000Y65300000D01*
X33500000Y65300000D01*
X33300000Y65500000D01*
X32500000Y65500000D01*
X32300000Y65300000D01*
X32100000Y65300000D01*
X31500000Y64700000D01*
X31500000Y64500000D01*
X31300000Y64300000D01*
X31300000Y63500000D01*
X31500000Y63300000D01*
X31500000Y63100000D01*
X32100000Y62500000D01*
X32300000Y62500000D01*
G37*
%LPD*%
%LPC*%
G36*
X26100000Y62500000D02*
X26300000Y62300000D01*
X27100000Y62300000D01*
X27300000Y62500000D01*
X27500000Y62500000D01*
X28100000Y63100000D01*
X28100000Y63300000D01*
X28300000Y63500000D01*
X28300000Y64300000D01*
X28100000Y64500000D01*
X28100000Y64700000D01*
X27500000Y65300000D01*
X27300000Y65300000D01*
X27100000Y65500000D01*
X26300000Y65500000D01*
X26100000Y65300000D01*
X25900000Y65300000D01*
X25300000Y64700000D01*
X25300000Y64500000D01*
X25100000Y64300000D01*
X25100000Y63500000D01*
X25300000Y63300000D01*
X25300000Y63100000D01*
X25900000Y62500000D01*
X26100000Y62500000D01*
G37*
%LPD*%
%LPC*%
G36*
X18300000Y62500000D02*
X18500000Y62300000D01*
X19300000Y62300000D01*
X19500000Y62500000D01*
X19700000Y62500000D01*
X20300000Y63100000D01*
X20300000Y63300000D01*
X20500000Y63500000D01*
X20500000Y64300000D01*
X20300000Y64500000D01*
X20300000Y64700000D01*
X19700000Y65300000D01*
X19500000Y65300000D01*
X19300000Y65500000D01*
X18500000Y65500000D01*
X18300000Y65300000D01*
X18100000Y65300000D01*
X17500000Y64700000D01*
X17500000Y64500000D01*
X17300000Y64300000D01*
X17300000Y63500000D01*
X17500000Y63300000D01*
X17500000Y63100000D01*
X18100000Y62500000D01*
X18300000Y62500000D01*
G37*
%LPD*%
%LPC*%
G36*
X65900000Y58300000D02*
X66100000Y58100000D01*
X66500000Y58100000D01*
X66700000Y58300000D01*
X66700000Y58500000D01*
X66500000Y58700000D01*
X66500000Y58900000D01*
X66100000Y59300000D01*
X65900000Y59300000D01*
X65700000Y59500000D01*
X65500000Y59500000D01*
X65300000Y59300000D01*
X65300000Y58900000D01*
X65500000Y58700000D01*
X65700000Y58700000D01*
X65900000Y58500000D01*
X65900000Y58300000D01*
G37*
%LPD*%
%LPC*%
G36*
X63500000Y58300000D02*
X63700000Y58100000D01*
X64100000Y58100000D01*
X64300000Y58300000D01*
X64300000Y58500000D01*
X64500000Y58700000D01*
X64700000Y58700000D01*
X64900000Y58900000D01*
X64900000Y59300000D01*
X64700000Y59500000D01*
X64500000Y59500000D01*
X64300000Y59300000D01*
X64100000Y59300000D01*
X63700000Y58900000D01*
X63700000Y58700000D01*
X63500000Y58500000D01*
X63500000Y58300000D01*
G37*
%LPD*%
%LPC*%
G36*
X65300000Y56500000D02*
X65500000Y56300000D01*
X65700000Y56300000D01*
X65900000Y56500000D01*
X66100000Y56500000D01*
X66500000Y56900000D01*
X66500000Y57100000D01*
X66700000Y57300000D01*
X66700000Y57500000D01*
X66500000Y57700000D01*
X66100000Y57700000D01*
X65900000Y57500000D01*
X65900000Y57300000D01*
X65700000Y57100000D01*
X65500000Y57100000D01*
X65300000Y56900000D01*
X65300000Y56500000D01*
G37*
%LPD*%
%LPC*%
G36*
X64300000Y56500000D02*
X64500000Y56300000D01*
X64700000Y56300000D01*
X64900000Y56500000D01*
X64900000Y56900000D01*
X64700000Y57100000D01*
X64500000Y57100000D01*
X64300000Y57300000D01*
X64300000Y57500000D01*
X64100000Y57700000D01*
X63700000Y57700000D01*
X63500000Y57500000D01*
X63500000Y57300000D01*
X63700000Y57100000D01*
X63700000Y56900000D01*
X64100000Y56500000D01*
X64300000Y56500000D01*
G37*
%LPD*%
%LPC*%
G36*
X59500000Y56500000D02*
X59700000Y56300000D01*
X60500000Y56300000D01*
X60700000Y56500000D01*
X60900000Y56500000D01*
X61500000Y57100000D01*
X61500000Y57300000D01*
X61700000Y57500000D01*
X61700000Y58300000D01*
X61500000Y58500000D01*
X61500000Y58700000D01*
X60900000Y59300000D01*
X60700000Y59300000D01*
X60500000Y59500000D01*
X59700000Y59500000D01*
X59500000Y59300000D01*
X59300000Y59300000D01*
X58700000Y58700000D01*
X58700000Y58500000D01*
X58500000Y58300000D01*
X58500000Y57500000D01*
X58700000Y57300000D01*
X58700000Y57100000D01*
X59300000Y56500000D01*
X59500000Y56500000D01*
G37*
%LPD*%
%LPC*%
G36*
X49100000Y56500000D02*
X49300000Y56300000D01*
X50100000Y56300000D01*
X50300000Y56500000D01*
X50500000Y56500000D01*
X51100000Y57100000D01*
X51100000Y57300000D01*
X51300000Y57500000D01*
X51300000Y58300000D01*
X51100000Y58500000D01*
X51100000Y58700000D01*
X50500000Y59300000D01*
X50300000Y59300000D01*
X50100000Y59500000D01*
X49300000Y59500000D01*
X49100000Y59300000D01*
X48900000Y59300000D01*
X48300000Y58700000D01*
X48300000Y58500000D01*
X48100000Y58300000D01*
X48100000Y57500000D01*
X48300000Y57300000D01*
X48300000Y57100000D01*
X48900000Y56500000D01*
X49100000Y56500000D01*
G37*
%LPD*%
%LPC*%
G36*
X41300000Y56500000D02*
X41500000Y56300000D01*
X42300000Y56300000D01*
X42500000Y56500000D01*
X42700000Y56500000D01*
X43300000Y57100000D01*
X43300000Y57300000D01*
X43500000Y57500000D01*
X43500000Y58300000D01*
X43300000Y58500000D01*
X43300000Y58700000D01*
X42700000Y59300000D01*
X42500000Y59300000D01*
X42300000Y59500000D01*
X41500000Y59500000D01*
X41300000Y59300000D01*
X41100000Y59300000D01*
X40500000Y58700000D01*
X40500000Y58500000D01*
X40300000Y58300000D01*
X40300000Y57500000D01*
X40500000Y57300000D01*
X40500000Y57100000D01*
X41100000Y56500000D01*
X41300000Y56500000D01*
G37*
%LPD*%
%LPC*%
G36*
X26100000Y56500000D02*
X26300000Y56300000D01*
X27100000Y56300000D01*
X27300000Y56500000D01*
X27500000Y56500000D01*
X28100000Y57100000D01*
X28100000Y57300000D01*
X28300000Y57500000D01*
X28300000Y58300000D01*
X28100000Y58500000D01*
X28100000Y58700000D01*
X27500000Y59300000D01*
X27300000Y59300000D01*
X27100000Y59500000D01*
X26300000Y59500000D01*
X26100000Y59300000D01*
X25900000Y59300000D01*
X25300000Y58700000D01*
X25300000Y58500000D01*
X25100000Y58300000D01*
X25100000Y57500000D01*
X25300000Y57300000D01*
X25300000Y57100000D01*
X25900000Y56500000D01*
X26100000Y56500000D01*
G37*
%LPD*%
%LPC*%
G36*
X18300000Y56500000D02*
X18500000Y56300000D01*
X19300000Y56300000D01*
X19500000Y56500000D01*
X19700000Y56500000D01*
X20300000Y57100000D01*
X20300000Y57300000D01*
X20500000Y57500000D01*
X20500000Y58300000D01*
X20300000Y58500000D01*
X20300000Y58700000D01*
X19700000Y59300000D01*
X19500000Y59300000D01*
X19300000Y59500000D01*
X18500000Y59500000D01*
X18300000Y59300000D01*
X18100000Y59300000D01*
X17500000Y58700000D01*
X17500000Y58500000D01*
X17300000Y58300000D01*
X17300000Y57500000D01*
X17500000Y57300000D01*
X17500000Y57100000D01*
X18100000Y56500000D01*
X18300000Y56500000D01*
G37*
%LPD*%
%LPC*%
G36*
X8300000Y52300000D02*
X8500000Y52100000D01*
X8900000Y52100000D01*
X9100000Y52300000D01*
X9100000Y52500000D01*
X8900000Y52700000D01*
X8900000Y52900000D01*
X8500000Y53300000D01*
X8300000Y53300000D01*
X8100000Y53500000D01*
X7900000Y53500000D01*
X7700000Y53300000D01*
X7700000Y52900000D01*
X7900000Y52700000D01*
X8100000Y52700000D01*
X8300000Y52500000D01*
X8300000Y52300000D01*
G37*
%LPD*%
%LPC*%
G36*
X67100000Y50500000D02*
X67300000Y50300000D01*
X68100000Y50300000D01*
X68300000Y50500000D01*
X68500000Y50500000D01*
X69100000Y51100000D01*
X69100000Y51300000D01*
X69300000Y51500000D01*
X69300000Y52300000D01*
X69100000Y52500000D01*
X69100000Y52700000D01*
X68500000Y53300000D01*
X68300000Y53300000D01*
X68100000Y53500000D01*
X67300000Y53500000D01*
X67100000Y53300000D01*
X66900000Y53300000D01*
X66300000Y52700000D01*
X66300000Y52500000D01*
X66100000Y52300000D01*
X66100000Y51500000D01*
X66300000Y51300000D01*
X66300000Y51100000D01*
X66900000Y50500000D01*
X67100000Y50500000D01*
G37*
%LPD*%
%LPC*%
G36*
X59500000Y50500000D02*
X59700000Y50300000D01*
X60500000Y50300000D01*
X60700000Y50500000D01*
X60900000Y50500000D01*
X61500000Y51100000D01*
X61500000Y51300000D01*
X61700000Y51500000D01*
X61700000Y52300000D01*
X61500000Y52500000D01*
X61500000Y52700000D01*
X60900000Y53300000D01*
X60700000Y53300000D01*
X60500000Y53500000D01*
X59700000Y53500000D01*
X59500000Y53300000D01*
X59300000Y53300000D01*
X58700000Y52700000D01*
X58700000Y52500000D01*
X58500000Y52300000D01*
X58500000Y51500000D01*
X58700000Y51300000D01*
X58700000Y51100000D01*
X59300000Y50500000D01*
X59500000Y50500000D01*
G37*
%LPD*%
%LPC*%
G36*
X26100000Y50500000D02*
X26300000Y50300000D01*
X27100000Y50300000D01*
X27300000Y50500000D01*
X27500000Y50500000D01*
X28100000Y51100000D01*
X28100000Y51300000D01*
X28300000Y51500000D01*
X28300000Y52300000D01*
X28100000Y52500000D01*
X28100000Y52700000D01*
X27500000Y53300000D01*
X27300000Y53300000D01*
X27100000Y53500000D01*
X26300000Y53500000D01*
X26100000Y53300000D01*
X25900000Y53300000D01*
X25300000Y52700000D01*
X25300000Y52500000D01*
X25100000Y52300000D01*
X25100000Y51500000D01*
X25300000Y51300000D01*
X25300000Y51100000D01*
X25900000Y50500000D01*
X26100000Y50500000D01*
G37*
%LPD*%
%LPC*%
G36*
X10300000Y50500000D02*
X10500000Y50300000D01*
X11300000Y50300000D01*
X11500000Y50500000D01*
X11700000Y50500000D01*
X12300000Y51100000D01*
X12300000Y51300000D01*
X12500000Y51500000D01*
X12500000Y52300000D01*
X12300000Y52500000D01*
X12300000Y52700000D01*
X11700000Y53300000D01*
X11500000Y53300000D01*
X11300000Y53500000D01*
X10500000Y53500000D01*
X10300000Y53300000D01*
X10100000Y53300000D01*
X9500000Y52700000D01*
X9500000Y52500000D01*
X9300000Y52300000D01*
X9300000Y51500000D01*
X9500000Y51300000D01*
X9500000Y51100000D01*
X10100000Y50500000D01*
X10300000Y50500000D01*
G37*
%LPD*%
%LPC*%
G36*
X7700000Y50500000D02*
X7900000Y50300000D01*
X8100000Y50300000D01*
X8300000Y50500000D01*
X8500000Y50500000D01*
X8900000Y50900000D01*
X8900000Y51100000D01*
X9100000Y51300000D01*
X9100000Y51500000D01*
X8900000Y51700000D01*
X8500000Y51700000D01*
X8300000Y51500000D01*
X8300000Y51300000D01*
X8100000Y51100000D01*
X7900000Y51100000D01*
X7700000Y50900000D01*
X7700000Y50500000D01*
G37*
%LPD*%
%LPC*%
G36*
X4300000Y50500000D02*
X4500000Y50300000D01*
X5300000Y50300000D01*
X5500000Y50500000D01*
X5700000Y50500000D01*
X6100000Y50900000D01*
X6500000Y50500000D01*
X6700000Y50500000D01*
X6900000Y50300000D01*
X7100000Y50300000D01*
X7300000Y50500000D01*
X7300000Y50900000D01*
X7100000Y51100000D01*
X6900000Y51100000D01*
X6700000Y51300000D01*
X6700000Y51500000D01*
X6500000Y51700000D01*
X6500000Y52100000D01*
X6700000Y52300000D01*
X6700000Y52500000D01*
X6900000Y52700000D01*
X7100000Y52700000D01*
X7300000Y52900000D01*
X7300000Y53300000D01*
X7100000Y53500000D01*
X6900000Y53500000D01*
X6700000Y53300000D01*
X6500000Y53300000D01*
X6100000Y52900000D01*
X5700000Y53300000D01*
X5500000Y53300000D01*
X5300000Y53500000D01*
X4500000Y53500000D01*
X4300000Y53300000D01*
X4100000Y53300000D01*
X3500000Y52700000D01*
X3500000Y52500000D01*
X3300000Y52300000D01*
X3300000Y51500000D01*
X3500000Y51300000D01*
X3500000Y51100000D01*
X4100000Y50500000D01*
X4300000Y50500000D01*
G37*
%LPD*%
%LPC*%
G36*
X39500000Y40300000D02*
X39700000Y40100000D01*
X40100000Y40100000D01*
X40300000Y40300000D01*
X40500000Y40300000D01*
X40700000Y40500000D01*
X40900000Y40500000D01*
X41100000Y40700000D01*
X41100000Y40900000D01*
X41300000Y40900000D01*
X41300000Y40700000D01*
X41500000Y40500000D01*
X41700000Y40500000D01*
X41900000Y40300000D01*
X42100000Y40300000D01*
X42300000Y40100000D01*
X42700000Y40100000D01*
X42900000Y40300000D01*
X43100000Y40300000D01*
X43300000Y40500000D01*
X43500000Y40500000D01*
X43700000Y40700000D01*
X43700000Y40900000D01*
X43900000Y40900000D01*
X43900000Y40700000D01*
X44100000Y40500000D01*
X44300000Y40500000D01*
X44500000Y40300000D01*
X44700000Y40300000D01*
X44900000Y40100000D01*
X45300000Y40100000D01*
X45500000Y40300000D01*
X45700000Y40300000D01*
X45900000Y40500000D01*
X46100000Y40500000D01*
X46300000Y40700000D01*
X46300000Y40900000D01*
X47100000Y40100000D01*
X47300000Y40100000D01*
X47500000Y40300000D01*
X47500000Y40700000D01*
X47300000Y40900000D01*
X47100000Y40900000D01*
X46900000Y41100000D01*
X46900000Y41300000D01*
X46700000Y41500000D01*
X46700000Y41900000D01*
X46900000Y42100000D01*
X46900000Y42300000D01*
X47100000Y42500000D01*
X47900000Y42500000D01*
X48100000Y42300000D01*
X48300000Y42300000D01*
X48300000Y42100000D01*
X48500000Y41900000D01*
X48500000Y41100000D01*
X48300000Y40900000D01*
X48100000Y40900000D01*
X47900000Y40700000D01*
X47900000Y40300000D01*
X48100000Y40100000D01*
X48300000Y40100000D01*
X48900000Y40700000D01*
X49100000Y40500000D01*
X49300000Y40500000D01*
X49500000Y40300000D01*
X49700000Y40300000D01*
X49900000Y40100000D01*
X50300000Y40100000D01*
X50500000Y40300000D01*
X50700000Y40300000D01*
X50900000Y40500000D01*
X51100000Y40500000D01*
X51300000Y40700000D01*
X51300000Y40900000D01*
X51500000Y40900000D01*
X51500000Y40700000D01*
X51700000Y40500000D01*
X51900000Y40500000D01*
X52100000Y40300000D01*
X52300000Y40300000D01*
X52500000Y40100000D01*
X52900000Y40100000D01*
X53100000Y40300000D01*
X53300000Y40300000D01*
X53500000Y40500000D01*
X53700000Y40500000D01*
X53900000Y40700000D01*
X53900000Y40900000D01*
X54100000Y40900000D01*
X54100000Y40700000D01*
X54300000Y40500000D01*
X54500000Y40500000D01*
X54700000Y40300000D01*
X54900000Y40300000D01*
X55100000Y40100000D01*
X55500000Y40100000D01*
X55700000Y40300000D01*
X55900000Y40300000D01*
X56100000Y40500000D01*
X56300000Y40500000D01*
X56500000Y40700000D01*
X56500000Y40900000D01*
X56700000Y41100000D01*
X56700000Y41300000D01*
X56900000Y41500000D01*
X56900000Y41900000D01*
X56700000Y42100000D01*
X56700000Y42300000D01*
X56500000Y42500000D01*
X56500000Y42700000D01*
X56300000Y42900000D01*
X56100000Y42900000D01*
X55900000Y43100000D01*
X55700000Y43100000D01*
X55500000Y43300000D01*
X55100000Y43300000D01*
X54900000Y43100000D01*
X54700000Y43100000D01*
X54500000Y42900000D01*
X54300000Y42900000D01*
X54100000Y42700000D01*
X54100000Y42500000D01*
X53900000Y42500000D01*
X53900000Y42700000D01*
X53700000Y42900000D01*
X53500000Y42900000D01*
X53300000Y43100000D01*
X53100000Y43100000D01*
X52900000Y43300000D01*
X52500000Y43300000D01*
X52300000Y43100000D01*
X52100000Y43100000D01*
X51900000Y42900000D01*
X51700000Y42900000D01*
X51500000Y42700000D01*
X51500000Y42500000D01*
X51300000Y42500000D01*
X51300000Y42700000D01*
X51100000Y42900000D01*
X50900000Y42900000D01*
X50700000Y43100000D01*
X50500000Y43100000D01*
X50300000Y43300000D01*
X49900000Y43300000D01*
X49300000Y43900000D01*
X49100000Y43900000D01*
X48900000Y44100000D01*
X48700000Y44100000D01*
X48500000Y44300000D01*
X48300000Y44300000D01*
X48100000Y44500000D01*
X20300000Y44500000D01*
X20300000Y51300000D01*
X20500000Y51500000D01*
X20500000Y52300000D01*
X20300000Y52500000D01*
X20300000Y52700000D01*
X19700000Y53300000D01*
X19500000Y53300000D01*
X19300000Y53500000D01*
X18500000Y53500000D01*
X18300000Y53300000D01*
X18100000Y53300000D01*
X17500000Y52700000D01*
X17500000Y52500000D01*
X17500000Y52700000D01*
X16900000Y53300000D01*
X16700000Y53300000D01*
X16500000Y53500000D01*
X15700000Y53500000D01*
X15500000Y53300000D01*
X15300000Y53300000D01*
X14700000Y52700000D01*
X14700000Y52500000D01*
X14500000Y52300000D01*
X14500000Y51500000D01*
X14700000Y51300000D01*
X14700000Y51100000D01*
X15300000Y50500000D01*
X15500000Y50500000D01*
X15700000Y50300000D01*
X16500000Y50300000D01*
X16700000Y50500000D01*
X16900000Y50500000D01*
X17500000Y51100000D01*
X17500000Y51300000D01*
X17500000Y51100000D01*
X18100000Y50500000D01*
X18300000Y50500000D01*
X18300000Y43500000D01*
X18500000Y43300000D01*
X18500000Y43100000D01*
X18900000Y42700000D01*
X19100000Y42700000D01*
X19300000Y42500000D01*
X38700000Y42500000D01*
X38500000Y42300000D01*
X38500000Y42100000D01*
X38300000Y41900000D01*
X38300000Y41500000D01*
X38500000Y41300000D01*
X38500000Y41100000D01*
X38700000Y40900000D01*
X38700000Y40700000D01*
X38900000Y40500000D01*
X39100000Y40500000D01*
X39300000Y40300000D01*
X39500000Y40300000D01*
G37*
%LPD*%
%LPC*%
G36*
X78900000Y37500000D02*
X79100000Y37300000D01*
X79500000Y37300000D01*
X79700000Y37500000D01*
X79700000Y37700000D01*
X79500000Y37900000D01*
X79500000Y38100000D01*
X79100000Y38500000D01*
X78900000Y38500000D01*
X78700000Y38700000D01*
X78500000Y38700000D01*
X78300000Y38500000D01*
X78300000Y38100000D01*
X78500000Y37900000D01*
X78700000Y37900000D01*
X78900000Y37700000D01*
X78900000Y37500000D01*
G37*
%LPD*%
%LPC*%
G36*
X76500000Y37500000D02*
X76700000Y37300000D01*
X77100000Y37300000D01*
X77300000Y37500000D01*
X77300000Y37700000D01*
X77500000Y37900000D01*
X77700000Y37900000D01*
X77900000Y38100000D01*
X77900000Y38500000D01*
X77700000Y38700000D01*
X77500000Y38700000D01*
X77300000Y38500000D01*
X77100000Y38500000D01*
X76700000Y38100000D01*
X76700000Y37900000D01*
X76500000Y37700000D01*
X76500000Y37500000D01*
G37*
%LPD*%
%LPC*%
G36*
X3300000Y34900000D02*
X3500000Y34700000D01*
X3900000Y34700000D01*
X4100000Y34900000D01*
X4100000Y35100000D01*
X4300000Y35300000D01*
X4500000Y35300000D01*
X4700000Y35500000D01*
X5100000Y35500000D01*
X5300000Y35300000D01*
X5500000Y35300000D01*
X5700000Y35100000D01*
X5700000Y34900000D01*
X5900000Y34700000D01*
X6300000Y34700000D01*
X6500000Y34900000D01*
X6500000Y35100000D01*
X6300000Y35300000D01*
X6300000Y35500000D01*
X5900000Y35900000D01*
X6300000Y36300000D01*
X6300000Y36500000D01*
X6500000Y36700000D01*
X6500000Y37500000D01*
X6300000Y37700000D01*
X6300000Y37900000D01*
X5700000Y38500000D01*
X5500000Y38500000D01*
X5300000Y38700000D01*
X4500000Y38700000D01*
X4300000Y38500000D01*
X4100000Y38500000D01*
X3500000Y37900000D01*
X3500000Y37700000D01*
X3300000Y37500000D01*
X3300000Y36700000D01*
X3500000Y36500000D01*
X3500000Y36300000D01*
X3900000Y35900000D01*
X3500000Y35500000D01*
X3500000Y35300000D01*
X3300000Y35100000D01*
X3300000Y34900000D01*
G37*
%LPD*%
%LPC*%
G36*
X77500000Y30500000D02*
X77700000Y30300000D01*
X78500000Y30300000D01*
X78700000Y30500000D01*
X78900000Y30500000D01*
X79500000Y31100000D01*
X79500000Y31300000D01*
X79700000Y31500000D01*
X79700000Y32300000D01*
X79500000Y32500000D01*
X79500000Y32700000D01*
X79100000Y33100000D01*
X79100000Y33300000D01*
X79500000Y33700000D01*
X79500000Y33900000D01*
X79700000Y34100000D01*
X79700000Y34900000D01*
X79500000Y35100000D01*
X79500000Y35300000D01*
X79100000Y35700000D01*
X79500000Y36100000D01*
X79500000Y36300000D01*
X79700000Y36500000D01*
X79700000Y36700000D01*
X79500000Y36900000D01*
X79100000Y36900000D01*
X78900000Y36700000D01*
X78900000Y36500000D01*
X78700000Y36300000D01*
X78500000Y36300000D01*
X78300000Y36100000D01*
X77900000Y36100000D01*
X77700000Y36300000D01*
X77500000Y36300000D01*
X77300000Y36500000D01*
X77300000Y36700000D01*
X77100000Y36900000D01*
X76700000Y36900000D01*
X76500000Y36700000D01*
X76500000Y36500000D01*
X76700000Y36300000D01*
X76700000Y36100000D01*
X77100000Y35700000D01*
X76700000Y35300000D01*
X76700000Y35100000D01*
X76500000Y34900000D01*
X76500000Y34100000D01*
X76700000Y33900000D01*
X76700000Y33700000D01*
X77100000Y33300000D01*
X77100000Y33100000D01*
X76700000Y32700000D01*
X76700000Y32500000D01*
X76500000Y32300000D01*
X76500000Y31500000D01*
X76700000Y31300000D01*
X76700000Y31100000D01*
X77300000Y30500000D01*
X77500000Y30500000D01*
G37*
%LPD*%
%LPC*%
G36*
X4300000Y30500000D02*
X4500000Y30300000D01*
X5300000Y30300000D01*
X5500000Y30500000D01*
X5700000Y30500000D01*
X6300000Y31100000D01*
X6300000Y31300000D01*
X6500000Y31500000D01*
X6500000Y32300000D01*
X6300000Y32500000D01*
X6300000Y32700000D01*
X5900000Y33100000D01*
X6300000Y33500000D01*
X6300000Y33700000D01*
X6500000Y33900000D01*
X6500000Y34100000D01*
X6300000Y34300000D01*
X5900000Y34300000D01*
X5700000Y34100000D01*
X5700000Y33900000D01*
X5500000Y33700000D01*
X5300000Y33700000D01*
X5100000Y33500000D01*
X4700000Y33500000D01*
X4500000Y33700000D01*
X4300000Y33700000D01*
X4100000Y33900000D01*
X4100000Y34100000D01*
X3900000Y34300000D01*
X3500000Y34300000D01*
X3300000Y34100000D01*
X3300000Y33900000D01*
X3500000Y33700000D01*
X3500000Y33500000D01*
X3900000Y33100000D01*
X3500000Y32700000D01*
X3500000Y32500000D01*
X3300000Y32300000D01*
X3300000Y31500000D01*
X3500000Y31300000D01*
X3500000Y31100000D01*
X4100000Y30500000D01*
X4300000Y30500000D01*
G37*
%LPD*%
%LPC*%
G36*
X55300000Y27300000D02*
X55500000Y27100000D01*
X55900000Y27100000D01*
X56100000Y27300000D01*
X56100000Y27500000D01*
X55100000Y28500000D01*
X54900000Y28500000D01*
X54700000Y28300000D01*
X54700000Y27900000D01*
X54900000Y27700000D01*
X55100000Y27700000D01*
X55300000Y27500000D01*
X55300000Y27300000D01*
G37*
%LPD*%
%LPC*%
G36*
X45900000Y27300000D02*
X46100000Y27100000D01*
X46500000Y27100000D01*
X46700000Y27300000D01*
X46700000Y27500000D01*
X46500000Y27700000D01*
X46500000Y27900000D01*
X46100000Y28300000D01*
X45900000Y28300000D01*
X45700000Y28500000D01*
X45500000Y28500000D01*
X45300000Y28300000D01*
X45300000Y27900000D01*
X45500000Y27700000D01*
X45700000Y27700000D01*
X45900000Y27500000D01*
X45900000Y27300000D01*
G37*
%LPD*%
%LPC*%
G36*
X43500000Y27300000D02*
X43700000Y27100000D01*
X44100000Y27100000D01*
X44300000Y27300000D01*
X44300000Y27500000D01*
X44500000Y27700000D01*
X44700000Y27700000D01*
X44900000Y27900000D01*
X44900000Y28300000D01*
X44700000Y28500000D01*
X44500000Y28500000D01*
X44300000Y28300000D01*
X44100000Y28300000D01*
X43700000Y27900000D01*
X43700000Y27700000D01*
X43500000Y27500000D01*
X43500000Y27300000D01*
G37*
%LPD*%
%LPC*%
G36*
X54700000Y25500000D02*
X54900000Y25300000D01*
X55100000Y25300000D01*
X56100000Y26300000D01*
X56100000Y26500000D01*
X55900000Y26700000D01*
X55500000Y26700000D01*
X55300000Y26500000D01*
X55300000Y26300000D01*
X55100000Y26100000D01*
X54900000Y26100000D01*
X54700000Y25900000D01*
X54700000Y25500000D01*
G37*
%LPD*%
%LPC*%
G36*
X45300000Y25500000D02*
X45500000Y25300000D01*
X45700000Y25300000D01*
X45900000Y25500000D01*
X46100000Y25500000D01*
X46500000Y25900000D01*
X46500000Y26100000D01*
X46700000Y26300000D01*
X46700000Y26500000D01*
X46500000Y26700000D01*
X46100000Y26700000D01*
X45900000Y26500000D01*
X45900000Y26300000D01*
X45700000Y26100000D01*
X45500000Y26100000D01*
X45300000Y25900000D01*
X45300000Y25500000D01*
G37*
%LPD*%
%LPC*%
G36*
X44300000Y25500000D02*
X44500000Y25300000D01*
X44700000Y25300000D01*
X44900000Y25500000D01*
X44900000Y25900000D01*
X44700000Y26100000D01*
X44500000Y26100000D01*
X44300000Y26300000D01*
X44300000Y26500000D01*
X44100000Y26700000D01*
X43700000Y26700000D01*
X43500000Y26500000D01*
X43500000Y26300000D01*
X43700000Y26100000D01*
X43700000Y25900000D01*
X44100000Y25500000D01*
X44300000Y25500000D01*
G37*
%LPD*%
%LPC*%
G36*
X8300000Y16300000D02*
X8500000Y16100000D01*
X8900000Y16100000D01*
X9100000Y16300000D01*
X9100000Y16500000D01*
X8900000Y16700000D01*
X8900000Y16900000D01*
X8500000Y17300000D01*
X8300000Y17300000D01*
X8100000Y17500000D01*
X7900000Y17500000D01*
X7700000Y17300000D01*
X7700000Y16900000D01*
X7900000Y16700000D01*
X8100000Y16700000D01*
X8300000Y16500000D01*
X8300000Y16300000D01*
G37*
%LPD*%
%LPC*%
G36*
X67100000Y14500000D02*
X67300000Y14300000D01*
X68100000Y14300000D01*
X68300000Y14500000D01*
X68500000Y14500000D01*
X69100000Y15100000D01*
X69100000Y15300000D01*
X69300000Y15500000D01*
X69300000Y16300000D01*
X69100000Y16500000D01*
X69100000Y16700000D01*
X68500000Y17300000D01*
X68300000Y17300000D01*
X68100000Y17500000D01*
X67300000Y17500000D01*
X67100000Y17300000D01*
X66900000Y17300000D01*
X66300000Y16700000D01*
X66300000Y16500000D01*
X66100000Y16300000D01*
X66100000Y15500000D01*
X66300000Y15300000D01*
X66300000Y15100000D01*
X66900000Y14500000D01*
X67100000Y14500000D01*
G37*
%LPD*%
%LPC*%
G36*
X59500000Y14500000D02*
X59700000Y14300000D01*
X60500000Y14300000D01*
X60700000Y14500000D01*
X60900000Y14500000D01*
X61500000Y15100000D01*
X61500000Y15300000D01*
X61700000Y15500000D01*
X61700000Y16300000D01*
X61500000Y16500000D01*
X61500000Y16700000D01*
X60900000Y17300000D01*
X60700000Y17300000D01*
X60500000Y17500000D01*
X59700000Y17500000D01*
X59500000Y17300000D01*
X59300000Y17300000D01*
X58700000Y16700000D01*
X58700000Y16500000D01*
X58500000Y16300000D01*
X58500000Y15500000D01*
X58700000Y15300000D01*
X58700000Y15100000D01*
X59300000Y14500000D01*
X59500000Y14500000D01*
G37*
%LPD*%
%LPC*%
G36*
X26100000Y14500000D02*
X26300000Y14300000D01*
X27100000Y14300000D01*
X27300000Y14500000D01*
X27500000Y14500000D01*
X28100000Y15100000D01*
X28100000Y15300000D01*
X28300000Y15500000D01*
X28300000Y16300000D01*
X28100000Y16500000D01*
X28100000Y16700000D01*
X27500000Y17300000D01*
X27300000Y17300000D01*
X27100000Y17500000D01*
X26300000Y17500000D01*
X26100000Y17300000D01*
X25900000Y17300000D01*
X25300000Y16700000D01*
X25300000Y16500000D01*
X25100000Y16300000D01*
X25100000Y15500000D01*
X25300000Y15300000D01*
X25300000Y15100000D01*
X25900000Y14500000D01*
X26100000Y14500000D01*
G37*
%LPD*%
%LPC*%
G36*
X15500000Y14500000D02*
X15700000Y14300000D01*
X16500000Y14300000D01*
X16700000Y14500000D01*
X16900000Y14500000D01*
X17500000Y15100000D01*
X17500000Y15300000D01*
X17500000Y15100000D01*
X18100000Y14500000D01*
X18300000Y14500000D01*
X18500000Y14300000D01*
X19300000Y14300000D01*
X19500000Y14500000D01*
X19700000Y14500000D01*
X20300000Y15100000D01*
X20300000Y15300000D01*
X20500000Y15500000D01*
X20500000Y16300000D01*
X20300000Y16500000D01*
X20300000Y16700000D01*
X19700000Y17300000D01*
X19500000Y17300000D01*
X19300000Y17500000D01*
X18500000Y17500000D01*
X18300000Y17300000D01*
X18100000Y17300000D01*
X17500000Y16700000D01*
X17500000Y16500000D01*
X17500000Y16700000D01*
X16900000Y17300000D01*
X16700000Y17300000D01*
X16500000Y17500000D01*
X15700000Y17500000D01*
X15500000Y17300000D01*
X15300000Y17300000D01*
X14700000Y16700000D01*
X14700000Y16500000D01*
X14500000Y16300000D01*
X14500000Y15500000D01*
X14700000Y15300000D01*
X14700000Y15100000D01*
X15300000Y14500000D01*
X15500000Y14500000D01*
G37*
%LPD*%
%LPC*%
G36*
X10300000Y14500000D02*
X10500000Y14300000D01*
X11300000Y14300000D01*
X11500000Y14500000D01*
X11700000Y14500000D01*
X12300000Y15100000D01*
X12300000Y15300000D01*
X12500000Y15500000D01*
X12500000Y16300000D01*
X12300000Y16500000D01*
X12300000Y16700000D01*
X11700000Y17300000D01*
X11500000Y17300000D01*
X11300000Y17500000D01*
X10500000Y17500000D01*
X10300000Y17300000D01*
X10100000Y17300000D01*
X9500000Y16700000D01*
X9500000Y16500000D01*
X9300000Y16300000D01*
X9300000Y15500000D01*
X9500000Y15300000D01*
X9500000Y15100000D01*
X10100000Y14500000D01*
X10300000Y14500000D01*
G37*
%LPD*%
%LPC*%
G36*
X7700000Y14500000D02*
X7900000Y14300000D01*
X8100000Y14300000D01*
X8300000Y14500000D01*
X8500000Y14500000D01*
X8900000Y14900000D01*
X8900000Y15100000D01*
X9100000Y15300000D01*
X9100000Y15500000D01*
X8900000Y15700000D01*
X8500000Y15700000D01*
X8300000Y15500000D01*
X8300000Y15300000D01*
X8100000Y15100000D01*
X7900000Y15100000D01*
X7700000Y14900000D01*
X7700000Y14500000D01*
G37*
%LPD*%
%LPC*%
G36*
X4300000Y14500000D02*
X4500000Y14300000D01*
X5300000Y14300000D01*
X5500000Y14500000D01*
X5700000Y14500000D01*
X6100000Y14900000D01*
X6500000Y14500000D01*
X6700000Y14500000D01*
X6900000Y14300000D01*
X7100000Y14300000D01*
X7300000Y14500000D01*
X7300000Y14900000D01*
X7100000Y15100000D01*
X6900000Y15100000D01*
X6700000Y15300000D01*
X6700000Y15500000D01*
X6500000Y15700000D01*
X6500000Y16100000D01*
X6700000Y16300000D01*
X6700000Y16500000D01*
X6900000Y16700000D01*
X7100000Y16700000D01*
X7300000Y16900000D01*
X7300000Y17300000D01*
X7100000Y17500000D01*
X6900000Y17500000D01*
X6700000Y17300000D01*
X6500000Y17300000D01*
X6100000Y16900000D01*
X5700000Y17300000D01*
X5500000Y17300000D01*
X5300000Y17500000D01*
X4500000Y17500000D01*
X4300000Y17300000D01*
X4100000Y17300000D01*
X3500000Y16700000D01*
X3500000Y16500000D01*
X3300000Y16300000D01*
X3300000Y15500000D01*
X3500000Y15300000D01*
X3500000Y15100000D01*
X4100000Y14500000D01*
X4300000Y14500000D01*
G37*
%LPD*%
%LPC*%
G36*
X65900000Y10300000D02*
X66100000Y10100000D01*
X66500000Y10100000D01*
X66700000Y10300000D01*
X66700000Y10500000D01*
X66500000Y10700000D01*
X66500000Y10900000D01*
X66100000Y11300000D01*
X65900000Y11300000D01*
X65700000Y11500000D01*
X65500000Y11500000D01*
X65300000Y11300000D01*
X65300000Y10900000D01*
X65500000Y10700000D01*
X65700000Y10700000D01*
X65900000Y10500000D01*
X65900000Y10300000D01*
G37*
%LPD*%
%LPC*%
G36*
X63500000Y10300000D02*
X63700000Y10100000D01*
X64100000Y10100000D01*
X64300000Y10300000D01*
X64300000Y10500000D01*
X64500000Y10700000D01*
X64700000Y10700000D01*
X64900000Y10900000D01*
X64900000Y11300000D01*
X64700000Y11500000D01*
X64500000Y11500000D01*
X64300000Y11300000D01*
X64100000Y11300000D01*
X63700000Y10900000D01*
X63700000Y10700000D01*
X63500000Y10500000D01*
X63500000Y10300000D01*
G37*
%LPD*%
%LPC*%
G36*
X65300000Y8500000D02*
X65500000Y8300000D01*
X65700000Y8300000D01*
X65900000Y8500000D01*
X66100000Y8500000D01*
X66500000Y8900000D01*
X66500000Y9100000D01*
X66700000Y9300000D01*
X66700000Y9500000D01*
X66500000Y9700000D01*
X66100000Y9700000D01*
X65900000Y9500000D01*
X65900000Y9300000D01*
X65700000Y9100000D01*
X65500000Y9100000D01*
X65300000Y8900000D01*
X65300000Y8500000D01*
G37*
%LPD*%
%LPC*%
G36*
X64300000Y8500000D02*
X64500000Y8300000D01*
X64700000Y8300000D01*
X64900000Y8500000D01*
X64900000Y8900000D01*
X64700000Y9100000D01*
X64500000Y9100000D01*
X64300000Y9300000D01*
X64300000Y9500000D01*
X64100000Y9700000D01*
X63700000Y9700000D01*
X63500000Y9500000D01*
X63500000Y9300000D01*
X63700000Y9100000D01*
X63700000Y8900000D01*
X64100000Y8500000D01*
X64300000Y8500000D01*
G37*
%LPD*%
%LPC*%
G36*
X59500000Y8500000D02*
X59700000Y8300000D01*
X60500000Y8300000D01*
X60700000Y8500000D01*
X60900000Y8500000D01*
X61500000Y9100000D01*
X61500000Y9300000D01*
X61700000Y9500000D01*
X61700000Y10300000D01*
X61500000Y10500000D01*
X61500000Y10700000D01*
X60900000Y11300000D01*
X60700000Y11300000D01*
X60500000Y11500000D01*
X59700000Y11500000D01*
X59500000Y11300000D01*
X59300000Y11300000D01*
X58700000Y10700000D01*
X58700000Y10500000D01*
X58500000Y10300000D01*
X58500000Y9500000D01*
X58700000Y9300000D01*
X58700000Y9100000D01*
X59300000Y8500000D01*
X59500000Y8500000D01*
G37*
%LPD*%
%LPC*%
G36*
X49100000Y8500000D02*
X49300000Y8300000D01*
X50100000Y8300000D01*
X50300000Y8500000D01*
X50500000Y8500000D01*
X51100000Y9100000D01*
X51100000Y9300000D01*
X51300000Y9500000D01*
X51300000Y10300000D01*
X51100000Y10500000D01*
X51100000Y10700000D01*
X50500000Y11300000D01*
X50300000Y11300000D01*
X50100000Y11500000D01*
X49300000Y11500000D01*
X49100000Y11300000D01*
X48900000Y11300000D01*
X48300000Y10700000D01*
X48300000Y10500000D01*
X48100000Y10300000D01*
X48100000Y9500000D01*
X48300000Y9300000D01*
X48300000Y9100000D01*
X48900000Y8500000D01*
X49100000Y8500000D01*
G37*
%LPD*%
%LPC*%
G36*
X26100000Y8500000D02*
X26300000Y8300000D01*
X27100000Y8300000D01*
X27300000Y8500000D01*
X27500000Y8500000D01*
X28100000Y9100000D01*
X28100000Y9300000D01*
X28300000Y9500000D01*
X28300000Y10300000D01*
X28100000Y10500000D01*
X28100000Y10700000D01*
X27500000Y11300000D01*
X27300000Y11300000D01*
X27100000Y11500000D01*
X26300000Y11500000D01*
X26100000Y11300000D01*
X25900000Y11300000D01*
X25300000Y10700000D01*
X25300000Y10500000D01*
X25100000Y10300000D01*
X25100000Y9500000D01*
X25300000Y9300000D01*
X25300000Y9100000D01*
X25900000Y8500000D01*
X26100000Y8500000D01*
G37*
%LPD*%
%LPC*%
G36*
X18300000Y8500000D02*
X18500000Y8300000D01*
X19300000Y8300000D01*
X19500000Y8500000D01*
X19700000Y8500000D01*
X20300000Y9100000D01*
X20300000Y9300000D01*
X20500000Y9500000D01*
X20500000Y10300000D01*
X20300000Y10500000D01*
X20300000Y10700000D01*
X19700000Y11300000D01*
X19500000Y11300000D01*
X19300000Y11500000D01*
X18500000Y11500000D01*
X18300000Y11300000D01*
X18100000Y11300000D01*
X17500000Y10700000D01*
X17500000Y10500000D01*
X17300000Y10300000D01*
X17300000Y9500000D01*
X17500000Y9300000D01*
X17500000Y9100000D01*
X18100000Y8500000D01*
X18300000Y8500000D01*
G37*
%LPD*%
%LPC*%
G36*
X61900000Y4300000D02*
X62100000Y4100000D01*
X62500000Y4100000D01*
X62700000Y4300000D01*
X62700000Y4500000D01*
X62500000Y4700000D01*
X62500000Y4900000D01*
X62100000Y5300000D01*
X61900000Y5300000D01*
X61700000Y5500000D01*
X61500000Y5500000D01*
X61300000Y5300000D01*
X61300000Y4900000D01*
X61500000Y4700000D01*
X61700000Y4700000D01*
X61900000Y4500000D01*
X61900000Y4300000D01*
G37*
%LPD*%
%LPC*%
G36*
X59500000Y4300000D02*
X59700000Y4100000D01*
X60100000Y4100000D01*
X60300000Y4300000D01*
X60300000Y4500000D01*
X60500000Y4700000D01*
X60700000Y4700000D01*
X60900000Y4900000D01*
X60900000Y5300000D01*
X60700000Y5500000D01*
X60500000Y5500000D01*
X60300000Y5300000D01*
X60100000Y5300000D01*
X59700000Y4900000D01*
X59700000Y4700000D01*
X59500000Y4500000D01*
X59500000Y4300000D01*
G37*
%LPD*%
%LPC*%
G36*
X61300000Y2500000D02*
X61500000Y2300000D01*
X61700000Y2300000D01*
X61900000Y2500000D01*
X62100000Y2500000D01*
X62500000Y2900000D01*
X62500000Y3100000D01*
X62700000Y3300000D01*
X62700000Y3500000D01*
X62500000Y3700000D01*
X62100000Y3700000D01*
X61900000Y3500000D01*
X61900000Y3300000D01*
X61700000Y3100000D01*
X61500000Y3100000D01*
X61300000Y2900000D01*
X61300000Y2500000D01*
G37*
%LPD*%
%LPC*%
G36*
X60300000Y2500000D02*
X60500000Y2300000D01*
X60700000Y2300000D01*
X60900000Y2500000D01*
X60900000Y2900000D01*
X60700000Y3100000D01*
X60500000Y3100000D01*
X60300000Y3300000D01*
X60300000Y3500000D01*
X60100000Y3700000D01*
X59700000Y3700000D01*
X59500000Y3500000D01*
X59500000Y3300000D01*
X59700000Y3100000D01*
X59700000Y2900000D01*
X60100000Y2500000D01*
X60300000Y2500000D01*
G37*
%LPD*%
%LPC*%
G36*
X55500000Y2500000D02*
X55700000Y2300000D01*
X56500000Y2300000D01*
X56700000Y2500000D01*
X56900000Y2500000D01*
X57500000Y3100000D01*
X57500000Y3300000D01*
X57700000Y3500000D01*
X57700000Y4300000D01*
X57500000Y4500000D01*
X57500000Y4700000D01*
X56900000Y5300000D01*
X56700000Y5300000D01*
X56500000Y5500000D01*
X55700000Y5500000D01*
X55500000Y5300000D01*
X55300000Y5300000D01*
X54700000Y4700000D01*
X54700000Y4500000D01*
X54500000Y4300000D01*
X54500000Y3500000D01*
X54700000Y3300000D01*
X54700000Y3100000D01*
X55300000Y2500000D01*
X55500000Y2500000D01*
G37*
%LPD*%
%LPC*%
G36*
X49100000Y2500000D02*
X49300000Y2300000D01*
X50100000Y2300000D01*
X50300000Y2500000D01*
X50500000Y2500000D01*
X51100000Y3100000D01*
X51100000Y3300000D01*
X51300000Y3500000D01*
X51300000Y4300000D01*
X51100000Y4500000D01*
X51100000Y4700000D01*
X50500000Y5300000D01*
X50300000Y5300000D01*
X50100000Y5500000D01*
X49300000Y5500000D01*
X49100000Y5300000D01*
X48900000Y5300000D01*
X48300000Y4700000D01*
X48300000Y4500000D01*
X48100000Y4300000D01*
X48100000Y3500000D01*
X48300000Y3300000D01*
X48300000Y3100000D01*
X48900000Y2500000D01*
X49100000Y2500000D01*
G37*
%LPD*%
%LPC*%
G36*
X41300000Y2500000D02*
X41500000Y2300000D01*
X42300000Y2300000D01*
X42500000Y2500000D01*
X42700000Y2500000D01*
X43300000Y3100000D01*
X43300000Y3300000D01*
X43500000Y3500000D01*
X43500000Y4300000D01*
X43300000Y4500000D01*
X43300000Y4700000D01*
X42700000Y5300000D01*
X42500000Y5300000D01*
X42300000Y5500000D01*
X41500000Y5500000D01*
X41300000Y5300000D01*
X41100000Y5300000D01*
X40500000Y4700000D01*
X40500000Y4500000D01*
X40300000Y4300000D01*
X40300000Y3500000D01*
X40500000Y3300000D01*
X40500000Y3100000D01*
X41100000Y2500000D01*
X41300000Y2500000D01*
G37*
%LPD*%
%LPC*%
G36*
X38300000Y2500000D02*
X38500000Y2300000D01*
X38700000Y2300000D01*
X38900000Y2500000D01*
X39100000Y2500000D01*
X39500000Y2900000D01*
X39500000Y3100000D01*
X39700000Y3300000D01*
X39700000Y3500000D01*
X39500000Y3700000D01*
X39100000Y3700000D01*
X38900000Y3500000D01*
X38900000Y3300000D01*
X38700000Y3100000D01*
X38500000Y3100000D01*
X38300000Y2900000D01*
X38300000Y2500000D01*
G37*
%LPD*%
%LPC*%
G36*
X37300000Y2500000D02*
X37500000Y2300000D01*
X37700000Y2300000D01*
X37900000Y2500000D01*
X37900000Y2900000D01*
X37700000Y3100000D01*
X37500000Y3100000D01*
X37300000Y3300000D01*
X37300000Y3500000D01*
X37100000Y3700000D01*
X36700000Y3700000D01*
X36500000Y3500000D01*
X36500000Y3300000D01*
X36700000Y3100000D01*
X36700000Y2900000D01*
X37100000Y2500000D01*
X37300000Y2500000D01*
G37*
%LPD*%
%LPC*%
G36*
X18300000Y2500000D02*
X18500000Y2300000D01*
X19300000Y2300000D01*
X19500000Y2500000D01*
X19700000Y2500000D01*
X20100000Y2900000D01*
X24900000Y2900000D01*
X25100000Y3100000D01*
X25300000Y3100000D01*
X25900000Y2500000D01*
X26100000Y2500000D01*
X26300000Y2300000D01*
X27100000Y2300000D01*
X27300000Y2500000D01*
X27500000Y2500000D01*
X28100000Y3100000D01*
X28100000Y3300000D01*
X28300000Y3500000D01*
X28300000Y4300000D01*
X28100000Y4500000D01*
X28100000Y4700000D01*
X31500000Y4700000D01*
X31500000Y4500000D01*
X31300000Y4300000D01*
X31300000Y3500000D01*
X31500000Y3300000D01*
X31500000Y3100000D01*
X32100000Y2500000D01*
X32300000Y2500000D01*
X32500000Y2300000D01*
X33300000Y2300000D01*
X33500000Y2500000D01*
X33700000Y2500000D01*
X34300000Y3100000D01*
X34300000Y3300000D01*
X34500000Y3500000D01*
X34500000Y4300000D01*
X34300000Y4500000D01*
X34300000Y4700000D01*
X36700000Y4700000D01*
X36500000Y4500000D01*
X36500000Y4300000D01*
X36700000Y4100000D01*
X37100000Y4100000D01*
X37300000Y4300000D01*
X37300000Y4500000D01*
X37500000Y4700000D01*
X38700000Y4700000D01*
X38900000Y4500000D01*
X38900000Y4300000D01*
X39100000Y4100000D01*
X39500000Y4100000D01*
X39700000Y4300000D01*
X39700000Y4500000D01*
X39500000Y4700000D01*
X40100000Y4700000D01*
X40300000Y4900000D01*
X40500000Y4900000D01*
X40900000Y5300000D01*
X40900000Y5500000D01*
X41100000Y5700000D01*
X41100000Y8500000D01*
X41300000Y8500000D01*
X41500000Y8300000D01*
X42300000Y8300000D01*
X42500000Y8500000D01*
X42700000Y8500000D01*
X43300000Y9100000D01*
X43300000Y9300000D01*
X43500000Y9500000D01*
X43500000Y10300000D01*
X43300000Y10500000D01*
X43300000Y10700000D01*
X42700000Y11300000D01*
X42700000Y11500000D01*
X42900000Y11700000D01*
X42900000Y32500000D01*
X43100000Y32500000D01*
X43300000Y32700000D01*
X43500000Y32700000D01*
X43700000Y32900000D01*
X43700000Y33100000D01*
X43900000Y33100000D01*
X43900000Y32900000D01*
X44100000Y32700000D01*
X44300000Y32700000D01*
X44500000Y32500000D01*
X44700000Y32500000D01*
X44900000Y32300000D01*
X45300000Y32300000D01*
X45500000Y32500000D01*
X45700000Y32500000D01*
X45900000Y32700000D01*
X46100000Y32700000D01*
X46300000Y32900000D01*
X46300000Y33100000D01*
X46500000Y33100000D01*
X46500000Y32900000D01*
X46700000Y32700000D01*
X46900000Y32700000D01*
X47100000Y32500000D01*
X47100000Y26900000D01*
X47300000Y26700000D01*
X47300000Y26500000D01*
X47900000Y25900000D01*
X48100000Y25900000D01*
X48300000Y25700000D01*
X51300000Y25700000D01*
X51500000Y25500000D01*
X51700000Y25500000D01*
X51900000Y25300000D01*
X52300000Y25300000D01*
X52500000Y25500000D01*
X52700000Y25500000D01*
X52900000Y25700000D01*
X53100000Y25700000D01*
X53300000Y25900000D01*
X53900000Y25300000D01*
X54100000Y25300000D01*
X54300000Y25500000D01*
X54300000Y25900000D01*
X54100000Y26100000D01*
X53900000Y26100000D01*
X53700000Y26300000D01*
X53700000Y27500000D01*
X53900000Y27700000D01*
X54100000Y27700000D01*
X54300000Y27900000D01*
X54300000Y28300000D01*
X54100000Y28500000D01*
X53900000Y28500000D01*
X53300000Y27900000D01*
X53100000Y28100000D01*
X52900000Y28100000D01*
X52700000Y28300000D01*
X52500000Y28300000D01*
X52300000Y28500000D01*
X51900000Y28500000D01*
X51700000Y28300000D01*
X51500000Y28300000D01*
X51300000Y28100000D01*
X49500000Y28100000D01*
X49500000Y32500000D01*
X49700000Y32500000D01*
X49900000Y32300000D01*
X50300000Y32300000D01*
X50500000Y32500000D01*
X50700000Y32500000D01*
X50900000Y32700000D01*
X51100000Y32700000D01*
X51300000Y32900000D01*
X51300000Y33100000D01*
X51500000Y33100000D01*
X51500000Y32900000D01*
X51700000Y32700000D01*
X51900000Y32700000D01*
X52100000Y32500000D01*
X52300000Y32500000D01*
X52500000Y32300000D01*
X52900000Y32300000D01*
X53100000Y32500000D01*
X53300000Y32500000D01*
X53500000Y32700000D01*
X53700000Y32700000D01*
X53900000Y32900000D01*
X53900000Y33100000D01*
X54100000Y33100000D01*
X54100000Y32900000D01*
X54300000Y32700000D01*
X54500000Y32700000D01*
X54700000Y32500000D01*
X54900000Y32500000D01*
X55100000Y32300000D01*
X55500000Y32300000D01*
X55700000Y32500000D01*
X55900000Y32500000D01*
X56100000Y32700000D01*
X56300000Y32700000D01*
X56500000Y32900000D01*
X56500000Y33100000D01*
X56700000Y33300000D01*
X56700000Y33500000D01*
X56900000Y33700000D01*
X56900000Y34100000D01*
X56700000Y34300000D01*
X56700000Y34500000D01*
X56500000Y34700000D01*
X56500000Y34900000D01*
X56300000Y35100000D01*
X56100000Y35100000D01*
X55900000Y35300000D01*
X55700000Y35300000D01*
X55500000Y35500000D01*
X55100000Y35500000D01*
X54900000Y35300000D01*
X54700000Y35300000D01*
X54500000Y35100000D01*
X54300000Y35100000D01*
X54100000Y34900000D01*
X54100000Y34700000D01*
X53900000Y34700000D01*
X53900000Y34900000D01*
X53700000Y35100000D01*
X53500000Y35100000D01*
X53300000Y35300000D01*
X53100000Y35300000D01*
X52900000Y35500000D01*
X52500000Y35500000D01*
X52300000Y35300000D01*
X52100000Y35300000D01*
X51900000Y35100000D01*
X51700000Y35100000D01*
X51500000Y34900000D01*
X51500000Y34700000D01*
X51300000Y34700000D01*
X51300000Y34900000D01*
X51100000Y35100000D01*
X50900000Y35100000D01*
X50700000Y35300000D01*
X50500000Y35300000D01*
X50300000Y35500000D01*
X49900000Y35500000D01*
X49700000Y35300000D01*
X49500000Y35300000D01*
X49300000Y35100000D01*
X49100000Y35100000D01*
X48900000Y34900000D01*
X48900000Y34700000D01*
X48900000Y34900000D01*
X48700000Y35100000D01*
X48500000Y35100000D01*
X48300000Y35300000D01*
X48100000Y35300000D01*
X47900000Y35500000D01*
X47500000Y35500000D01*
X47300000Y35300000D01*
X47100000Y35300000D01*
X46900000Y35100000D01*
X46700000Y35100000D01*
X46500000Y34900000D01*
X46500000Y34700000D01*
X46300000Y34700000D01*
X46300000Y34900000D01*
X46100000Y35100000D01*
X45900000Y35100000D01*
X45700000Y35300000D01*
X45500000Y35300000D01*
X45300000Y35500000D01*
X44900000Y35500000D01*
X44700000Y35300000D01*
X44500000Y35300000D01*
X44300000Y35100000D01*
X44100000Y35100000D01*
X43900000Y34900000D01*
X43900000Y34700000D01*
X43700000Y34700000D01*
X43700000Y34900000D01*
X43500000Y35100000D01*
X43300000Y35100000D01*
X43100000Y35300000D01*
X42900000Y35300000D01*
X42700000Y35500000D01*
X42300000Y35500000D01*
X42100000Y35300000D01*
X41900000Y35300000D01*
X41700000Y35100000D01*
X41500000Y35100000D01*
X41300000Y34900000D01*
X41300000Y34700000D01*
X41100000Y34700000D01*
X41100000Y34900000D01*
X40900000Y35100000D01*
X40700000Y35100000D01*
X40500000Y35300000D01*
X40300000Y35300000D01*
X40100000Y35500000D01*
X39700000Y35500000D01*
X39500000Y35300000D01*
X39300000Y35300000D01*
X39100000Y35100000D01*
X38900000Y35100000D01*
X38700000Y34900000D01*
X38700000Y34700000D01*
X38500000Y34500000D01*
X38500000Y34300000D01*
X38300000Y34100000D01*
X38300000Y33700000D01*
X38500000Y33500000D01*
X38500000Y33300000D01*
X38700000Y33100000D01*
X38700000Y32900000D01*
X38900000Y32700000D01*
X39100000Y32700000D01*
X39300000Y32500000D01*
X39500000Y32500000D01*
X39700000Y32300000D01*
X40100000Y32300000D01*
X40300000Y32500000D01*
X40500000Y32500000D01*
X40700000Y32700000D01*
X40900000Y32700000D01*
X40900000Y28100000D01*
X40700000Y28300000D01*
X40500000Y28300000D01*
X40300000Y28500000D01*
X39500000Y28500000D01*
X39300000Y28300000D01*
X39100000Y28300000D01*
X38500000Y27700000D01*
X38500000Y27500000D01*
X38300000Y27300000D01*
X38300000Y26500000D01*
X38500000Y26300000D01*
X38500000Y26100000D01*
X39100000Y25500000D01*
X39300000Y25500000D01*
X39500000Y25300000D01*
X40300000Y25300000D01*
X40500000Y25500000D01*
X40700000Y25500000D01*
X40900000Y25700000D01*
X40900000Y12500000D01*
X40700000Y12300000D01*
X40500000Y12300000D01*
X39500000Y11300000D01*
X39500000Y11100000D01*
X39300000Y10900000D01*
X39300000Y10700000D01*
X39100000Y10500000D01*
X39100000Y6700000D01*
X26100000Y6700000D01*
X25900000Y6500000D01*
X25700000Y6500000D01*
X25500000Y6300000D01*
X25300000Y6300000D01*
X24300000Y5300000D01*
X24300000Y5100000D01*
X24100000Y4900000D01*
X20100000Y4900000D01*
X19700000Y5300000D01*
X19500000Y5300000D01*
X19300000Y5500000D01*
X18500000Y5500000D01*
X18300000Y5300000D01*
X18100000Y5300000D01*
X17500000Y4700000D01*
X17500000Y4500000D01*
X17300000Y4300000D01*
X17300000Y3500000D01*
X17500000Y3300000D01*
X17500000Y3100000D01*
X18100000Y2500000D01*
X18300000Y2500000D01*
G37*
%LPD*%
D10*
X50100000Y41700000D02*
X49500000Y41700000D01*
X49500000Y42100000D01*
X49300000Y42100000D01*
X49300000Y42500000D01*
X49100000Y42500000D01*
X49100000Y42900000D01*
X48900000Y42900000D01*
X48900000Y43100000D01*
X48500000Y43100000D01*
X48500000Y43300000D01*
X48100000Y43300000D01*
X48100000Y43500000D01*
X19300000Y43500000D01*
X19300000Y51100000D01*
D10*
X18900000Y3900000D02*
X24900000Y3900000D01*
X24900000Y4500000D01*
X25100000Y4500000D01*
X25100000Y4900000D01*
X25300000Y4900000D01*
X25300000Y5100000D01*
X25500000Y5100000D01*
X25500000Y5300000D01*
X25700000Y5300000D01*
X25700000Y5500000D01*
X26100000Y5500000D01*
X26100000Y5700000D01*
X40100000Y5700000D01*
X40100000Y10500000D01*
X40300000Y10500000D01*
X40300000Y10900000D01*
X40500000Y10900000D01*
X40500000Y11100000D01*
X40700000Y11100000D01*
X40700000Y11300000D01*
X40900000Y11300000D01*
X40900000Y11500000D01*
X41300000Y11500000D01*
X41300000Y11700000D01*
X41900000Y11700000D01*
X41900000Y33300000D01*
D11*
X52100000Y26900000D02*
X48300000Y26900000D01*
X48300000Y33300000D01*
D12*
X47620000Y34000000D03*
D13*
X40000000Y27000000D03*
D12*
X52000000Y27000000D03*
D13*
X5000000Y32000000D03*
D13*
X5000000Y16000000D03*
D13*
X11000000Y16000000D03*
D13*
X16080000Y16000000D03*
D13*
X19000000Y16000000D03*
D12*
X45080000Y34000000D03*
D12*
X40000000Y34000000D03*
D13*
X19000000Y10000000D03*
D12*
X50160000Y34000000D03*
D12*
X42540000Y34000000D03*
D13*
X26620000Y10000000D03*
D13*
X19000000Y4000000D03*
D13*
X26620000Y4000000D03*
D13*
X33000000Y4000000D03*
D12*
X55240000Y34000000D03*
D13*
X42000000Y10000000D03*
D13*
X60000000Y16000000D03*
D12*
X52700000Y34000000D03*
D13*
X49620000Y10000000D03*
D13*
X42000000Y4000000D03*
D13*
X49620000Y4000000D03*
D13*
X56000000Y4000000D03*
D13*
X67620000Y16000000D03*
D13*
X60000000Y10000000D03*
D13*
X78000000Y32000000D03*
D13*
X5000000Y52000000D03*
D13*
X11000000Y52000000D03*
D13*
X16080000Y52000000D03*
D13*
X19000000Y52000000D03*
D12*
X50160000Y41620000D03*
D12*
X55240000Y41620000D03*
D13*
X19000000Y58000000D03*
D12*
X45080000Y41620000D03*
D12*
X52700000Y41620000D03*
D13*
X26620000Y58000000D03*
D13*
X19000000Y64000000D03*
D13*
X26620000Y64000000D03*
D13*
X33000000Y64000000D03*
D12*
X40000000Y41620000D03*
D13*
X42000000Y58000000D03*
D13*
X60000000Y52000000D03*
D12*
X42540000Y41620000D03*
D13*
X49620000Y58000000D03*
D13*
X42000000Y64000000D03*
D13*
X49620000Y64000000D03*
D13*
X56000000Y64000000D03*
D13*
X67620000Y52000000D03*
D13*
X60000000Y58000000D03*
D13*
X78000000Y34540000D03*
D12*
X47620000Y41620000D03*
D13*
X45080000Y27000000D03*
D12*
X54540000Y27000000D03*
D13*
X5000000Y34540000D03*
D13*
X78000000Y37080000D03*
D13*
X7540000Y16000000D03*
D13*
X38080000Y4000000D03*
D13*
X61080000Y4000000D03*
D13*
X65080000Y10000000D03*
D13*
X7540000Y52000000D03*
D13*
X38080000Y64000000D03*
D13*
X61080000Y64000000D03*
D13*
X65080000Y58000000D03*
D13*
X5000000Y37080000D03*
D13*
X26620000Y16000000D03*
D13*
X26620000Y52000000D03*
M02*
