M48
METRIC,TZ
T1C0.900
T2C1.000
T3C2.700
%
T1
X47.620Y34.000
X40.000Y27.000
X52.000Y27.000
X11.000Y16.000
X16.080Y16.000
X19.000Y16.000
X45.080Y34.000
X40.000Y34.000
X19.000Y10.000
X50.160Y34.000
X42.540Y34.000
X29.160Y10.000
X19.000Y4.000
X29.160Y4.000
X33.000Y4.000
X55.240Y34.000
X42.000Y10.000
X60.000Y16.000
X52.700Y34.000
X52.160Y10.000
X42.000Y4.000
X52.160Y4.000
X56.000Y4.000
X70.160Y16.000
X60.000Y10.000
X11.000Y52.000
X16.080Y52.000
X19.000Y52.000
X50.160Y41.620
X55.240Y41.620
X19.000Y58.000
X45.080Y41.620
X52.700Y41.620
X29.160Y58.000
X19.000Y64.000
X29.160Y64.000
X33.000Y64.000
X40.000Y41.620
X42.000Y58.000
X60.000Y52.000
X42.540Y41.620
X52.160Y58.000
X42.000Y64.000
X52.160Y64.000
X56.000Y64.000
X70.160Y52.000
X60.000Y58.000
X47.620Y41.620
X45.080Y27.000
X54.540Y27.000
X38.080Y4.000
X61.080Y4.000
X65.080Y10.000
X38.080Y64.000
X61.080Y64.000
X65.080Y58.000
X29.160Y16.000
X29.160Y52.000
T2
X5.000Y32.000
X5.000Y16.000
X78.000Y32.000
X5.000Y52.000
X78.000Y34.540
X5.000Y34.540
X78.000Y37.080
X7.540Y16.000
X7.540Y52.000
X5.000Y37.080
T3
X1.600Y0.600
X81.400Y0.600
X1.600Y67.400
X81.400Y67.400
T0
M30
