<svg xmlns="http://www.w3.org/2000/svg" width="800" height="668" viewBox="0 0 800 668" font-family="Tahoma, Segoe UI, sans-serif" fill="#343a40">
<rect width="800" height="668" fill="#ffffff"/>
<text x="20" y="30" font-size="17" font-weight="700" fill="#1971c2">ช่อง 4 (C80 → GPIO33) — ผัง 5 · สเตจขยายที่ 2 และขาออก</text>
<text x="20" y="50" font-size="12" fill="#6c757d">ออปแอมป์ D · ขา 8 → ขา 12 · Rf2 จากขา 14 (แถว 12) · ออกที่ 46J</text>
<rect x="168" y="104" width="332" height="528" rx="6" fill="#ffffff" stroke="#ced4da"/>
<rect x="308" y="104" width="24" height="528" fill="#e9ecef"/>
<rect x="466" y="118" width="16" height="500" rx="8" fill="#ffc9c9"/>
<rect x="444" y="118" width="16" height="500" rx="8" fill="#a5d8ff"/>
<rect x="202" y="118" width="104" height="500" rx="8" fill="#f1f3f5"/>
<rect x="334" y="118" width="104" height="500" rx="8" fill="#f1f3f5"/>
<text x="474" y="114" font-size="13" font-weight="700" text-anchor="middle" fill="#e03131">+</text>
<text x="452" y="114" font-size="13" font-weight="700" text-anchor="middle" fill="#1971c2">–</text>
<text x="210" y="114" font-size="12" text-anchor="middle" fill="#868e96">A</text>
<text x="232" y="114" font-size="12" text-anchor="middle" fill="#868e96">B</text>
<text x="254" y="114" font-size="12" text-anchor="middle" fill="#868e96">C</text>
<text x="276" y="114" font-size="12" text-anchor="middle" fill="#868e96">D</text>
<text x="298" y="114" font-size="12" text-anchor="middle" fill="#868e96">E</text>
<text x="342" y="114" font-size="12" text-anchor="middle" fill="#868e96">F</text>
<text x="364" y="114" font-size="12" text-anchor="middle" fill="#868e96">G</text>
<text x="386" y="114" font-size="12" text-anchor="middle" fill="#868e96">H</text>
<text x="408" y="114" font-size="12" text-anchor="middle" fill="#868e96">I</text>
<text x="430" y="114" font-size="12" text-anchor="middle" fill="#868e96">J</text>
<circle cx="210" cy="150" r="3" fill="#ced4da"/>
<circle cx="232" cy="150" r="3" fill="#ced4da"/>
<circle cx="254" cy="150" r="3" fill="#ced4da"/>
<circle cx="276" cy="150" r="3" fill="#ced4da"/>
<circle cx="298" cy="150" r="3" fill="#ced4da"/>
<circle cx="342" cy="150" r="3" fill="#ced4da"/>
<circle cx="364" cy="150" r="3" fill="#ced4da"/>
<circle cx="386" cy="150" r="3" fill="#ced4da"/>
<circle cx="408" cy="150" r="3" fill="#ced4da"/>
<circle cx="430" cy="150" r="3" fill="#ced4da"/>
<circle cx="474" cy="150" r="3" fill="#ffffff"/>
<circle cx="452" cy="150" r="3" fill="#ffffff"/>
<text x="508" y="154" font-size="12" text-anchor="start" fill="#6c757d">12</text>
<circle cx="210" cy="184" r="3" fill="#ced4da"/>
<circle cx="232" cy="184" r="3" fill="#ced4da"/>
<circle cx="254" cy="184" r="3" fill="#ced4da"/>
<circle cx="276" cy="184" r="3" fill="#ced4da"/>
<circle cx="298" cy="184" r="3" fill="#ced4da"/>
<circle cx="342" cy="184" r="3" fill="#ced4da"/>
<circle cx="364" cy="184" r="3" fill="#ced4da"/>
<circle cx="386" cy="184" r="3" fill="#ced4da"/>
<circle cx="408" cy="184" r="3" fill="#ced4da"/>
<circle cx="430" cy="184" r="3" fill="#ced4da"/>
<circle cx="474" cy="184" r="3" fill="#ffffff"/>
<circle cx="452" cy="184" r="3" fill="#ffffff"/>
<text x="508" y="188" font-size="12" text-anchor="start" fill="#6c757d">13</text>
<circle cx="210" cy="218" r="3" fill="#ced4da"/>
<circle cx="232" cy="218" r="3" fill="#ced4da"/>
<circle cx="254" cy="218" r="3" fill="#ced4da"/>
<circle cx="276" cy="218" r="3" fill="#ced4da"/>
<circle cx="298" cy="218" r="3" fill="#ced4da"/>
<circle cx="342" cy="218" r="3" fill="#ced4da"/>
<circle cx="364" cy="218" r="3" fill="#ced4da"/>
<circle cx="386" cy="218" r="3" fill="#ced4da"/>
<circle cx="408" cy="218" r="3" fill="#ced4da"/>
<circle cx="430" cy="218" r="3" fill="#ced4da"/>
<circle cx="474" cy="218" r="3" fill="#ffffff"/>
<circle cx="452" cy="218" r="3" fill="#ffffff"/>
<text x="508" y="222" font-size="12" text-anchor="start" fill="#6c757d">14</text>
<circle cx="210" cy="252" r="3" fill="#ced4da"/>
<circle cx="232" cy="252" r="3" fill="#ced4da"/>
<circle cx="254" cy="252" r="3" fill="#ced4da"/>
<circle cx="276" cy="252" r="3" fill="#ced4da"/>
<circle cx="298" cy="252" r="3" fill="#ced4da"/>
<circle cx="342" cy="252" r="3" fill="#ced4da"/>
<circle cx="364" cy="252" r="3" fill="#ced4da"/>
<circle cx="386" cy="252" r="3" fill="#ced4da"/>
<circle cx="408" cy="252" r="3" fill="#ced4da"/>
<circle cx="430" cy="252" r="3" fill="#ced4da"/>
<circle cx="474" cy="252" r="3" fill="#ffffff"/>
<circle cx="452" cy="252" r="3" fill="#ffffff"/>
<text x="508" y="256" font-size="12" text-anchor="start" fill="#6c757d">15</text>
<circle cx="210" cy="286" r="3" fill="#ced4da"/>
<circle cx="232" cy="286" r="3" fill="#ced4da"/>
<circle cx="254" cy="286" r="3" fill="#ced4da"/>
<circle cx="276" cy="286" r="3" fill="#ced4da"/>
<circle cx="298" cy="286" r="3" fill="#ced4da"/>
<circle cx="342" cy="286" r="3" fill="#ced4da"/>
<circle cx="364" cy="286" r="3" fill="#ced4da"/>
<circle cx="386" cy="286" r="3" fill="#ced4da"/>
<circle cx="408" cy="286" r="3" fill="#ced4da"/>
<circle cx="430" cy="286" r="3" fill="#ced4da"/>
<circle cx="474" cy="286" r="3" fill="#ffffff"/>
<circle cx="452" cy="286" r="3" fill="#ffffff"/>
<text x="508" y="290" font-size="12" text-anchor="start" fill="#6c757d">16</text>
<circle cx="210" cy="320" r="3" fill="#ced4da"/>
<circle cx="232" cy="320" r="3" fill="#ced4da"/>
<circle cx="254" cy="320" r="3" fill="#ced4da"/>
<circle cx="276" cy="320" r="3" fill="#ced4da"/>
<circle cx="298" cy="320" r="3" fill="#ced4da"/>
<circle cx="342" cy="320" r="3" fill="#ced4da"/>
<circle cx="364" cy="320" r="3" fill="#ced4da"/>
<circle cx="386" cy="320" r="3" fill="#ced4da"/>
<circle cx="408" cy="320" r="3" fill="#ced4da"/>
<circle cx="430" cy="320" r="3" fill="#ced4da"/>
<circle cx="474" cy="320" r="3" fill="#ffffff"/>
<circle cx="452" cy="320" r="3" fill="#ffffff"/>
<text x="508" y="324" font-size="12" text-anchor="start" fill="#6c757d">17</text>
<circle cx="210" cy="354" r="3" fill="#ced4da"/>
<circle cx="232" cy="354" r="3" fill="#ced4da"/>
<circle cx="254" cy="354" r="3" fill="#ced4da"/>
<circle cx="276" cy="354" r="3" fill="#ced4da"/>
<circle cx="298" cy="354" r="3" fill="#ced4da"/>
<circle cx="342" cy="354" r="3" fill="#ced4da"/>
<circle cx="364" cy="354" r="3" fill="#ced4da"/>
<circle cx="386" cy="354" r="3" fill="#ced4da"/>
<circle cx="408" cy="354" r="3" fill="#ced4da"/>
<circle cx="430" cy="354" r="3" fill="#ced4da"/>
<circle cx="474" cy="354" r="3" fill="#ffffff"/>
<circle cx="452" cy="354" r="3" fill="#ffffff"/>
<text x="508" y="358" font-size="12" text-anchor="start" fill="#6c757d">18</text>
<circle cx="210" cy="388" r="3" fill="#ced4da"/>
<circle cx="232" cy="388" r="3" fill="#ced4da"/>
<circle cx="254" cy="388" r="3" fill="#ced4da"/>
<circle cx="276" cy="388" r="3" fill="#ced4da"/>
<circle cx="298" cy="388" r="3" fill="#ced4da"/>
<circle cx="342" cy="388" r="3" fill="#ced4da"/>
<circle cx="364" cy="388" r="3" fill="#ced4da"/>
<circle cx="386" cy="388" r="3" fill="#ced4da"/>
<circle cx="408" cy="388" r="3" fill="#ced4da"/>
<circle cx="430" cy="388" r="3" fill="#ced4da"/>
<circle cx="474" cy="388" r="3" fill="#ffffff"/>
<circle cx="452" cy="388" r="3" fill="#ffffff"/>
<text x="508" y="392" font-size="12" text-anchor="start" fill="#6c757d">30</text>
<line x1="534" y1="371.0" x2="554" y2="371.0" stroke="#ced4da" stroke-width="1.5" stroke-dasharray="3 3"/>
<circle cx="210" cy="422" r="3" fill="#ced4da"/>
<circle cx="232" cy="422" r="3" fill="#ced4da"/>
<circle cx="254" cy="422" r="3" fill="#ced4da"/>
<circle cx="276" cy="422" r="3" fill="#ced4da"/>
<circle cx="298" cy="422" r="3" fill="#ced4da"/>
<circle cx="342" cy="422" r="3" fill="#ced4da"/>
<circle cx="364" cy="422" r="3" fill="#ced4da"/>
<circle cx="386" cy="422" r="3" fill="#ced4da"/>
<circle cx="408" cy="422" r="3" fill="#ced4da"/>
<circle cx="430" cy="422" r="3" fill="#ced4da"/>
<circle cx="474" cy="422" r="3" fill="#ffffff"/>
<circle cx="452" cy="422" r="3" fill="#ffffff"/>
<text x="508" y="426" font-size="12" text-anchor="start" fill="#6c757d">34</text>
<line x1="534" y1="405.0" x2="554" y2="405.0" stroke="#ced4da" stroke-width="1.5" stroke-dasharray="3 3"/>
<circle cx="210" cy="456" r="3" fill="#ced4da"/>
<circle cx="232" cy="456" r="3" fill="#ced4da"/>
<circle cx="254" cy="456" r="3" fill="#ced4da"/>
<circle cx="276" cy="456" r="3" fill="#ced4da"/>
<circle cx="298" cy="456" r="3" fill="#ced4da"/>
<circle cx="342" cy="456" r="3" fill="#ced4da"/>
<circle cx="364" cy="456" r="3" fill="#ced4da"/>
<circle cx="386" cy="456" r="3" fill="#ced4da"/>
<circle cx="408" cy="456" r="3" fill="#ced4da"/>
<circle cx="430" cy="456" r="3" fill="#ced4da"/>
<circle cx="474" cy="456" r="3" fill="#ffffff"/>
<circle cx="452" cy="456" r="3" fill="#ffffff"/>
<text x="508" y="460" font-size="12" text-anchor="start" fill="#6c757d">37</text>
<line x1="534" y1="439.0" x2="554" y2="439.0" stroke="#ced4da" stroke-width="1.5" stroke-dasharray="3 3"/>
<circle cx="210" cy="490" r="3" fill="#ced4da"/>
<circle cx="232" cy="490" r="3" fill="#ced4da"/>
<circle cx="254" cy="490" r="3" fill="#ced4da"/>
<circle cx="276" cy="490" r="3" fill="#ced4da"/>
<circle cx="298" cy="490" r="3" fill="#ced4da"/>
<circle cx="342" cy="490" r="3" fill="#ced4da"/>
<circle cx="364" cy="490" r="3" fill="#ced4da"/>
<circle cx="386" cy="490" r="3" fill="#ced4da"/>
<circle cx="408" cy="490" r="3" fill="#ced4da"/>
<circle cx="430" cy="490" r="3" fill="#ced4da"/>
<circle cx="474" cy="490" r="3" fill="#ffffff"/>
<circle cx="452" cy="490" r="3" fill="#ffffff"/>
<text x="508" y="494" font-size="12" text-anchor="start" fill="#6c757d">39</text>
<line x1="534" y1="473.0" x2="554" y2="473.0" stroke="#ced4da" stroke-width="1.5" stroke-dasharray="3 3"/>
<circle cx="210" cy="524" r="3" fill="#ced4da"/>
<circle cx="232" cy="524" r="3" fill="#ced4da"/>
<circle cx="254" cy="524" r="3" fill="#ced4da"/>
<circle cx="276" cy="524" r="3" fill="#ced4da"/>
<circle cx="298" cy="524" r="3" fill="#ced4da"/>
<circle cx="342" cy="524" r="3" fill="#ced4da"/>
<circle cx="364" cy="524" r="3" fill="#ced4da"/>
<circle cx="386" cy="524" r="3" fill="#ced4da"/>
<circle cx="408" cy="524" r="3" fill="#ced4da"/>
<circle cx="430" cy="524" r="3" fill="#ced4da"/>
<circle cx="474" cy="524" r="3" fill="#ffffff"/>
<circle cx="452" cy="524" r="3" fill="#ffffff"/>
<text x="508" y="528" font-size="12" text-anchor="start" fill="#6c757d">42</text>
<line x1="534" y1="507.0" x2="554" y2="507.0" stroke="#ced4da" stroke-width="1.5" stroke-dasharray="3 3"/>
<circle cx="210" cy="558" r="3" fill="#ced4da"/>
<circle cx="232" cy="558" r="3" fill="#ced4da"/>
<circle cx="254" cy="558" r="3" fill="#ced4da"/>
<circle cx="276" cy="558" r="3" fill="#ced4da"/>
<circle cx="298" cy="558" r="3" fill="#ced4da"/>
<circle cx="342" cy="558" r="3" fill="#ced4da"/>
<circle cx="364" cy="558" r="3" fill="#ced4da"/>
<circle cx="386" cy="558" r="3" fill="#ced4da"/>
<circle cx="408" cy="558" r="3" fill="#ced4da"/>
<circle cx="430" cy="558" r="3" fill="#ced4da"/>
<circle cx="474" cy="558" r="3" fill="#ffffff"/>
<circle cx="452" cy="558" r="3" fill="#ffffff"/>
<text x="508" y="562" font-size="12" text-anchor="start" fill="#6c757d">46</text>
<line x1="534" y1="541.0" x2="554" y2="541.0" stroke="#ced4da" stroke-width="1.5" stroke-dasharray="3 3"/>
<circle cx="210" cy="592" r="3" fill="#ced4da"/>
<circle cx="232" cy="592" r="3" fill="#ced4da"/>
<circle cx="254" cy="592" r="3" fill="#ced4da"/>
<circle cx="276" cy="592" r="3" fill="#ced4da"/>
<circle cx="298" cy="592" r="3" fill="#ced4da"/>
<circle cx="342" cy="592" r="3" fill="#ced4da"/>
<circle cx="364" cy="592" r="3" fill="#ced4da"/>
<circle cx="386" cy="592" r="3" fill="#ced4da"/>
<circle cx="408" cy="592" r="3" fill="#ced4da"/>
<circle cx="430" cy="592" r="3" fill="#ced4da"/>
<circle cx="474" cy="592" r="3" fill="#ffffff"/>
<circle cx="452" cy="592" r="3" fill="#ffffff"/>
<text x="508" y="596" font-size="12" text-anchor="start" fill="#6c757d">48</text>
<line x1="534" y1="575.0" x2="554" y2="575.0" stroke="#ced4da" stroke-width="1.5" stroke-dasharray="3 3"/>
<rect x="285" y="133" width="70" height="238" rx="5" fill="#343a40"/>
<path d="M311.0,133 a9,9 0 0 0 18,0" fill="none" stroke="#adb5bd" stroke-width="2"/>
<text x="320" y="125" font-size="12" font-weight="700" text-anchor="middle" fill="#343a40">MCP6004 #3</text>
<circle cx="298" cy="150" r="5" fill="#ffd43b"/>
<circle cx="342" cy="150" r="5" fill="#ffd43b"/>
<text x="309" y="154" font-size="10" text-anchor="middle" fill="#ffffff">1</text>
<text x="331" y="154" font-size="10" text-anchor="middle" fill="#ffffff">14</text>
<circle cx="298" cy="184" r="5" fill="#ffd43b"/>
<circle cx="342" cy="184" r="5" fill="#ffd43b"/>
<text x="309" y="188" font-size="10" text-anchor="middle" fill="#ffffff">2</text>
<text x="331" y="188" font-size="10" text-anchor="middle" fill="#ffffff">13</text>
<circle cx="298" cy="218" r="5" fill="#ffd43b"/>
<circle cx="342" cy="218" r="5" fill="#ffd43b"/>
<text x="309" y="222" font-size="10" text-anchor="middle" fill="#ffffff">3</text>
<text x="331" y="222" font-size="10" text-anchor="middle" fill="#ffffff">12</text>
<circle cx="298" cy="252" r="5" fill="#ffd43b"/>
<circle cx="342" cy="252" r="5" fill="#ffd43b"/>
<text x="309" y="256" font-size="10" text-anchor="middle" fill="#ffffff">4</text>
<text x="331" y="256" font-size="10" text-anchor="middle" fill="#ffffff">11</text>
<circle cx="298" cy="286" r="5" fill="#ffd43b"/>
<circle cx="342" cy="286" r="5" fill="#ffd43b"/>
<text x="309" y="290" font-size="10" text-anchor="middle" fill="#ffffff">5</text>
<text x="331" y="290" font-size="10" text-anchor="middle" fill="#ffffff">10</text>
<circle cx="298" cy="320" r="5" fill="#ffd43b"/>
<circle cx="342" cy="320" r="5" fill="#ffd43b"/>
<text x="309" y="324" font-size="10" text-anchor="middle" fill="#ffffff">6</text>
<text x="331" y="324" font-size="10" text-anchor="middle" fill="#ffffff">9</text>
<circle cx="298" cy="354" r="5" fill="#ffd43b"/>
<circle cx="342" cy="354" r="5" fill="#ffd43b"/>
<text x="309" y="358" font-size="10" text-anchor="middle" fill="#ffffff">7</text>
<text x="331" y="358" font-size="10" text-anchor="middle" fill="#ffffff">8</text>
<path d="M364,354 L375,354 L375,218 L364,218" fill="none" stroke="#2f9e44" stroke-width="2.6" stroke-linejoin="round" stroke-linecap="round"/>
<circle cx="364" cy="354" r="4.5" fill="#2f9e44"/>
<circle cx="364" cy="218" r="4.5" fill="#2f9e44"/>
<path d="M386,150 L419,150 L419,388 L386,388" fill="none" stroke="#2f9e44" stroke-width="2.6" stroke-linejoin="round" stroke-linecap="round"/>
<circle cx="386" cy="150" r="4.5" fill="#2f9e44"/>
<circle cx="386" cy="388" r="4.5" fill="#2f9e44"/>
<path d="M408,388 L408,422" fill="none" stroke="#f08c00" stroke-width="2.4" stroke-linejoin="round" stroke-linecap="round"/>
<circle cx="408" cy="388" r="4.5" fill="#f08c00"/>
<circle cx="408" cy="422" r="4.5" fill="#f08c00"/>
<rect x="396.0" y="395.0" width="24" height="20" rx="4" fill="#ffe8cc" stroke="#f08c00" stroke-width="2"/>
<text x="427.0" y="410.0" font-size="13" font-weight="600" fill="#f08c00">100k</text>
<path d="M364,184 L353,184 L353,422 L364,422" fill="none" stroke="#2f9e44" stroke-width="2.6" stroke-linejoin="round" stroke-linecap="round"/>
<circle cx="364" cy="184" r="4.5" fill="#2f9e44"/>
<circle cx="364" cy="422" r="4.5" fill="#2f9e44"/>
<path d="M430,422 L430,456" fill="none" stroke="#f08c00" stroke-width="2.4" stroke-linejoin="round" stroke-linecap="round"/>
<circle cx="430" cy="422" r="4.5" fill="#f08c00"/>
<circle cx="430" cy="456" r="4.5" fill="#f08c00"/>
<rect x="418.0" y="429.0" width="24" height="20" rx="4" fill="#ffe8cc" stroke="#f08c00" stroke-width="2"/>
<text x="449.0" y="444.0" font-size="13" font-weight="600" fill="#f08c00">10k</text>
<path d="M408,456 L408,490" fill="none" stroke="#1971c2" stroke-width="2.4" stroke-linejoin="round" stroke-linecap="round"/>
<circle cx="408" cy="456" r="4.5" fill="#1971c2"/>
<circle cx="408" cy="490" r="4.5" fill="#1971c2"/>
<rect x="398.0" y="466.5" width="20" height="13" rx="4" fill="#d0ebff" stroke="#1971c2" stroke-width="2"/>
<text x="425.0" y="478.0" font-size="13" font-weight="600" fill="#1971c2">1nF</text>
<path d="M386,490 L386,507.0 L452,507.0" fill="none" stroke="#343a40" stroke-width="2.6" stroke-linejoin="round" stroke-linecap="round"/>
<circle cx="452" cy="507.0" r="4.5" fill="#343a40"/>
<circle cx="386" cy="490" r="4.5" fill="#343a40"/>
<path d="M430,388 L441,388 L441,524 L430,524" fill="none" stroke="#2f9e44" stroke-width="2.6" stroke-linejoin="round" stroke-linecap="round"/>
<circle cx="430" cy="388" r="4.5" fill="#2f9e44"/>
<circle cx="430" cy="524" r="4.5" fill="#2f9e44"/>
<path d="M408,524 L408,558" fill="none" stroke="#f08c00" stroke-width="2.4" stroke-linejoin="round" stroke-linecap="round"/>
<circle cx="408" cy="524" r="4.5" fill="#f08c00"/>
<circle cx="408" cy="558" r="4.5" fill="#f08c00"/>
<rect x="396.0" y="531.0" width="24" height="20" rx="4" fill="#ffe8cc" stroke="#f08c00" stroke-width="2"/>
<text x="427.0" y="546.0" font-size="13" font-weight="600" fill="#f08c00">2.2k</text>
<path d="M386,558 L386,592" fill="none" stroke="#1971c2" stroke-width="2.4" stroke-linejoin="round" stroke-linecap="round"/>
<circle cx="386" cy="558" r="4.5" fill="#1971c2"/>
<circle cx="386" cy="592" r="4.5" fill="#1971c2"/>
<rect x="376.0" y="568.5" width="20" height="13" rx="4" fill="#d0ebff" stroke="#1971c2" stroke-width="2"/>
<text x="403.0" y="580.0" font-size="13" font-weight="600" fill="#1971c2">1nF</text>
<path d="M364,592 L364,609.0 L452,609.0" fill="none" stroke="#343a40" stroke-width="2.6" stroke-linejoin="round" stroke-linecap="round"/>
<circle cx="452" cy="609.0" r="4.5" fill="#343a40"/>
<circle cx="364" cy="592" r="4.5" fill="#343a40"/>
<path d="M430,558 L520,558" fill="none" stroke="#f08c00" stroke-width="2.6" stroke-linejoin="round" stroke-linecap="round"/>
<circle cx="430" cy="558" r="5" fill="#f08c00"/>
<text x="524" y="550" font-size="11.5" font-weight="700" fill="#f08c00">ไป GPIO33</text>
<text x="524" y="568" font-size="10.5" fill="#868e96">แถว 49 หัวต่อฝั่ง ADC</text>
<rect x="612" y="108" width="175" height="112" rx="6" fill="#e7f5ff" stroke="#1971c2"/>
<text x="622" y="129" font-size="11.5" font-weight="700" fill="#212529">ขา 14 = OUTD แถว 12</text>
<text x="622" y="147" font-size="11.5" font-weight="400" fill="#212529">ขา 13 = IND− แถว 13</text>
<text x="622" y="165" font-size="11.5" font-weight="400" fill="#212529">ขา 12 = IND+ แถว 14</text>
<text x="622" y="183" font-size="11.5" font-weight="400" fill="#212529">OUTD อยู่บนสุด ต่างจาก</text>
<text x="622" y="201" font-size="11.5" font-weight="400" fill="#212529">ช่อง 3 ที่ OUTB อยู่ล่างสุด</text>
<rect x="612" y="350" width="175" height="112" rx="6" fill="#fff5f5" stroke="#e03131"/>
<text x="622" y="371" font-size="11.5" font-weight="700" fill="#212529">เช็คก่อนจ่ายไฟ:</text>
<text x="622" y="389" font-size="11.5" font-weight="400" fill="#212529">มัลติมิเตอร์โหมดปี๊บ</text>
<text x="622" y="407" font-size="11.5" font-weight="400" fill="#212529">ขา 4 ↔ ราง + ต้องปี๊บ</text>
<text x="622" y="425" font-size="11.5" font-weight="400" fill="#212529">ขา 11 ↔ ราง − ต้องปี๊บ</text>
<text x="622" y="443" font-size="11.5" font-weight="400" fill="#212529">ขา 4 ↔ ขา 11 ต้องเงียบ</text>
</svg>