<svg xmlns="http://www.w3.org/2000/svg" width="690" height="671" viewBox="0 0 690 671" font-family="Tahoma, Segoe UI, sans-serif" fill="#343a40">
<rect width="690" height="671" fill="#ffffff"/>
<text x="20" y="30" font-size="17" font-weight="700" fill="#1971c2">ผังภาครับ 1 — ไฟเลี้ยง ชิป และ VREF</text>
<text x="20" y="50" font-size="12" fill="#6c757d">MCP6004 แถว 12-18 · ตัวแบ่ง VREF แถว 9 · บัฟเฟอร์ส่งออกไปแถว 2 · บายพาสแถว 19-21</text>
<rect x="110" y="104" width="398" height="528" rx="6" fill="#ffffff" stroke="#ced4da"/>
<rect x="308" y="104" width="24" height="528" fill="#e9ecef"/>
<rect x="126" y="118" width="16" height="500" rx="8" fill="#ffc9c9"/>
<rect x="148" y="118" width="16" height="500" rx="8" fill="#a5d8ff"/>
<rect x="202" y="118" width="104" height="500" rx="8" fill="#f1f3f5"/>
<rect x="334" y="118" width="104" height="500" rx="8" fill="#f1f3f5"/>
<text x="134" y="114" font-size="13" font-weight="700" text-anchor="middle" fill="#e03131">+</text>
<text x="156" y="114" font-size="13" font-weight="700" text-anchor="middle" fill="#1971c2">–</text>
<text x="210" y="114" font-size="12" text-anchor="middle" fill="#868e96">A</text>
<text x="232" y="114" font-size="12" text-anchor="middle" fill="#868e96">B</text>
<text x="254" y="114" font-size="12" text-anchor="middle" fill="#868e96">C</text>
<text x="276" y="114" font-size="12" text-anchor="middle" fill="#868e96">D</text>
<text x="298" y="114" font-size="12" text-anchor="middle" fill="#868e96">E</text>
<text x="342" y="114" font-size="12" text-anchor="middle" fill="#868e96">F</text>
<text x="364" y="114" font-size="12" text-anchor="middle" fill="#868e96">G</text>
<text x="386" y="114" font-size="12" text-anchor="middle" fill="#868e96">H</text>
<text x="408" y="114" font-size="12" text-anchor="middle" fill="#868e96">I</text>
<text x="430" y="114" font-size="12" text-anchor="middle" fill="#868e96">J</text>
<circle cx="210" cy="150" r="3" fill="#ced4da"/>
<circle cx="232" cy="150" r="3" fill="#ced4da"/>
<circle cx="254" cy="150" r="3" fill="#ced4da"/>
<circle cx="276" cy="150" r="3" fill="#ced4da"/>
<circle cx="298" cy="150" r="3" fill="#ced4da"/>
<circle cx="342" cy="150" r="3" fill="#ced4da"/>
<circle cx="364" cy="150" r="3" fill="#ced4da"/>
<circle cx="386" cy="150" r="3" fill="#ced4da"/>
<circle cx="408" cy="150" r="3" fill="#ced4da"/>
<circle cx="430" cy="150" r="3" fill="#ced4da"/>
<circle cx="134" cy="150" r="3" fill="#ffffff"/>
<circle cx="156" cy="150" r="3" fill="#ffffff"/>
<text x="198" y="154" font-size="12" text-anchor="end" fill="#6c757d">2</text>
<circle cx="210" cy="184" r="3" fill="#ced4da"/>
<circle cx="232" cy="184" r="3" fill="#ced4da"/>
<circle cx="254" cy="184" r="3" fill="#ced4da"/>
<circle cx="276" cy="184" r="3" fill="#ced4da"/>
<circle cx="298" cy="184" r="3" fill="#ced4da"/>
<circle cx="342" cy="184" r="3" fill="#ced4da"/>
<circle cx="364" cy="184" r="3" fill="#ced4da"/>
<circle cx="386" cy="184" r="3" fill="#ced4da"/>
<circle cx="408" cy="184" r="3" fill="#ced4da"/>
<circle cx="430" cy="184" r="3" fill="#ced4da"/>
<circle cx="134" cy="184" r="3" fill="#ffffff"/>
<circle cx="156" cy="184" r="3" fill="#ffffff"/>
<text x="198" y="188" font-size="12" text-anchor="end" fill="#6c757d">9</text>
<line x1="176" y1="167.0" x2="196" y2="167.0" stroke="#ced4da" stroke-width="1.5" stroke-dasharray="3 3"/>
<circle cx="210" cy="218" r="3" fill="#ced4da"/>
<circle cx="232" cy="218" r="3" fill="#ced4da"/>
<circle cx="254" cy="218" r="3" fill="#ced4da"/>
<circle cx="276" cy="218" r="3" fill="#ced4da"/>
<circle cx="298" cy="218" r="3" fill="#ced4da"/>
<circle cx="342" cy="218" r="3" fill="#ced4da"/>
<circle cx="364" cy="218" r="3" fill="#ced4da"/>
<circle cx="386" cy="218" r="3" fill="#ced4da"/>
<circle cx="408" cy="218" r="3" fill="#ced4da"/>
<circle cx="430" cy="218" r="3" fill="#ced4da"/>
<circle cx="134" cy="218" r="3" fill="#ffffff"/>
<circle cx="156" cy="218" r="3" fill="#ffffff"/>
<text x="198" y="222" font-size="12" text-anchor="end" fill="#6c757d">11</text>
<line x1="176" y1="201.0" x2="196" y2="201.0" stroke="#ced4da" stroke-width="1.5" stroke-dasharray="3 3"/>
<circle cx="210" cy="252" r="3" fill="#ced4da"/>
<circle cx="232" cy="252" r="3" fill="#ced4da"/>
<circle cx="254" cy="252" r="3" fill="#ced4da"/>
<circle cx="276" cy="252" r="3" fill="#ced4da"/>
<circle cx="298" cy="252" r="3" fill="#ced4da"/>
<circle cx="342" cy="252" r="3" fill="#ced4da"/>
<circle cx="364" cy="252" r="3" fill="#ced4da"/>
<circle cx="386" cy="252" r="3" fill="#ced4da"/>
<circle cx="408" cy="252" r="3" fill="#ced4da"/>
<circle cx="430" cy="252" r="3" fill="#ced4da"/>
<circle cx="134" cy="252" r="3" fill="#ffffff"/>
<circle cx="156" cy="252" r="3" fill="#ffffff"/>
<text x="198" y="256" font-size="12" text-anchor="end" fill="#6c757d">12</text>
<circle cx="210" cy="286" r="3" fill="#ced4da"/>
<circle cx="232" cy="286" r="3" fill="#ced4da"/>
<circle cx="254" cy="286" r="3" fill="#ced4da"/>
<circle cx="276" cy="286" r="3" fill="#ced4da"/>
<circle cx="298" cy="286" r="3" fill="#ced4da"/>
<circle cx="342" cy="286" r="3" fill="#ced4da"/>
<circle cx="364" cy="286" r="3" fill="#ced4da"/>
<circle cx="386" cy="286" r="3" fill="#ced4da"/>
<circle cx="408" cy="286" r="3" fill="#ced4da"/>
<circle cx="430" cy="286" r="3" fill="#ced4da"/>
<circle cx="134" cy="286" r="3" fill="#ffffff"/>
<circle cx="156" cy="286" r="3" fill="#ffffff"/>
<text x="198" y="290" font-size="12" text-anchor="end" fill="#6c757d">13</text>
<circle cx="210" cy="320" r="3" fill="#ced4da"/>
<circle cx="232" cy="320" r="3" fill="#ced4da"/>
<circle cx="254" cy="320" r="3" fill="#ced4da"/>
<circle cx="276" cy="320" r="3" fill="#ced4da"/>
<circle cx="298" cy="320" r="3" fill="#ced4da"/>
<circle cx="342" cy="320" r="3" fill="#ced4da"/>
<circle cx="364" cy="320" r="3" fill="#ced4da"/>
<circle cx="386" cy="320" r="3" fill="#ced4da"/>
<circle cx="408" cy="320" r="3" fill="#ced4da"/>
<circle cx="430" cy="320" r="3" fill="#ced4da"/>
<circle cx="134" cy="320" r="3" fill="#ffffff"/>
<circle cx="156" cy="320" r="3" fill="#ffffff"/>
<text x="198" y="324" font-size="12" text-anchor="end" fill="#6c757d">14</text>
<circle cx="210" cy="354" r="3" fill="#ced4da"/>
<circle cx="232" cy="354" r="3" fill="#ced4da"/>
<circle cx="254" cy="354" r="3" fill="#ced4da"/>
<circle cx="276" cy="354" r="3" fill="#ced4da"/>
<circle cx="298" cy="354" r="3" fill="#ced4da"/>
<circle cx="342" cy="354" r="3" fill="#ced4da"/>
<circle cx="364" cy="354" r="3" fill="#ced4da"/>
<circle cx="386" cy="354" r="3" fill="#ced4da"/>
<circle cx="408" cy="354" r="3" fill="#ced4da"/>
<circle cx="430" cy="354" r="3" fill="#ced4da"/>
<circle cx="134" cy="354" r="3" fill="#ffffff"/>
<circle cx="156" cy="354" r="3" fill="#ffffff"/>
<text x="198" y="358" font-size="12" text-anchor="end" fill="#6c757d">15</text>
<circle cx="210" cy="388" r="3" fill="#ced4da"/>
<circle cx="232" cy="388" r="3" fill="#ced4da"/>
<circle cx="254" cy="388" r="3" fill="#ced4da"/>
<circle cx="276" cy="388" r="3" fill="#ced4da"/>
<circle cx="298" cy="388" r="3" fill="#ced4da"/>
<circle cx="342" cy="388" r="3" fill="#ced4da"/>
<circle cx="364" cy="388" r="3" fill="#ced4da"/>
<circle cx="386" cy="388" r="3" fill="#ced4da"/>
<circle cx="408" cy="388" r="3" fill="#ced4da"/>
<circle cx="430" cy="388" r="3" fill="#ced4da"/>
<circle cx="134" cy="388" r="3" fill="#ffffff"/>
<circle cx="156" cy="388" r="3" fill="#ffffff"/>
<text x="198" y="392" font-size="12" text-anchor="end" fill="#6c757d">16</text>
<circle cx="210" cy="422" r="3" fill="#ced4da"/>
<circle cx="232" cy="422" r="3" fill="#ced4da"/>
<circle cx="254" cy="422" r="3" fill="#ced4da"/>
<circle cx="276" cy="422" r="3" fill="#ced4da"/>
<circle cx="298" cy="422" r="3" fill="#ced4da"/>
<circle cx="342" cy="422" r="3" fill="#ced4da"/>
<circle cx="364" cy="422" r="3" fill="#ced4da"/>
<circle cx="386" cy="422" r="3" fill="#ced4da"/>
<circle cx="408" cy="422" r="3" fill="#ced4da"/>
<circle cx="430" cy="422" r="3" fill="#ced4da"/>
<circle cx="134" cy="422" r="3" fill="#ffffff"/>
<circle cx="156" cy="422" r="3" fill="#ffffff"/>
<text x="198" y="426" font-size="12" text-anchor="end" fill="#6c757d">17</text>
<circle cx="210" cy="456" r="3" fill="#ced4da"/>
<circle cx="232" cy="456" r="3" fill="#ced4da"/>
<circle cx="254" cy="456" r="3" fill="#ced4da"/>
<circle cx="276" cy="456" r="3" fill="#ced4da"/>
<circle cx="298" cy="456" r="3" fill="#ced4da"/>
<circle cx="342" cy="456" r="3" fill="#ced4da"/>
<circle cx="364" cy="456" r="3" fill="#ced4da"/>
<circle cx="386" cy="456" r="3" fill="#ced4da"/>
<circle cx="408" cy="456" r="3" fill="#ced4da"/>
<circle cx="430" cy="456" r="3" fill="#ced4da"/>
<circle cx="134" cy="456" r="3" fill="#ffffff"/>
<circle cx="156" cy="456" r="3" fill="#ffffff"/>
<text x="198" y="460" font-size="12" text-anchor="end" fill="#6c757d">18</text>
<circle cx="210" cy="490" r="3" fill="#ced4da"/>
<circle cx="232" cy="490" r="3" fill="#ced4da"/>
<circle cx="254" cy="490" r="3" fill="#ced4da"/>
<circle cx="276" cy="490" r="3" fill="#ced4da"/>
<circle cx="298" cy="490" r="3" fill="#ced4da"/>
<circle cx="342" cy="490" r="3" fill="#ced4da"/>
<circle cx="364" cy="490" r="3" fill="#ced4da"/>
<circle cx="386" cy="490" r="3" fill="#ced4da"/>
<circle cx="408" cy="490" r="3" fill="#ced4da"/>
<circle cx="430" cy="490" r="3" fill="#ced4da"/>
<circle cx="134" cy="490" r="3" fill="#ffffff"/>
<circle cx="156" cy="490" r="3" fill="#ffffff"/>
<text x="198" y="494" font-size="12" text-anchor="end" fill="#6c757d">19</text>
<circle cx="210" cy="524" r="3" fill="#ced4da"/>
<circle cx="232" cy="524" r="3" fill="#ced4da"/>
<circle cx="254" cy="524" r="3" fill="#ced4da"/>
<circle cx="276" cy="524" r="3" fill="#ced4da"/>
<circle cx="298" cy="524" r="3" fill="#ced4da"/>
<circle cx="342" cy="524" r="3" fill="#ced4da"/>
<circle cx="364" cy="524" r="3" fill="#ced4da"/>
<circle cx="386" cy="524" r="3" fill="#ced4da"/>
<circle cx="408" cy="524" r="3" fill="#ced4da"/>
<circle cx="430" cy="524" r="3" fill="#ced4da"/>
<circle cx="134" cy="524" r="3" fill="#ffffff"/>
<circle cx="156" cy="524" r="3" fill="#ffffff"/>
<text x="198" y="528" font-size="12" text-anchor="end" fill="#6c757d">21</text>
<line x1="176" y1="507.0" x2="196" y2="507.0" stroke="#ced4da" stroke-width="1.5" stroke-dasharray="3 3"/>
<circle cx="210" cy="558" r="3" fill="#ced4da"/>
<circle cx="232" cy="558" r="3" fill="#ced4da"/>
<circle cx="254" cy="558" r="3" fill="#ced4da"/>
<circle cx="276" cy="558" r="3" fill="#ced4da"/>
<circle cx="298" cy="558" r="3" fill="#ced4da"/>
<circle cx="342" cy="558" r="3" fill="#ced4da"/>
<circle cx="364" cy="558" r="3" fill="#ced4da"/>
<circle cx="386" cy="558" r="3" fill="#ced4da"/>
<circle cx="408" cy="558" r="3" fill="#ced4da"/>
<circle cx="430" cy="558" r="3" fill="#ced4da"/>
<circle cx="134" cy="558" r="3" fill="#ffffff"/>
<circle cx="156" cy="558" r="3" fill="#ffffff"/>
<text x="198" y="562" font-size="12" text-anchor="end" fill="#6c757d">42</text>
<line x1="176" y1="541.0" x2="196" y2="541.0" stroke="#ced4da" stroke-width="1.5" stroke-dasharray="3 3"/>
<circle cx="210" cy="592" r="3" fill="#ced4da"/>
<circle cx="232" cy="592" r="3" fill="#ced4da"/>
<circle cx="254" cy="592" r="3" fill="#ced4da"/>
<circle cx="276" cy="592" r="3" fill="#ced4da"/>
<circle cx="298" cy="592" r="3" fill="#ced4da"/>
<circle cx="342" cy="592" r="3" fill="#ced4da"/>
<circle cx="364" cy="592" r="3" fill="#ced4da"/>
<circle cx="386" cy="592" r="3" fill="#ced4da"/>
<circle cx="408" cy="592" r="3" fill="#ced4da"/>
<circle cx="430" cy="592" r="3" fill="#ced4da"/>
<circle cx="134" cy="592" r="3" fill="#ffffff"/>
<circle cx="156" cy="592" r="3" fill="#ffffff"/>
<text x="198" y="596" font-size="12" text-anchor="end" fill="#6c757d">55</text>
<line x1="176" y1="575.0" x2="196" y2="575.0" stroke="#ced4da" stroke-width="1.5" stroke-dasharray="3 3"/>
<rect x="285" y="235" width="70" height="238" rx="5" fill="#343a40"/>
<path d="M311.0,235 a9,9 0 0 0 18,0" fill="none" stroke="#adb5bd" stroke-width="2"/>
<text x="320" y="227" font-size="12" font-weight="700" text-anchor="middle" fill="#343a40">MCP6004</text>
<circle cx="298" cy="252" r="5" fill="#ffd43b"/>
<circle cx="342" cy="252" r="5" fill="#ffd43b"/>
<text x="309" y="256" font-size="10" text-anchor="middle" fill="#ffffff">1</text>
<text x="331" y="256" font-size="10" text-anchor="middle" fill="#ffffff">14</text>
<circle cx="298" cy="286" r="5" fill="#ffd43b"/>
<circle cx="342" cy="286" r="5" fill="#ffd43b"/>
<text x="309" y="290" font-size="10" text-anchor="middle" fill="#ffffff">2</text>
<text x="331" y="290" font-size="10" text-anchor="middle" fill="#ffffff">13</text>
<circle cx="298" cy="320" r="5" fill="#ffd43b"/>
<circle cx="342" cy="320" r="5" fill="#ffd43b"/>
<text x="309" y="324" font-size="10" text-anchor="middle" fill="#ffffff">3</text>
<text x="331" y="324" font-size="10" text-anchor="middle" fill="#ffffff">12</text>
<circle cx="298" cy="354" r="5" fill="#ffd43b"/>
<circle cx="342" cy="354" r="5" fill="#ffd43b"/>
<text x="309" y="358" font-size="10" text-anchor="middle" fill="#ffffff">4</text>
<text x="331" y="358" font-size="10" text-anchor="middle" fill="#ffffff">11</text>
<circle cx="298" cy="388" r="5" fill="#ffd43b"/>
<circle cx="342" cy="388" r="5" fill="#ffd43b"/>
<text x="309" y="392" font-size="10" text-anchor="middle" fill="#ffffff">5</text>
<text x="331" y="392" font-size="10" text-anchor="middle" fill="#ffffff">10</text>
<circle cx="298" cy="422" r="5" fill="#ffd43b"/>
<circle cx="342" cy="422" r="5" fill="#ffd43b"/>
<text x="309" y="426" font-size="10" text-anchor="middle" fill="#ffffff">6</text>
<text x="331" y="426" font-size="10" text-anchor="middle" fill="#ffffff">9</text>
<circle cx="298" cy="456" r="5" fill="#ffd43b"/>
<circle cx="342" cy="456" r="5" fill="#ffd43b"/>
<text x="309" y="460" font-size="10" text-anchor="middle" fill="#ffffff">7</text>
<text x="331" y="460" font-size="10" text-anchor="middle" fill="#ffffff">8</text>
<rect x="415" y="542" width="54" height="32" rx="5" fill="#343a40"/>
<circle cx="430" cy="558" r="5" fill="#ffd43b"/>
<text x="442" y="562" font-size="10" fill="#ffffff">3V3</text>
<text x="442" y="528" font-size="12" font-weight="700" text-anchor="middle" fill="#343a40">ESP32</text>
<rect x="415" y="576" width="54" height="32" rx="5" fill="#343a40"/>
<circle cx="430" cy="592" r="5" fill="#ffd43b"/>
<text x="442" y="596" font-size="10" fill="#ffffff">GND</text>
<path d="M134,252 L145.0,252" fill="none" stroke="#e03131" stroke-width="3" stroke-linejoin="round" stroke-linecap="round"/>
<path d="M145.0,252 L156,252" fill="none" stroke="#343a40" stroke-width="3" stroke-linejoin="round" stroke-linecap="round"/>
<circle cx="134" cy="252" r="4.5" fill="#e03131"/>
<circle cx="156" cy="252" r="4.5" fill="#343a40"/>
<rect x="138.0" y="243" width="14" height="18" rx="4" fill="#d0ebff" stroke="#1971c2" stroke-width="2"/>
<rect x="146.0" y="245" width="5" height="14" rx="2" fill="#495057"/>
<text x="134" y="241" font-size="14" font-weight="700" text-anchor="middle" fill="#e03131">+</text>
<text x="120" y="257" font-size="13" font-weight="600" text-anchor="end" fill="#1971c2">10µF</text>
<path d="M134,286 L156,286" fill="none" stroke="#1971c2" stroke-width="2.4" stroke-linejoin="round" stroke-linecap="round"/>
<circle cx="134" cy="286" r="4.5" fill="#1971c2"/>
<circle cx="156" cy="286" r="4.5" fill="#1971c2"/>
<rect x="138.0" y="277" width="14" height="18" rx="4" fill="#d0ebff" stroke="#1971c2" stroke-width="2"/>
<text x="120" y="291" font-size="13" font-weight="600" text-anchor="end" fill="#1971c2">100nF</text>
<text x="120" y="307" font-size="10.5" text-anchor="end" fill="#868e96">ฟิล์มหรือเซรามิกก็ได้</text>
<path d="M386,558 L386,575.0 L134,575.0" fill="none" stroke="#e03131" stroke-width="2.6" stroke-linejoin="round" stroke-linecap="round"/>
<circle cx="134" cy="575.0" r="4.5" fill="#e03131"/>
<circle cx="386" cy="558" r="4.5" fill="#e03131"/>
<path d="M386,592 L386,609.0 L156,609.0" fill="none" stroke="#343a40" stroke-width="2.6" stroke-linejoin="round" stroke-linecap="round"/>
<circle cx="156" cy="609.0" r="4.5" fill="#343a40"/>
<circle cx="386" cy="592" r="4.5" fill="#343a40"/>
<path d="M232,184 L232,167.0 L134,167.0" fill="none" stroke="#f08c00" stroke-width="2.4" stroke-linejoin="round" stroke-linecap="round"/>
<circle cx="134" cy="167.0" r="4.5" fill="#f08c00"/>
<circle cx="232" cy="184" r="4.5" fill="#f08c00"/>
<rect x="205.0" y="155.0" width="20" height="24" rx="4" fill="#ffe8cc" stroke="#f08c00" stroke-width="2"/>
<text x="120" y="172" font-size="12" text-anchor="end" font-weight="600" fill="#f08c00">10k</text>
<path d="M254,184 L254,201.0 L156,201.0" fill="none" stroke="#f08c00" stroke-width="2.4" stroke-linejoin="round" stroke-linecap="round"/>
<circle cx="156" cy="201.0" r="4.5" fill="#f08c00"/>
<circle cx="254" cy="184" r="4.5" fill="#f08c00"/>
<rect x="216.0" y="189.0" width="20" height="24" rx="4" fill="#ffe8cc" stroke="#f08c00" stroke-width="2"/>
<text x="120" y="206" font-size="12" text-anchor="end" font-weight="600" fill="#f08c00">10k</text>
<path d="M276,184 L276.0,201.0" fill="none" stroke="#e03131" stroke-width="3" stroke-linejoin="round" stroke-linecap="round"/>
<path d="M276.0,201.0 L276,218" fill="none" stroke="#343a40" stroke-width="3" stroke-linejoin="round" stroke-linecap="round"/>
<rect x="265.0" y="191.0" width="22" height="20" rx="4" fill="#d0ebff" stroke="#1971c2" stroke-width="2"/>
<rect x="267.0" y="202.0" width="18" height="7.0" rx="2" fill="#495057"/>
<circle cx="276" cy="184" r="4.5" fill="#e03131"/>
<circle cx="276" cy="218" r="4.5" fill="#343a40"/>
<text x="289" y="189" font-size="15" font-weight="700" text-anchor="middle" fill="#e03131">+</text>
<text x="289" y="223" font-size="15" font-weight="700" text-anchor="middle" fill="#343a40">–</text>
<text x="294.0" y="206.0" font-size="13" font-weight="600" fill="#1971c2">10µF</text>
<path d="M254,218 L254,235.0 L156,235.0" fill="none" stroke="#343a40" stroke-width="2.6" stroke-linejoin="round" stroke-linecap="round"/>
<circle cx="156" cy="235.0" r="4.5" fill="#343a40"/>
<circle cx="254" cy="218" r="4.5" fill="#343a40"/>
<path d="M298,184 L452,184 L452,388 L364,388" fill="none" stroke="#2f9e44" stroke-width="2.6" stroke-linejoin="round" stroke-linecap="round"/>
<circle cx="298" cy="184" r="4.5" fill="#2f9e44"/>
<circle cx="364" cy="388" r="4.5" fill="#2f9e44"/>
<path d="M364,422 L364,456" fill="none" stroke="#2f9e44" stroke-width="2.6" stroke-linejoin="round" stroke-linecap="round"/>
<circle cx="364" cy="422" r="4.5" fill="#2f9e44"/>
<circle cx="364" cy="456" r="4.5" fill="#2f9e44"/>
<path d="M386,456 L470,456 L470,133.0 L232,133.0 L232,150" fill="none" stroke="#2f9e44" stroke-width="2.6" stroke-linejoin="round" stroke-linecap="round"/>
<circle cx="386" cy="456" r="4.5" fill="#2f9e44"/>
<circle cx="232" cy="150" r="4.5" fill="#2f9e44"/>
<path d="M232,354 L232,337.0 L134,337.0" fill="none" stroke="#e03131" stroke-width="2.6" stroke-linejoin="round" stroke-linecap="round"/>
<circle cx="134" cy="337.0" r="4.5" fill="#e03131"/>
<circle cx="232" cy="354" r="4.5" fill="#e03131"/>
<path d="M386,354 L486,354 L486,473.0 L156,473.0" fill="none" stroke="#343a40" stroke-width="2.6" stroke-linejoin="round" stroke-linecap="round"/>
<circle cx="156" cy="473.0" r="4.5" fill="#343a40"/>
<circle cx="386" cy="354" r="4.5" fill="#343a40"/>
<path d="M210,354 L221,354 L221,490 L210,490" fill="none" stroke="#e03131" stroke-width="2.6" stroke-linejoin="round" stroke-linecap="round"/>
<circle cx="210" cy="354" r="4.5" fill="#e03131"/>
<circle cx="210" cy="490" r="4.5" fill="#e03131"/>
<path d="M276,490 L276,524" fill="none" stroke="#1971c2" stroke-width="2.4" stroke-linejoin="round" stroke-linecap="round"/>
<circle cx="276" cy="490" r="4.5" fill="#1971c2"/>
<circle cx="276" cy="524" r="4.5" fill="#1971c2"/>
<rect x="266.0" y="500.5" width="20" height="13" rx="4" fill="#d0ebff" stroke="#1971c2" stroke-width="2"/>
<text x="293.0" y="512.0" font-size="13" font-weight="600" fill="#1971c2">100nF</text>
<path d="M254,524 L254,541.0 L156,541.0" fill="none" stroke="#343a40" stroke-width="2.6" stroke-linejoin="round" stroke-linecap="round"/>
<circle cx="156" cy="541.0" r="4.5" fill="#343a40"/>
<circle cx="254" cy="524" r="4.5" fill="#343a40"/>
<path d="M430,252 L430,354" fill="none" stroke="#343a40" stroke-width="2.6" stroke-linejoin="round" stroke-linecap="round"/>
<circle cx="430" cy="252" r="4.5" fill="#343a40"/>
<circle cx="430" cy="354" r="4.5" fill="#343a40"/>
<path d="M364,286 L364,320" fill="none" stroke="#2f9e44" stroke-width="2.6" stroke-linejoin="round" stroke-linecap="round"/>
<circle cx="364" cy="286" r="4.5" fill="#2f9e44"/>
<circle cx="364" cy="320" r="4.5" fill="#2f9e44"/>
<text x="328" y="155" font-size="11" text-anchor="start" font-weight="700" fill="#f08c00">โหนด VREF 1.65V</text>
<rect x="516" y="108" width="160" height="112" rx="6" fill="#fff4e6" stroke="#f08c00"/>
<text x="526" y="129" font-size="11.5" font-weight="700" fill="#212529">ราง + = 3.3V</text>
<text x="526" y="147" font-size="11.5" font-weight="400" fill="#212529">ราง – = GND</text>
<text x="526" y="165" font-size="11.5" font-weight="400" fill="#212529">อย่าลืมสะพานข้าม</text>
<text x="526" y="183" font-size="11.5" font-weight="400" fill="#212529">ช่องว่างกลางบอร์ด</text>
<text x="526" y="201" font-size="11.5" font-weight="400" fill="#212529">ทั้งสองราง</text>
<rect x="516" y="280" width="160" height="112" rx="6" fill="#fff5f5" stroke="#e03131"/>
<text x="526" y="301" font-size="11.5" font-weight="700" fill="#212529">คาปามีขั้ว (10µF)</text>
<text x="526" y="319" font-size="11.5" font-weight="400" fill="#212529">จุดแดง + = ขายาว</text>
<text x="526" y="337" font-size="11.5" font-weight="400" fill="#212529">จุดดำ – = ขาสั้น ฝั่งที่มี</text>
<text x="526" y="355" font-size="11.5" font-weight="400" fill="#212529">แถบขาวคาดบนกระป๋อง</text>
<text x="526" y="373" font-size="11.5" font-weight="400" fill="#212529">เสียบกลับ = ระเบิด</text>
<rect x="516" y="415" width="160" height="94" rx="6" fill="#e7f5ff" stroke="#1971c2"/>
<text x="526" y="436" font-size="11.5" font-weight="700" fill="#212529">ออปแอมป์ที่ไม่ได้ใช้</text>
<text x="526" y="454" font-size="11.5" font-weight="400" fill="#212529">ขา 14 ลงกราวด์</text>
<text x="526" y="472" font-size="11.5" font-weight="400" fill="#212529">ขา 13 ต่อขา 12</text>
<text x="526" y="490" font-size="11.5" font-weight="400" fill="#212529">ห้ามปล่อยลอย</text>
<rect x="516" y="535" width="160" height="112" rx="6" fill="#ebfbee" stroke="#2f9e44"/>
<text x="526" y="556" font-size="11.5" font-weight="700" fill="#212529">บายพาสแถว 19–21</text>
<text x="526" y="574" font-size="11.5" font-weight="400" fill="#212529">ลาก VDD ลงมาที่ 19</text>
<text x="526" y="592" font-size="11.5" font-weight="400" fill="#212529">ทำ GND ที่ 21</text>
<text x="526" y="610" font-size="11.5" font-weight="400" fill="#212529">คาปาจึงเว้น 2 แถว = 5.08 มม.</text>
<text x="526" y="628" font-size="11.5" font-weight="400" fill="#212529">ฟิล์ม WIMA เสียบได้พอดี</text>
</svg>