<svg xmlns="http://www.w3.org/2000/svg" width="690" height="566" viewBox="0 0 690 566" font-family="Tahoma, Segoe UI, sans-serif" fill="#343a40">
<rect width="690" height="566" fill="#ffffff"/>
<text x="20" y="30" font-size="17" font-weight="700" fill="#1971c2">ผังภาครับ 3A — สเตจขยายที่ 2</text>
<text x="20" y="50" font-size="12" fill="#6c757d">ขา 1 ป้อนเข้าขา 5 · Rf2 แถว 30-34 · Rg2 แถว 34-37 · Cg2 แถว 37-39</text>
<rect x="110" y="104" width="398" height="426" rx="6" fill="#ffffff" stroke="#ced4da"/>
<rect x="308" y="104" width="24" height="426" fill="#e9ecef"/>
<rect x="126" y="118" width="16" height="398" rx="8" fill="#ffc9c9"/>
<rect x="148" y="118" width="16" height="398" rx="8" fill="#a5d8ff"/>
<rect x="202" y="118" width="104" height="398" rx="8" fill="#f1f3f5"/>
<rect x="334" y="118" width="104" height="398" rx="8" fill="#f1f3f5"/>
<text x="134" y="114" font-size="13" font-weight="700" text-anchor="middle" fill="#e03131">+</text>
<text x="156" y="114" font-size="13" font-weight="700" text-anchor="middle" fill="#1971c2">–</text>
<text x="210" y="114" font-size="12" text-anchor="middle" fill="#868e96">A</text>
<text x="232" y="114" font-size="12" text-anchor="middle" fill="#868e96">B</text>
<text x="254" y="114" font-size="12" text-anchor="middle" fill="#868e96">C</text>
<text x="276" y="114" font-size="12" text-anchor="middle" fill="#868e96">D</text>
<text x="298" y="114" font-size="12" text-anchor="middle" fill="#868e96">E</text>
<text x="342" y="114" font-size="12" text-anchor="middle" fill="#868e96">F</text>
<text x="364" y="114" font-size="12" text-anchor="middle" fill="#868e96">G</text>
<text x="386" y="114" font-size="12" text-anchor="middle" fill="#868e96">H</text>
<text x="408" y="114" font-size="12" text-anchor="middle" fill="#868e96">I</text>
<text x="430" y="114" font-size="12" text-anchor="middle" fill="#868e96">J</text>
<circle cx="210" cy="150" r="3" fill="#ced4da"/>
<circle cx="232" cy="150" r="3" fill="#ced4da"/>
<circle cx="254" cy="150" r="3" fill="#ced4da"/>
<circle cx="276" cy="150" r="3" fill="#ced4da"/>
<circle cx="298" cy="150" r="3" fill="#ced4da"/>
<circle cx="342" cy="150" r="3" fill="#ced4da"/>
<circle cx="364" cy="150" r="3" fill="#ced4da"/>
<circle cx="386" cy="150" r="3" fill="#ced4da"/>
<circle cx="408" cy="150" r="3" fill="#ced4da"/>
<circle cx="430" cy="150" r="3" fill="#ced4da"/>
<circle cx="134" cy="150" r="3" fill="#ffffff"/>
<circle cx="156" cy="150" r="3" fill="#ffffff"/>
<text x="198" y="154" font-size="12" text-anchor="end" fill="#6c757d">12</text>
<circle cx="210" cy="184" r="3" fill="#ced4da"/>
<circle cx="232" cy="184" r="3" fill="#ced4da"/>
<circle cx="254" cy="184" r="3" fill="#ced4da"/>
<circle cx="276" cy="184" r="3" fill="#ced4da"/>
<circle cx="298" cy="184" r="3" fill="#ced4da"/>
<circle cx="342" cy="184" r="3" fill="#ced4da"/>
<circle cx="364" cy="184" r="3" fill="#ced4da"/>
<circle cx="386" cy="184" r="3" fill="#ced4da"/>
<circle cx="408" cy="184" r="3" fill="#ced4da"/>
<circle cx="430" cy="184" r="3" fill="#ced4da"/>
<circle cx="134" cy="184" r="3" fill="#ffffff"/>
<circle cx="156" cy="184" r="3" fill="#ffffff"/>
<text x="198" y="188" font-size="12" text-anchor="end" fill="#6c757d">13</text>
<circle cx="210" cy="218" r="3" fill="#ced4da"/>
<circle cx="232" cy="218" r="3" fill="#ced4da"/>
<circle cx="254" cy="218" r="3" fill="#ced4da"/>
<circle cx="276" cy="218" r="3" fill="#ced4da"/>
<circle cx="298" cy="218" r="3" fill="#ced4da"/>
<circle cx="342" cy="218" r="3" fill="#ced4da"/>
<circle cx="364" cy="218" r="3" fill="#ced4da"/>
<circle cx="386" cy="218" r="3" fill="#ced4da"/>
<circle cx="408" cy="218" r="3" fill="#ced4da"/>
<circle cx="430" cy="218" r="3" fill="#ced4da"/>
<circle cx="134" cy="218" r="3" fill="#ffffff"/>
<circle cx="156" cy="218" r="3" fill="#ffffff"/>
<text x="198" y="222" font-size="12" text-anchor="end" fill="#6c757d">14</text>
<circle cx="210" cy="252" r="3" fill="#ced4da"/>
<circle cx="232" cy="252" r="3" fill="#ced4da"/>
<circle cx="254" cy="252" r="3" fill="#ced4da"/>
<circle cx="276" cy="252" r="3" fill="#ced4da"/>
<circle cx="298" cy="252" r="3" fill="#ced4da"/>
<circle cx="342" cy="252" r="3" fill="#ced4da"/>
<circle cx="364" cy="252" r="3" fill="#ced4da"/>
<circle cx="386" cy="252" r="3" fill="#ced4da"/>
<circle cx="408" cy="252" r="3" fill="#ced4da"/>
<circle cx="430" cy="252" r="3" fill="#ced4da"/>
<circle cx="134" cy="252" r="3" fill="#ffffff"/>
<circle cx="156" cy="252" r="3" fill="#ffffff"/>
<text x="198" y="256" font-size="12" text-anchor="end" fill="#6c757d">15</text>
<circle cx="210" cy="286" r="3" fill="#ced4da"/>
<circle cx="232" cy="286" r="3" fill="#ced4da"/>
<circle cx="254" cy="286" r="3" fill="#ced4da"/>
<circle cx="276" cy="286" r="3" fill="#ced4da"/>
<circle cx="298" cy="286" r="3" fill="#ced4da"/>
<circle cx="342" cy="286" r="3" fill="#ced4da"/>
<circle cx="364" cy="286" r="3" fill="#ced4da"/>
<circle cx="386" cy="286" r="3" fill="#ced4da"/>
<circle cx="408" cy="286" r="3" fill="#ced4da"/>
<circle cx="430" cy="286" r="3" fill="#ced4da"/>
<circle cx="134" cy="286" r="3" fill="#ffffff"/>
<circle cx="156" cy="286" r="3" fill="#ffffff"/>
<text x="198" y="290" font-size="12" text-anchor="end" fill="#6c757d">16</text>
<circle cx="210" cy="320" r="3" fill="#ced4da"/>
<circle cx="232" cy="320" r="3" fill="#ced4da"/>
<circle cx="254" cy="320" r="3" fill="#ced4da"/>
<circle cx="276" cy="320" r="3" fill="#ced4da"/>
<circle cx="298" cy="320" r="3" fill="#ced4da"/>
<circle cx="342" cy="320" r="3" fill="#ced4da"/>
<circle cx="364" cy="320" r="3" fill="#ced4da"/>
<circle cx="386" cy="320" r="3" fill="#ced4da"/>
<circle cx="408" cy="320" r="3" fill="#ced4da"/>
<circle cx="430" cy="320" r="3" fill="#ced4da"/>
<circle cx="134" cy="320" r="3" fill="#ffffff"/>
<circle cx="156" cy="320" r="3" fill="#ffffff"/>
<text x="198" y="324" font-size="12" text-anchor="end" fill="#6c757d">17</text>
<circle cx="210" cy="354" r="3" fill="#ced4da"/>
<circle cx="232" cy="354" r="3" fill="#ced4da"/>
<circle cx="254" cy="354" r="3" fill="#ced4da"/>
<circle cx="276" cy="354" r="3" fill="#ced4da"/>
<circle cx="298" cy="354" r="3" fill="#ced4da"/>
<circle cx="342" cy="354" r="3" fill="#ced4da"/>
<circle cx="364" cy="354" r="3" fill="#ced4da"/>
<circle cx="386" cy="354" r="3" fill="#ced4da"/>
<circle cx="408" cy="354" r="3" fill="#ced4da"/>
<circle cx="430" cy="354" r="3" fill="#ced4da"/>
<circle cx="134" cy="354" r="3" fill="#ffffff"/>
<circle cx="156" cy="354" r="3" fill="#ffffff"/>
<text x="198" y="358" font-size="12" text-anchor="end" fill="#6c757d">18</text>
<circle cx="210" cy="388" r="3" fill="#ced4da"/>
<circle cx="232" cy="388" r="3" fill="#ced4da"/>
<circle cx="254" cy="388" r="3" fill="#ced4da"/>
<circle cx="276" cy="388" r="3" fill="#ced4da"/>
<circle cx="298" cy="388" r="3" fill="#ced4da"/>
<circle cx="342" cy="388" r="3" fill="#ced4da"/>
<circle cx="364" cy="388" r="3" fill="#ced4da"/>
<circle cx="386" cy="388" r="3" fill="#ced4da"/>
<circle cx="408" cy="388" r="3" fill="#ced4da"/>
<circle cx="430" cy="388" r="3" fill="#ced4da"/>
<circle cx="134" cy="388" r="3" fill="#ffffff"/>
<circle cx="156" cy="388" r="3" fill="#ffffff"/>
<text x="198" y="392" font-size="12" text-anchor="end" fill="#6c757d">30</text>
<line x1="176" y1="371.0" x2="196" y2="371.0" stroke="#ced4da" stroke-width="1.5" stroke-dasharray="3 3"/>
<circle cx="210" cy="422" r="3" fill="#ced4da"/>
<circle cx="232" cy="422" r="3" fill="#ced4da"/>
<circle cx="254" cy="422" r="3" fill="#ced4da"/>
<circle cx="276" cy="422" r="3" fill="#ced4da"/>
<circle cx="298" cy="422" r="3" fill="#ced4da"/>
<circle cx="342" cy="422" r="3" fill="#ced4da"/>
<circle cx="364" cy="422" r="3" fill="#ced4da"/>
<circle cx="386" cy="422" r="3" fill="#ced4da"/>
<circle cx="408" cy="422" r="3" fill="#ced4da"/>
<circle cx="430" cy="422" r="3" fill="#ced4da"/>
<circle cx="134" cy="422" r="3" fill="#ffffff"/>
<circle cx="156" cy="422" r="3" fill="#ffffff"/>
<text x="198" y="426" font-size="12" text-anchor="end" fill="#6c757d">34</text>
<line x1="176" y1="405.0" x2="196" y2="405.0" stroke="#ced4da" stroke-width="1.5" stroke-dasharray="3 3"/>
<circle cx="210" cy="456" r="3" fill="#ced4da"/>
<circle cx="232" cy="456" r="3" fill="#ced4da"/>
<circle cx="254" cy="456" r="3" fill="#ced4da"/>
<circle cx="276" cy="456" r="3" fill="#ced4da"/>
<circle cx="298" cy="456" r="3" fill="#ced4da"/>
<circle cx="342" cy="456" r="3" fill="#ced4da"/>
<circle cx="364" cy="456" r="3" fill="#ced4da"/>
<circle cx="386" cy="456" r="3" fill="#ced4da"/>
<circle cx="408" cy="456" r="3" fill="#ced4da"/>
<circle cx="430" cy="456" r="3" fill="#ced4da"/>
<circle cx="134" cy="456" r="3" fill="#ffffff"/>
<circle cx="156" cy="456" r="3" fill="#ffffff"/>
<text x="198" y="460" font-size="12" text-anchor="end" fill="#6c757d">37</text>
<line x1="176" y1="439.0" x2="196" y2="439.0" stroke="#ced4da" stroke-width="1.5" stroke-dasharray="3 3"/>
<circle cx="210" cy="490" r="3" fill="#ced4da"/>
<circle cx="232" cy="490" r="3" fill="#ced4da"/>
<circle cx="254" cy="490" r="3" fill="#ced4da"/>
<circle cx="276" cy="490" r="3" fill="#ced4da"/>
<circle cx="298" cy="490" r="3" fill="#ced4da"/>
<circle cx="342" cy="490" r="3" fill="#ced4da"/>
<circle cx="364" cy="490" r="3" fill="#ced4da"/>
<circle cx="386" cy="490" r="3" fill="#ced4da"/>
<circle cx="408" cy="490" r="3" fill="#ced4da"/>
<circle cx="430" cy="490" r="3" fill="#ced4da"/>
<circle cx="134" cy="490" r="3" fill="#ffffff"/>
<circle cx="156" cy="490" r="3" fill="#ffffff"/>
<text x="198" y="494" font-size="12" text-anchor="end" fill="#6c757d">39</text>
<line x1="176" y1="473.0" x2="196" y2="473.0" stroke="#ced4da" stroke-width="1.5" stroke-dasharray="3 3"/>
<rect x="285" y="133" width="70" height="238" rx="5" fill="#343a40"/>
<path d="M311.0,133 a9,9 0 0 0 18,0" fill="none" stroke="#adb5bd" stroke-width="2"/>
<text x="320" y="125" font-size="12" font-weight="700" text-anchor="middle" fill="#343a40">MCP6004</text>
<circle cx="298" cy="150" r="5" fill="#ffd43b"/>
<circle cx="342" cy="150" r="5" fill="#ffd43b"/>
<text x="309" y="154" font-size="10" text-anchor="middle" fill="#ffffff">1</text>
<text x="331" y="154" font-size="10" text-anchor="middle" fill="#ffffff">14</text>
<circle cx="298" cy="184" r="5" fill="#ffd43b"/>
<circle cx="342" cy="184" r="5" fill="#ffd43b"/>
<text x="309" y="188" font-size="10" text-anchor="middle" fill="#ffffff">2</text>
<text x="331" y="188" font-size="10" text-anchor="middle" fill="#ffffff">13</text>
<circle cx="298" cy="218" r="5" fill="#ffd43b"/>
<circle cx="342" cy="218" r="5" fill="#ffd43b"/>
<text x="309" y="222" font-size="10" text-anchor="middle" fill="#ffffff">3</text>
<text x="331" y="222" font-size="10" text-anchor="middle" fill="#ffffff">12</text>
<circle cx="298" cy="252" r="5" fill="#ffd43b"/>
<circle cx="342" cy="252" r="5" fill="#ffd43b"/>
<text x="309" y="256" font-size="10" text-anchor="middle" fill="#ffffff">4</text>
<text x="331" y="256" font-size="10" text-anchor="middle" fill="#ffffff">11</text>
<circle cx="298" cy="286" r="5" fill="#ffd43b"/>
<circle cx="342" cy="286" r="5" fill="#ffd43b"/>
<text x="309" y="290" font-size="10" text-anchor="middle" fill="#ffffff">5</text>
<text x="331" y="290" font-size="10" text-anchor="middle" fill="#ffffff">10</text>
<circle cx="298" cy="320" r="5" fill="#ffd43b"/>
<circle cx="342" cy="320" r="5" fill="#ffd43b"/>
<text x="309" y="324" font-size="10" text-anchor="middle" fill="#ffffff">6</text>
<text x="331" y="324" font-size="10" text-anchor="middle" fill="#ffffff">9</text>
<circle cx="298" cy="354" r="5" fill="#ffd43b"/>
<circle cx="342" cy="354" r="5" fill="#ffd43b"/>
<text x="309" y="358" font-size="10" text-anchor="middle" fill="#ffffff">7</text>
<text x="331" y="358" font-size="10" text-anchor="middle" fill="#ffffff">8</text>
<path d="M254,150 L243,150 L243,286 L254,286" fill="none" stroke="#2f9e44" stroke-width="2.6" stroke-linejoin="round" stroke-linecap="round"/>
<circle cx="254" cy="150" r="4.5" fill="#2f9e44"/>
<circle cx="254" cy="286" r="4.5" fill="#2f9e44"/>
<path d="M232,354 L221,354 L221,388 L210,388" fill="none" stroke="#2f9e44" stroke-width="2.6" stroke-linejoin="round" stroke-linecap="round"/>
<circle cx="232" cy="354" r="4.5" fill="#2f9e44"/>
<circle cx="210" cy="388" r="4.5" fill="#2f9e44"/>
<path d="M232,388 L232,422" fill="none" stroke="#f08c00" stroke-width="2.4" stroke-linejoin="round" stroke-linecap="round"/>
<circle cx="232" cy="388" r="4.5" fill="#f08c00"/>
<circle cx="232" cy="422" r="4.5" fill="#f08c00"/>
<rect x="220.0" y="395.0" width="24" height="20" rx="4" fill="#ffe8cc" stroke="#f08c00" stroke-width="2"/>
<text x="251.0" y="410.0" font-size="13" font-weight="600" fill="#f08c00">100k</text>
<path d="M276,320 L265,320 L265,422 L276,422" fill="none" stroke="#2f9e44" stroke-width="2.6" stroke-linejoin="round" stroke-linecap="round"/>
<circle cx="276" cy="320" r="4.5" fill="#2f9e44"/>
<circle cx="276" cy="422" r="4.5" fill="#2f9e44"/>
<path d="M210,422 L210,456" fill="none" stroke="#f08c00" stroke-width="2.4" stroke-linejoin="round" stroke-linecap="round"/>
<circle cx="210" cy="422" r="4.5" fill="#f08c00"/>
<circle cx="210" cy="456" r="4.5" fill="#f08c00"/>
<rect x="198.0" y="429.0" width="24" height="20" rx="4" fill="#ffe8cc" stroke="#f08c00" stroke-width="2"/>
<text x="229.0" y="444.0" font-size="13" font-weight="600" fill="#f08c00">10k</text>
<path d="M232,456 L232,490" fill="none" stroke="#1971c2" stroke-width="2.4" stroke-linejoin="round" stroke-linecap="round"/>
<circle cx="232" cy="456" r="4.5" fill="#1971c2"/>
<circle cx="232" cy="490" r="4.5" fill="#1971c2"/>
<rect x="222.0" y="466.5" width="20" height="13" rx="4" fill="#d0ebff" stroke="#1971c2" stroke-width="2"/>
<text x="249.0" y="478.0" font-size="13" font-weight="600" fill="#1971c2">1nF</text>
<path d="M254,490 L254,507.0 L156,507.0" fill="none" stroke="#343a40" stroke-width="2.6" stroke-linejoin="round" stroke-linecap="round"/>
<circle cx="156" cy="507.0" r="4.5" fill="#343a40"/>
<circle cx="254" cy="490" r="4.5" fill="#343a40"/>
<rect x="516" y="108" width="160" height="94" rx="6" fill="#fff4e6" stroke="#f08c00"/>
<text x="526" y="129" font-size="11.5" font-weight="700" fill="#212529">สเตจ 2 เหมือนสเตจ 1</text>
<text x="526" y="147" font-size="11.5" font-weight="400" fill="#212529">ทุกประการ</text>
<text x="526" y="165" font-size="11.5" font-weight="400" fill="#212529">ต่างแค่ใช้ขา 5-6-7</text>
<text x="526" y="183" font-size="11.5" font-weight="400" fill="#212529">แทนขา 1-2-3</text>
<rect x="516" y="350" width="160" height="94" rx="6" fill="#ebfbee" stroke="#2f9e44"/>
<text x="526" y="371" font-size="11.5" font-weight="700" fill="#212529">เกน DC ของทั้งสองสเตจ</text>
<text x="526" y="389" font-size="11.5" font-weight="400" fill="#212529">เป็น 1 เพราะคาปากั้นไว้</text>
<text x="526" y="407" font-size="11.5" font-weight="400" fill="#212529">จึงต่อตรงถึงกันได้</text>
<text x="526" y="425" font-size="11.5" font-weight="400" fill="#212529">ไม่ต้องมีคาปาคั่นกลาง</text>
</svg>