M48
METRIC,TZ
T1C0.600
T2C0.900
T3C1.000
T4C1.200
T5C2.700
%
T1
X110.100Y55.300
X82.300Y3.700
X81.900Y4.100
X9.500Y18.900
X60.700Y138.900
X82.300Y4.500
X121.500Y1.900
X138.300Y137.300
X121.100Y1.500
X138.700Y136.900
X134.500Y131.900
X134.500Y83.900
T2
X93.240Y16.000
X83.080Y28.000
X92.540Y28.000
X38.080Y6.000
X61.080Y6.000
X65.080Y12.000
X38.080Y66.000
X61.080Y66.000
X65.080Y60.000
X38.080Y78.000
X61.080Y78.000
X65.080Y84.000
X38.080Y138.000
X61.080Y138.000
X65.080Y132.000
X160.920Y66.000
X137.920Y66.000
X133.920Y60.000
X160.920Y6.000
X137.920Y6.000
X133.920Y12.000
X160.920Y138.000
X137.920Y138.000
X133.920Y132.000
X160.920Y78.000
X137.920Y78.000
X133.920Y84.000
X47.620Y43.620
X45.080Y29.000
X47.620Y115.620
X45.080Y101.000
X151.380Y36.000
X153.920Y50.600
X151.380Y108.000
X153.920Y122.600
X85.620Y51.620
X83.080Y56.000
X105.620Y49.000
X115.080Y56.000
X112.540Y49.000
X98.000Y42.000
X131.380Y90.000
X139.000Y84.000
X131.380Y126.000
X139.000Y132.000
X131.380Y18.000
X139.000Y12.000
X131.380Y54.000
X139.000Y60.000
X67.620Y126.000
X60.000Y132.000
X67.620Y90.000
X60.000Y84.000
X67.620Y54.000
X60.000Y60.000
X67.620Y18.000
X60.000Y12.000
X78.000Y16.000
X80.540Y23.620
X88.160Y16.000
X78.000Y23.620
X78.000Y28.000
X90.000Y28.000
X80.540Y16.000
X83.080Y16.000
X85.620Y16.000
X100.000Y14.000
X107.620Y14.000
X83.080Y23.620
X85.620Y23.620
X88.160Y23.620
X100.000Y21.000
X107.620Y21.000
X90.700Y16.000
X90.700Y23.620
X93.240Y23.620
X100.000Y28.000
X107.620Y28.000
X105.620Y42.000
X47.620Y36.000
X40.000Y29.000
X47.620Y108.000
X40.000Y101.000
X151.380Y43.620
X159.000Y50.600
X151.380Y115.620
X159.000Y122.600
X85.620Y44.000
X78.000Y56.000
X98.000Y56.000
X13.000Y18.000
X18.080Y18.000
X21.000Y18.000
X45.080Y36.000
X40.000Y36.000
X19.000Y12.000
X50.160Y36.000
X42.540Y36.000
X26.620Y12.000
X19.000Y6.000
X26.620Y6.000
X33.000Y6.000
X55.240Y36.000
X42.000Y12.000
X60.000Y18.000
X52.700Y36.000
X49.620Y12.000
X42.000Y6.000
X49.620Y6.000
X56.000Y6.000
X13.000Y54.000
X18.080Y54.000
X21.000Y54.000
X50.160Y43.620
X55.240Y43.620
X19.000Y60.000
X45.080Y43.620
X52.700Y43.620
X26.620Y60.000
X19.000Y66.000
X26.620Y66.000
X33.000Y66.000
X40.000Y43.620
X42.000Y60.000
X60.000Y54.000
X42.540Y43.620
X49.620Y60.000
X42.000Y66.000
X49.620Y66.000
X56.000Y66.000
X13.000Y90.000
X18.080Y90.000
X21.000Y90.000
X45.080Y108.000
X40.000Y108.000
X19.000Y84.000
X50.160Y108.000
X42.540Y108.000
X26.620Y84.000
X19.000Y78.000
X26.620Y78.000
X33.000Y78.000
X55.240Y108.000
X42.000Y84.000
X60.000Y90.000
X52.700Y108.000
X49.620Y84.000
X42.000Y78.000
X49.620Y78.000
X56.000Y78.000
X13.000Y126.000
X18.080Y126.000
X21.000Y126.000
X50.160Y115.620
X55.240Y115.620
X19.000Y132.000
X45.080Y115.620
X52.700Y115.620
X26.620Y132.000
X19.000Y138.000
X26.620Y138.000
X33.000Y138.000
X40.000Y115.620
X42.000Y132.000
X60.000Y126.000
X42.540Y115.620
X49.620Y132.000
X42.000Y138.000
X49.620Y138.000
X56.000Y138.000
X186.000Y54.000
X180.920Y54.000
X178.000Y54.000
X153.920Y43.620
X159.000Y43.620
X180.000Y60.000
X148.840Y43.620
X156.460Y43.620
X172.380Y60.000
X180.000Y66.000
X172.380Y66.000
X166.000Y66.000
X143.760Y43.620
X157.000Y60.000
X139.000Y54.000
X146.300Y43.620
X149.380Y60.000
X157.000Y66.000
X149.380Y66.000
X143.000Y66.000
X186.000Y18.000
X180.920Y18.000
X178.000Y18.000
X148.840Y36.000
X143.760Y36.000
X180.000Y12.000
X153.920Y36.000
X146.300Y36.000
X172.380Y12.000
X180.000Y6.000
X172.380Y6.000
X166.000Y6.000
X159.000Y36.000
X157.000Y12.000
X139.000Y18.000
X156.460Y36.000
X149.380Y12.000
X157.000Y6.000
X149.380Y6.000
X143.000Y6.000
X186.000Y126.000
X180.920Y126.000
X178.000Y126.000
X153.920Y115.620
X159.000Y115.620
X180.000Y132.000
X148.840Y115.620
X156.460Y115.620
X172.380Y132.000
X180.000Y138.000
X172.380Y138.000
X166.000Y138.000
X143.760Y115.620
X157.000Y132.000
X139.000Y126.000
X146.300Y115.620
X149.380Y132.000
X157.000Y138.000
X149.380Y138.000
X143.000Y138.000
X186.000Y90.000
X180.920Y90.000
X178.000Y90.000
X148.840Y108.000
X143.760Y108.000
X180.000Y84.000
X153.920Y108.000
X146.300Y108.000
X172.380Y84.000
X180.000Y78.000
X172.380Y78.000
X166.000Y78.000
X159.000Y108.000
X157.000Y84.000
X139.000Y90.000
X156.460Y108.000
X149.380Y84.000
X157.000Y78.000
X149.380Y78.000
X143.000Y78.000
X105.620Y56.000
X98.000Y49.000
X83.080Y44.000
X28.620Y18.000
X28.620Y54.000
X28.620Y90.000
X28.620Y126.000
X170.380Y54.000
X170.380Y18.000
X170.380Y126.000
X170.380Y90.000
X78.000Y44.000
X80.540Y44.000
X110.000Y56.000
X110.000Y49.000
X88.160Y44.000
X90.700Y44.000
X93.240Y44.000
X88.160Y51.620
X90.700Y51.620
X93.240Y51.620
X83.080Y51.620
X80.540Y51.620
X78.000Y51.620
T3
X76.000Y87.780
X78.540Y87.780
X121.720Y70.000
X115.080Y42.000
X81.080Y87.780
X124.260Y70.000
X96.320Y87.780
X98.860Y87.780
X101.400Y87.780
X103.940Y87.780
X106.480Y87.780
X109.020Y87.780
X111.560Y87.780
X114.100Y87.780
X109.020Y70.000
X111.560Y70.000
X114.100Y70.000
X119.180Y70.000
X110.000Y42.000
X83.620Y87.780
X86.160Y87.780
X88.700Y87.780
X91.240Y87.780
X93.780Y87.780
X116.640Y87.780
X119.180Y87.780
X121.720Y87.780
X124.260Y87.780
X76.000Y70.000
X78.540Y70.000
X81.080Y70.000
X83.620Y70.000
X86.160Y70.000
X88.700Y70.000
X91.240Y70.000
X93.780Y70.000
X96.320Y70.000
X98.860Y70.000
X101.400Y70.000
X103.940Y70.000
X106.480Y70.000
X116.640Y70.000
T4
X122.080Y3.000
X83.080Y3.000
X96.080Y3.000
X109.080Y3.000
X10.080Y18.000
X10.080Y54.000
X10.080Y90.000
X10.080Y126.000
X188.920Y54.000
X188.920Y18.000
X188.920Y126.000
X188.920Y90.000
X117.000Y3.000
X78.000Y3.000
X91.000Y3.000
X104.000Y3.000
X5.000Y18.000
X5.000Y54.000
X5.000Y90.000
X5.000Y126.000
X194.000Y54.000
X194.000Y18.000
X194.000Y126.000
X194.000Y90.000
T5
X1.600Y-0.400
X197.400Y-0.400
X1.600Y141.400
X197.400Y141.400
T0
M30
