%FSLAX46Y46*%
%MOMM*%
%TF.FileFunction,Legend,Top*%
%TF.Part,Single*%
%LPD*%
%ADD10C,0.2000*%
%ADD11C,0.1500*%
%ADD12C,0.3000*%
D10*
X-350000Y-400000D02*
X3550000Y-400000D01*
D10*
X1600000Y-2350000D02*
X1600000Y1550000D01*
D10*
X195450000Y-400000D02*
X199350000Y-400000D01*
D10*
X197400000Y-2350000D02*
X197400000Y1550000D01*
D10*
X-350000Y141400000D02*
X3550000Y141400000D01*
D10*
X1600000Y139450000D02*
X1600000Y143350000D01*
D10*
X195450000Y141400000D02*
X199350000Y141400000D01*
D10*
X197400000Y139450000D02*
X197400000Y143350000D01*
D11*
X74600000Y86380000D02*
X125660000Y86380000D01*
X125660000Y89180000D01*
X74600000Y89180000D01*
X74600000Y86380000D01*
D11*
X74600000Y68600000D02*
X125660000Y68600000D01*
X125660000Y71400000D01*
X74600000Y71400000D01*
X74600000Y68600000D01*
D11*
X76600000Y14600000D02*
X94640000Y14600000D01*
X94640000Y25020000D01*
X76600000Y25020000D01*
X76600000Y14600000D01*
D11*
X76400000Y26600000D02*
X84680000Y26600000D01*
X84680000Y29400000D01*
X76400000Y29400000D01*
X76400000Y26600000D01*
D11*
X88400000Y26600000D02*
X94140000Y26600000D01*
X94140000Y29400000D01*
X88400000Y29400000D01*
X88400000Y26600000D01*
D11*
X115600000Y1600000D02*
X123480000Y1600000D01*
X123480000Y4400000D01*
X115600000Y4400000D01*
X115600000Y1600000D01*
D11*
X98400000Y12600000D02*
X109220000Y12600000D01*
X109220000Y15400000D01*
X98400000Y15400000D01*
X98400000Y12600000D01*
D11*
X76600000Y1600000D02*
X84480000Y1600000D01*
X84480000Y4400000D01*
X76600000Y4400000D01*
X76600000Y1600000D01*
D11*
X98400000Y19600000D02*
X109220000Y19600000D01*
X109220000Y22400000D01*
X98400000Y22400000D01*
X98400000Y19600000D01*
D11*
X89600000Y1600000D02*
X97480000Y1600000D01*
X97480000Y4400000D01*
X89600000Y4400000D01*
X89600000Y1600000D01*
D11*
X98400000Y26600000D02*
X109220000Y26600000D01*
X109220000Y29400000D01*
X98400000Y29400000D01*
X98400000Y26600000D01*
D11*
X102600000Y1600000D02*
X110480000Y1600000D01*
X110480000Y4400000D01*
X102600000Y4400000D01*
X102600000Y1600000D01*
D11*
X96400000Y40600000D02*
X107220000Y40600000D01*
X107220000Y43400000D01*
X96400000Y43400000D01*
X96400000Y40600000D01*
D11*
X108400000Y40600000D02*
X116680000Y40600000D01*
X116680000Y43400000D01*
X108400000Y43400000D01*
X108400000Y40600000D01*
D11*
X3600000Y16600000D02*
X11480000Y16600000D01*
X11480000Y19400000D01*
X3600000Y19400000D01*
X3600000Y16600000D01*
D11*
X11400000Y16600000D02*
X19680000Y16600000D01*
X19680000Y19400000D01*
X11400000Y19400000D01*
X11400000Y16600000D01*
D11*
X19400000Y16600000D02*
X30220000Y16600000D01*
X30220000Y19400000D01*
X19400000Y19400000D01*
X19400000Y16600000D01*
D11*
X17400000Y10600000D02*
X28220000Y10600000D01*
X28220000Y13400000D01*
X17400000Y13400000D01*
X17400000Y10600000D01*
D11*
X17400000Y4600000D02*
X28220000Y4600000D01*
X28220000Y7400000D01*
X17400000Y7400000D01*
X17400000Y4600000D01*
D11*
X31400000Y4600000D02*
X39680000Y4600000D01*
X39680000Y7400000D01*
X31400000Y7400000D01*
X31400000Y4600000D01*
D11*
X40400000Y10600000D02*
X51220000Y10600000D01*
X51220000Y13400000D01*
X40400000Y13400000D01*
X40400000Y10600000D01*
D11*
X40400000Y4600000D02*
X51220000Y4600000D01*
X51220000Y7400000D01*
X40400000Y7400000D01*
X40400000Y4600000D01*
D11*
X54400000Y4600000D02*
X62680000Y4600000D01*
X62680000Y7400000D01*
X54400000Y7400000D01*
X54400000Y4600000D01*
D11*
X58400000Y16600000D02*
X69220000Y16600000D01*
X69220000Y19400000D01*
X58400000Y19400000D01*
X58400000Y16600000D01*
D11*
X58400000Y10600000D02*
X66680000Y10600000D01*
X66680000Y13400000D01*
X58400000Y13400000D01*
X58400000Y10600000D01*
D11*
X3600000Y52600000D02*
X11480000Y52600000D01*
X11480000Y55400000D01*
X3600000Y55400000D01*
X3600000Y52600000D01*
D11*
X11400000Y52600000D02*
X19680000Y52600000D01*
X19680000Y55400000D01*
X11400000Y55400000D01*
X11400000Y52600000D01*
D11*
X19400000Y52600000D02*
X30220000Y52600000D01*
X30220000Y55400000D01*
X19400000Y55400000D01*
X19400000Y52600000D01*
D11*
X17400000Y58600000D02*
X28220000Y58600000D01*
X28220000Y61400000D01*
X17400000Y61400000D01*
X17400000Y58600000D01*
D11*
X17400000Y64600000D02*
X28220000Y64600000D01*
X28220000Y67400000D01*
X17400000Y67400000D01*
X17400000Y64600000D01*
D11*
X31400000Y64600000D02*
X39680000Y64600000D01*
X39680000Y67400000D01*
X31400000Y67400000D01*
X31400000Y64600000D01*
D11*
X40400000Y58600000D02*
X51220000Y58600000D01*
X51220000Y61400000D01*
X40400000Y61400000D01*
X40400000Y58600000D01*
D11*
X40400000Y64600000D02*
X51220000Y64600000D01*
X51220000Y67400000D01*
X40400000Y67400000D01*
X40400000Y64600000D01*
D11*
X54400000Y64600000D02*
X62680000Y64600000D01*
X62680000Y67400000D01*
X54400000Y67400000D01*
X54400000Y64600000D01*
D11*
X58400000Y52600000D02*
X69220000Y52600000D01*
X69220000Y55400000D01*
X58400000Y55400000D01*
X58400000Y52600000D01*
D11*
X58400000Y58600000D02*
X66680000Y58600000D01*
X66680000Y61400000D01*
X58400000Y61400000D01*
X58400000Y58600000D01*
D11*
X3600000Y88600000D02*
X11480000Y88600000D01*
X11480000Y91400000D01*
X3600000Y91400000D01*
X3600000Y88600000D01*
D11*
X11400000Y88600000D02*
X19680000Y88600000D01*
X19680000Y91400000D01*
X11400000Y91400000D01*
X11400000Y88600000D01*
D11*
X19400000Y88600000D02*
X30220000Y88600000D01*
X30220000Y91400000D01*
X19400000Y91400000D01*
X19400000Y88600000D01*
D11*
X17400000Y82600000D02*
X28220000Y82600000D01*
X28220000Y85400000D01*
X17400000Y85400000D01*
X17400000Y82600000D01*
D11*
X17400000Y76600000D02*
X28220000Y76600000D01*
X28220000Y79400000D01*
X17400000Y79400000D01*
X17400000Y76600000D01*
D11*
X31400000Y76600000D02*
X39680000Y76600000D01*
X39680000Y79400000D01*
X31400000Y79400000D01*
X31400000Y76600000D01*
D11*
X40400000Y82600000D02*
X51220000Y82600000D01*
X51220000Y85400000D01*
X40400000Y85400000D01*
X40400000Y82600000D01*
D11*
X40400000Y76600000D02*
X51220000Y76600000D01*
X51220000Y79400000D01*
X40400000Y79400000D01*
X40400000Y76600000D01*
D11*
X54400000Y76600000D02*
X62680000Y76600000D01*
X62680000Y79400000D01*
X54400000Y79400000D01*
X54400000Y76600000D01*
D11*
X58400000Y88600000D02*
X69220000Y88600000D01*
X69220000Y91400000D01*
X58400000Y91400000D01*
X58400000Y88600000D01*
D11*
X58400000Y82600000D02*
X66680000Y82600000D01*
X66680000Y85400000D01*
X58400000Y85400000D01*
X58400000Y82600000D01*
D11*
X3600000Y124600000D02*
X11480000Y124600000D01*
X11480000Y127400000D01*
X3600000Y127400000D01*
X3600000Y124600000D01*
D11*
X11400000Y124600000D02*
X19680000Y124600000D01*
X19680000Y127400000D01*
X11400000Y127400000D01*
X11400000Y124600000D01*
D11*
X19400000Y124600000D02*
X30220000Y124600000D01*
X30220000Y127400000D01*
X19400000Y127400000D01*
X19400000Y124600000D01*
D11*
X17400000Y130600000D02*
X28220000Y130600000D01*
X28220000Y133400000D01*
X17400000Y133400000D01*
X17400000Y130600000D01*
D11*
X17400000Y136600000D02*
X28220000Y136600000D01*
X28220000Y139400000D01*
X17400000Y139400000D01*
X17400000Y136600000D01*
D11*
X31400000Y136600000D02*
X39680000Y136600000D01*
X39680000Y139400000D01*
X31400000Y139400000D01*
X31400000Y136600000D01*
D11*
X40400000Y130600000D02*
X51220000Y130600000D01*
X51220000Y133400000D01*
X40400000Y133400000D01*
X40400000Y130600000D01*
D11*
X40400000Y136600000D02*
X51220000Y136600000D01*
X51220000Y139400000D01*
X40400000Y139400000D01*
X40400000Y136600000D01*
D11*
X54400000Y136600000D02*
X62680000Y136600000D01*
X62680000Y139400000D01*
X54400000Y139400000D01*
X54400000Y136600000D01*
D11*
X58400000Y124600000D02*
X69220000Y124600000D01*
X69220000Y127400000D01*
X58400000Y127400000D01*
X58400000Y124600000D01*
D11*
X58400000Y130600000D02*
X66680000Y130600000D01*
X66680000Y133400000D01*
X58400000Y133400000D01*
X58400000Y130600000D01*
D11*
X187520000Y52600000D02*
X195400000Y52600000D01*
X195400000Y55400000D01*
X187520000Y55400000D01*
X187520000Y52600000D01*
D11*
X179320000Y52600000D02*
X187600000Y52600000D01*
X187600000Y55400000D01*
X179320000Y55400000D01*
X179320000Y52600000D01*
D11*
X168780000Y52600000D02*
X179600000Y52600000D01*
X179600000Y55400000D01*
X168780000Y55400000D01*
X168780000Y52600000D01*
D11*
X170780000Y58600000D02*
X181600000Y58600000D01*
X181600000Y61400000D01*
X170780000Y61400000D01*
X170780000Y58600000D01*
D11*
X170780000Y64600000D02*
X181600000Y64600000D01*
X181600000Y67400000D01*
X170780000Y67400000D01*
X170780000Y64600000D01*
D11*
X159320000Y64600000D02*
X167600000Y64600000D01*
X167600000Y67400000D01*
X159320000Y67400000D01*
X159320000Y64600000D01*
D11*
X147780000Y58600000D02*
X158600000Y58600000D01*
X158600000Y61400000D01*
X147780000Y61400000D01*
X147780000Y58600000D01*
D11*
X147780000Y64600000D02*
X158600000Y64600000D01*
X158600000Y67400000D01*
X147780000Y67400000D01*
X147780000Y64600000D01*
D11*
X136320000Y64600000D02*
X144600000Y64600000D01*
X144600000Y67400000D01*
X136320000Y67400000D01*
X136320000Y64600000D01*
D11*
X129780000Y52600000D02*
X140600000Y52600000D01*
X140600000Y55400000D01*
X129780000Y55400000D01*
X129780000Y52600000D01*
D11*
X132320000Y58600000D02*
X140600000Y58600000D01*
X140600000Y61400000D01*
X132320000Y61400000D01*
X132320000Y58600000D01*
D11*
X187520000Y16600000D02*
X195400000Y16600000D01*
X195400000Y19400000D01*
X187520000Y19400000D01*
X187520000Y16600000D01*
D11*
X179320000Y16600000D02*
X187600000Y16600000D01*
X187600000Y19400000D01*
X179320000Y19400000D01*
X179320000Y16600000D01*
D11*
X168780000Y16600000D02*
X179600000Y16600000D01*
X179600000Y19400000D01*
X168780000Y19400000D01*
X168780000Y16600000D01*
D11*
X170780000Y10600000D02*
X181600000Y10600000D01*
X181600000Y13400000D01*
X170780000Y13400000D01*
X170780000Y10600000D01*
D11*
X170780000Y4600000D02*
X181600000Y4600000D01*
X181600000Y7400000D01*
X170780000Y7400000D01*
X170780000Y4600000D01*
D11*
X159320000Y4600000D02*
X167600000Y4600000D01*
X167600000Y7400000D01*
X159320000Y7400000D01*
X159320000Y4600000D01*
D11*
X147780000Y10600000D02*
X158600000Y10600000D01*
X158600000Y13400000D01*
X147780000Y13400000D01*
X147780000Y10600000D01*
D11*
X147780000Y4600000D02*
X158600000Y4600000D01*
X158600000Y7400000D01*
X147780000Y7400000D01*
X147780000Y4600000D01*
D11*
X136320000Y4600000D02*
X144600000Y4600000D01*
X144600000Y7400000D01*
X136320000Y7400000D01*
X136320000Y4600000D01*
D11*
X129780000Y16600000D02*
X140600000Y16600000D01*
X140600000Y19400000D01*
X129780000Y19400000D01*
X129780000Y16600000D01*
D11*
X132320000Y10600000D02*
X140600000Y10600000D01*
X140600000Y13400000D01*
X132320000Y13400000D01*
X132320000Y10600000D01*
D11*
X187520000Y124600000D02*
X195400000Y124600000D01*
X195400000Y127400000D01*
X187520000Y127400000D01*
X187520000Y124600000D01*
D11*
X179320000Y124600000D02*
X187600000Y124600000D01*
X187600000Y127400000D01*
X179320000Y127400000D01*
X179320000Y124600000D01*
D11*
X168780000Y124600000D02*
X179600000Y124600000D01*
X179600000Y127400000D01*
X168780000Y127400000D01*
X168780000Y124600000D01*
D11*
X170780000Y130600000D02*
X181600000Y130600000D01*
X181600000Y133400000D01*
X170780000Y133400000D01*
X170780000Y130600000D01*
D11*
X170780000Y136600000D02*
X181600000Y136600000D01*
X181600000Y139400000D01*
X170780000Y139400000D01*
X170780000Y136600000D01*
D11*
X159320000Y136600000D02*
X167600000Y136600000D01*
X167600000Y139400000D01*
X159320000Y139400000D01*
X159320000Y136600000D01*
D11*
X147780000Y130600000D02*
X158600000Y130600000D01*
X158600000Y133400000D01*
X147780000Y133400000D01*
X147780000Y130600000D01*
D11*
X147780000Y136600000D02*
X158600000Y136600000D01*
X158600000Y139400000D01*
X147780000Y139400000D01*
X147780000Y136600000D01*
D11*
X136320000Y136600000D02*
X144600000Y136600000D01*
X144600000Y139400000D01*
X136320000Y139400000D01*
X136320000Y136600000D01*
D11*
X129780000Y124600000D02*
X140600000Y124600000D01*
X140600000Y127400000D01*
X129780000Y127400000D01*
X129780000Y124600000D01*
D11*
X132320000Y130600000D02*
X140600000Y130600000D01*
X140600000Y133400000D01*
X132320000Y133400000D01*
X132320000Y130600000D01*
D11*
X187520000Y88600000D02*
X195400000Y88600000D01*
X195400000Y91400000D01*
X187520000Y91400000D01*
X187520000Y88600000D01*
D11*
X179320000Y88600000D02*
X187600000Y88600000D01*
X187600000Y91400000D01*
X179320000Y91400000D01*
X179320000Y88600000D01*
D11*
X168780000Y88600000D02*
X179600000Y88600000D01*
X179600000Y91400000D01*
X168780000Y91400000D01*
X168780000Y88600000D01*
D11*
X170780000Y82600000D02*
X181600000Y82600000D01*
X181600000Y85400000D01*
X170780000Y85400000D01*
X170780000Y82600000D01*
D11*
X170780000Y76600000D02*
X181600000Y76600000D01*
X181600000Y79400000D01*
X170780000Y79400000D01*
X170780000Y76600000D01*
D11*
X159320000Y76600000D02*
X167600000Y76600000D01*
X167600000Y79400000D01*
X159320000Y79400000D01*
X159320000Y76600000D01*
D11*
X147780000Y82600000D02*
X158600000Y82600000D01*
X158600000Y85400000D01*
X147780000Y85400000D01*
X147780000Y82600000D01*
D11*
X147780000Y76600000D02*
X158600000Y76600000D01*
X158600000Y79400000D01*
X147780000Y79400000D01*
X147780000Y76600000D01*
D11*
X136320000Y76600000D02*
X144600000Y76600000D01*
X144600000Y79400000D01*
X136320000Y79400000D01*
X136320000Y76600000D01*
D11*
X129780000Y88600000D02*
X140600000Y88600000D01*
X140600000Y91400000D01*
X129780000Y91400000D01*
X129780000Y88600000D01*
D11*
X132320000Y82600000D02*
X140600000Y82600000D01*
X140600000Y85400000D01*
X132320000Y85400000D01*
X132320000Y82600000D01*
D11*
X38600000Y34600000D02*
X56640000Y34600000D01*
X56640000Y45020000D01*
X38600000Y45020000D01*
X38600000Y34600000D01*
D11*
X38400000Y27600000D02*
X46680000Y27600000D01*
X46680000Y30400000D01*
X38400000Y30400000D01*
X38400000Y27600000D01*
D11*
X38600000Y106600000D02*
X56640000Y106600000D01*
X56640000Y117020000D01*
X38600000Y117020000D01*
X38600000Y106600000D01*
D11*
X38400000Y99600000D02*
X46680000Y99600000D01*
X46680000Y102400000D01*
X38400000Y102400000D01*
X38400000Y99600000D01*
D11*
X142360000Y34600000D02*
X160400000Y34600000D01*
X160400000Y45020000D01*
X142360000Y45020000D01*
X142360000Y34600000D01*
D11*
X152320000Y49200000D02*
X160600000Y49200000D01*
X160600000Y52000000D01*
X152320000Y52000000D01*
X152320000Y49200000D01*
D11*
X142360000Y106600000D02*
X160400000Y106600000D01*
X160400000Y117020000D01*
X142360000Y117020000D01*
X142360000Y106600000D01*
D11*
X152320000Y121200000D02*
X160600000Y121200000D01*
X160600000Y124000000D01*
X152320000Y124000000D01*
X152320000Y121200000D01*
D11*
X76600000Y42600000D02*
X94640000Y42600000D01*
X94640000Y53020000D01*
X76600000Y53020000D01*
X76600000Y42600000D01*
D11*
X76400000Y54600000D02*
X84680000Y54600000D01*
X84680000Y57400000D01*
X76400000Y57400000D01*
X76400000Y54600000D01*
D11*
X96400000Y54600000D02*
X107220000Y54600000D01*
X107220000Y57400000D01*
X96400000Y57400000D01*
X96400000Y54600000D01*
D11*
X96400000Y47600000D02*
X107220000Y47600000D01*
X107220000Y50400000D01*
X96400000Y50400000D01*
X96400000Y47600000D01*
D11*
X108400000Y54600000D02*
X116680000Y54600000D01*
X116680000Y57400000D01*
X108400000Y57400000D01*
X108400000Y54600000D01*
D11*
X108400000Y47600000D02*
X114140000Y47600000D01*
X114140000Y50400000D01*
X108400000Y50400000D01*
X108400000Y47600000D01*
D12*
X74400000Y87780000D02*
X74800000Y87780000D01*
D12*
X74400000Y70000000D02*
X74800000Y70000000D01*
D12*
X76400000Y16000000D02*
X76800000Y16000000D01*
D12*
X76400000Y28000000D02*
X76800000Y28000000D01*
D12*
X88400000Y28000000D02*
X88800000Y28000000D01*
D12*
X115400000Y3000000D02*
X115800000Y3000000D01*
D12*
X98400000Y14000000D02*
X98800000Y14000000D01*
D12*
X76400000Y3000000D02*
X76800000Y3000000D01*
D12*
X98400000Y21000000D02*
X98800000Y21000000D01*
D12*
X89400000Y3000000D02*
X89800000Y3000000D01*
D12*
X98400000Y28000000D02*
X98800000Y28000000D01*
D12*
X102400000Y3000000D02*
X102800000Y3000000D01*
D12*
X96400000Y42000000D02*
X96800000Y42000000D01*
D12*
X108400000Y42000000D02*
X108800000Y42000000D01*
D12*
X3400000Y18000000D02*
X3800000Y18000000D01*
D12*
X11400000Y18000000D02*
X11800000Y18000000D01*
D12*
X19400000Y18000000D02*
X19800000Y18000000D01*
D12*
X17400000Y12000000D02*
X17800000Y12000000D01*
D12*
X17400000Y6000000D02*
X17800000Y6000000D01*
D12*
X31400000Y6000000D02*
X31800000Y6000000D01*
D12*
X40400000Y12000000D02*
X40800000Y12000000D01*
D12*
X40400000Y6000000D02*
X40800000Y6000000D01*
D12*
X54400000Y6000000D02*
X54800000Y6000000D01*
D12*
X58400000Y18000000D02*
X58800000Y18000000D01*
D12*
X58400000Y12000000D02*
X58800000Y12000000D01*
D12*
X3400000Y54000000D02*
X3800000Y54000000D01*
D12*
X11400000Y54000000D02*
X11800000Y54000000D01*
D12*
X19400000Y54000000D02*
X19800000Y54000000D01*
D12*
X17400000Y60000000D02*
X17800000Y60000000D01*
D12*
X17400000Y66000000D02*
X17800000Y66000000D01*
D12*
X31400000Y66000000D02*
X31800000Y66000000D01*
D12*
X40400000Y60000000D02*
X40800000Y60000000D01*
D12*
X40400000Y66000000D02*
X40800000Y66000000D01*
D12*
X54400000Y66000000D02*
X54800000Y66000000D01*
D12*
X58400000Y54000000D02*
X58800000Y54000000D01*
D12*
X58400000Y60000000D02*
X58800000Y60000000D01*
D12*
X3400000Y90000000D02*
X3800000Y90000000D01*
D12*
X11400000Y90000000D02*
X11800000Y90000000D01*
D12*
X19400000Y90000000D02*
X19800000Y90000000D01*
D12*
X17400000Y84000000D02*
X17800000Y84000000D01*
D12*
X17400000Y78000000D02*
X17800000Y78000000D01*
D12*
X31400000Y78000000D02*
X31800000Y78000000D01*
D12*
X40400000Y84000000D02*
X40800000Y84000000D01*
D12*
X40400000Y78000000D02*
X40800000Y78000000D01*
D12*
X54400000Y78000000D02*
X54800000Y78000000D01*
D12*
X58400000Y90000000D02*
X58800000Y90000000D01*
D12*
X58400000Y84000000D02*
X58800000Y84000000D01*
D12*
X3400000Y126000000D02*
X3800000Y126000000D01*
D12*
X11400000Y126000000D02*
X11800000Y126000000D01*
D12*
X19400000Y126000000D02*
X19800000Y126000000D01*
D12*
X17400000Y132000000D02*
X17800000Y132000000D01*
D12*
X17400000Y138000000D02*
X17800000Y138000000D01*
D12*
X31400000Y138000000D02*
X31800000Y138000000D01*
D12*
X40400000Y132000000D02*
X40800000Y132000000D01*
D12*
X40400000Y138000000D02*
X40800000Y138000000D01*
D12*
X54400000Y138000000D02*
X54800000Y138000000D01*
D12*
X58400000Y126000000D02*
X58800000Y126000000D01*
D12*
X58400000Y132000000D02*
X58800000Y132000000D01*
D12*
X192400000Y54000000D02*
X192800000Y54000000D01*
D12*
X184400000Y54000000D02*
X184800000Y54000000D01*
D12*
X176400000Y54000000D02*
X176800000Y54000000D01*
D12*
X178400000Y60000000D02*
X178800000Y60000000D01*
D12*
X178400000Y66000000D02*
X178800000Y66000000D01*
D12*
X164400000Y66000000D02*
X164800000Y66000000D01*
D12*
X155400000Y60000000D02*
X155800000Y60000000D01*
D12*
X155400000Y66000000D02*
X155800000Y66000000D01*
D12*
X141400000Y66000000D02*
X141800000Y66000000D01*
D12*
X137400000Y54000000D02*
X137800000Y54000000D01*
D12*
X137400000Y60000000D02*
X137800000Y60000000D01*
D12*
X192400000Y18000000D02*
X192800000Y18000000D01*
D12*
X184400000Y18000000D02*
X184800000Y18000000D01*
D12*
X176400000Y18000000D02*
X176800000Y18000000D01*
D12*
X178400000Y12000000D02*
X178800000Y12000000D01*
D12*
X178400000Y6000000D02*
X178800000Y6000000D01*
D12*
X164400000Y6000000D02*
X164800000Y6000000D01*
D12*
X155400000Y12000000D02*
X155800000Y12000000D01*
D12*
X155400000Y6000000D02*
X155800000Y6000000D01*
D12*
X141400000Y6000000D02*
X141800000Y6000000D01*
D12*
X137400000Y18000000D02*
X137800000Y18000000D01*
D12*
X137400000Y12000000D02*
X137800000Y12000000D01*
D12*
X192400000Y126000000D02*
X192800000Y126000000D01*
D12*
X184400000Y126000000D02*
X184800000Y126000000D01*
D12*
X176400000Y126000000D02*
X176800000Y126000000D01*
D12*
X178400000Y132000000D02*
X178800000Y132000000D01*
D12*
X178400000Y138000000D02*
X178800000Y138000000D01*
D12*
X164400000Y138000000D02*
X164800000Y138000000D01*
D12*
X155400000Y132000000D02*
X155800000Y132000000D01*
D12*
X155400000Y138000000D02*
X155800000Y138000000D01*
D12*
X141400000Y138000000D02*
X141800000Y138000000D01*
D12*
X137400000Y126000000D02*
X137800000Y126000000D01*
D12*
X137400000Y132000000D02*
X137800000Y132000000D01*
D12*
X192400000Y90000000D02*
X192800000Y90000000D01*
D12*
X184400000Y90000000D02*
X184800000Y90000000D01*
D12*
X176400000Y90000000D02*
X176800000Y90000000D01*
D12*
X178400000Y84000000D02*
X178800000Y84000000D01*
D12*
X178400000Y78000000D02*
X178800000Y78000000D01*
D12*
X164400000Y78000000D02*
X164800000Y78000000D01*
D12*
X155400000Y84000000D02*
X155800000Y84000000D01*
D12*
X155400000Y78000000D02*
X155800000Y78000000D01*
D12*
X141400000Y78000000D02*
X141800000Y78000000D01*
D12*
X137400000Y90000000D02*
X137800000Y90000000D01*
D12*
X137400000Y84000000D02*
X137800000Y84000000D01*
D12*
X38400000Y36000000D02*
X38800000Y36000000D01*
D12*
X38400000Y29000000D02*
X38800000Y29000000D01*
D12*
X38400000Y108000000D02*
X38800000Y108000000D01*
D12*
X38400000Y101000000D02*
X38800000Y101000000D01*
D12*
X157400000Y43620000D02*
X157800000Y43620000D01*
D12*
X157400000Y50600000D02*
X157800000Y50600000D01*
D12*
X157400000Y115620000D02*
X157800000Y115620000D01*
D12*
X157400000Y122600000D02*
X157800000Y122600000D01*
D12*
X76400000Y44000000D02*
X76800000Y44000000D01*
D12*
X76400000Y56000000D02*
X76800000Y56000000D01*
D12*
X96400000Y56000000D02*
X96800000Y56000000D01*
D12*
X96400000Y49000000D02*
X96800000Y49000000D01*
D12*
X108400000Y56000000D02*
X108800000Y56000000D01*
D12*
X108400000Y49000000D02*
X108800000Y49000000D01*
M02*
